<svg width="140" height="78" viewBox="0 0 140 78" fill="none" xmlns="http://www.w3.org/2000/svg">
<path d="M25.1205 43.6187C24.5885 44.1456 24.3392 44.7713 24.3392 45.5288L24.389 59.5085C24.389 61.8796 23.5578 63.8885 21.8953 65.5187C20.2328 67.1653 18.2045 67.9886 15.8271 67.9886C14.946 67.9886 14.2477 67.7251 13.6991 67.1817C13.1671 66.6548 12.8845 65.9468 12.8845 65.0741C12.8845 64.2014 13.1505 63.4933 13.6991 62.9499C14.2311 62.4066 14.946 62.1266 15.8271 62.1266C16.5919 62.1266 17.2236 61.8796 17.7224 61.3692C18.2377 60.8587 18.4871 60.233 18.4871 59.4921L18.4372 45.5123C18.4372 43.1247 19.2685 41.0994 20.931 39.4693C22.5935 37.8391 24.6218 37.0158 26.9992 37.0158C27.8803 37.0158 28.5952 37.2793 29.1438 37.8226C29.6924 38.3496 29.9751 39.0576 29.9751 39.9303C29.9751 40.803 29.7257 41.4781 29.2103 41.9886C28.6949 42.499 27.9967 42.7789 27.1155 42.8613C26.2178 42.9271 25.5528 43.1741 25.1205 43.6187Z" fill="white"/>
<path d="M45.0374 65.0411C45.0374 65.9138 44.7714 66.6054 44.2228 67.1488C43.6908 67.6757 42.9759 67.9556 42.0948 67.9556C41.2136 67.9556 40.4988 67.6922 39.9501 67.1488C39.4015 66.6219 39.1189 65.9138 39.1189 65.0411V42.8777H35.2785C34.3973 42.8777 33.6825 42.5978 33.1338 42.0544C32.5852 41.5111 32.3026 40.803 32.3026 39.9303C32.3026 39.0576 32.5852 38.366 33.1338 37.8226C33.6825 37.2957 34.3973 37.0158 35.2785 37.0158H49.0939C49.9751 37.0158 50.6899 37.2793 51.2386 37.8226C51.7872 38.3496 52.0698 39.0576 52.0698 39.9303C52.0698 40.803 51.7872 41.5111 51.2386 42.0544C50.6899 42.5978 49.9751 42.8777 49.0939 42.8777H45.0208V65.0411H45.0374Z" fill="white"/>
<path d="M70.0914 37.0323C74.4638 37.0323 78.1546 38.5307 81.197 41.5275C84.2228 44.5244 85.7357 48.1963 85.7357 52.5269C85.7357 56.8575 84.2228 60.5294 81.197 63.5263C78.1712 66.5231 74.4638 68.0215 70.0914 68.0215C65.719 68.0215 62.0116 66.5231 58.9859 63.5263C55.9601 60.5294 54.4472 56.8575 54.4472 52.5269C54.4472 48.1963 55.9601 44.5408 58.9859 41.5275C62.0116 38.5307 65.719 37.0323 70.0914 37.0323ZM70.0914 42.8778C67.315 42.8778 65.0041 43.7999 63.1421 45.6441C61.2801 47.4883 60.3491 49.7935 60.3491 52.5269C60.3491 55.2438 61.2967 57.5326 63.1754 59.3933C65.054 61.254 67.3649 62.1925 70.1081 62.1925C72.8512 62.1925 75.1621 61.254 77.0407 59.3933C78.9194 57.5326 79.867 55.2438 79.867 52.5269C79.867 49.81 78.9194 47.5212 77.0407 45.6605C75.1455 43.7999 72.8346 42.8778 70.0914 42.8778Z" fill="white"/>
<path d="M102.178 58.7676C102.211 59.6897 102.56 60.48 103.225 61.1222C103.89 61.7644 104.688 62.0937 105.603 62.0937C106.517 62.0937 107.249 62.3572 107.814 62.9006C108.362 63.4275 108.645 64.152 108.645 65.0412C108.645 65.9139 108.362 66.6054 107.814 67.1488C107.265 67.6757 106.55 67.9557 105.669 67.9557C102.993 67.9557 100.748 67.0665 98.9526 65.2717C97.1571 63.4769 96.2593 61.2539 96.2593 58.6029V56.2153C96.2593 55.4414 96.5586 54.7663 97.1405 54.1735C97.7224 53.5972 98.404 53.3008 99.202 53.3008C100.665 53.3008 101.912 52.7904 102.943 51.7695C103.973 50.7486 104.489 49.5136 104.489 48.0646C104.489 46.6156 103.973 45.3971 102.943 44.3926C101.912 43.3882 100.665 42.8778 99.202 42.8778C97.739 42.8778 96.5087 43.3882 95.4946 44.3926C94.4805 45.3971 93.9651 46.632 93.9651 48.0646V65.0412C93.9651 65.9139 93.6825 66.6054 93.1338 67.1488C92.5852 67.6757 91.8703 67.9557 90.9892 67.9557C90.1413 67.9557 89.4431 67.6757 88.8944 67.1324C88.3458 66.589 88.0632 65.8974 88.0632 65.0576V48.0646C88.0632 44.9525 89.1272 42.3344 91.2718 40.2102C93.4165 38.0861 96.0598 37.0323 99.202 37.0323C102.344 37.0323 105.004 38.0861 107.165 40.2102C109.327 42.3344 110.407 44.9525 110.407 48.0646C110.407 50.5674 109.643 52.8068 108.13 54.7828C106.6 56.7422 104.622 58.076 102.178 58.7676Z" fill="white"/>
<path d="M128.396 68.0215C124.023 68.0215 120.316 66.5231 117.29 63.5263C114.264 60.5294 112.751 56.8575 112.751 52.5269C112.751 48.1963 114.264 44.5408 117.29 41.5275C120.316 38.5307 124.023 37.0323 128.396 37.0323C129.277 37.0323 129.992 37.2957 130.54 37.8391C131.089 38.366 131.372 39.0741 131.372 39.9468C131.372 40.8195 131.089 41.5275 130.54 42.0709C129.992 42.6143 129.277 42.8942 128.396 42.8942C126.301 42.8942 124.406 43.487 122.71 44.689C121.014 45.8911 119.834 47.4718 119.169 49.4313H128.396C129.277 49.4313 129.992 49.6947 130.54 50.2381C131.089 50.765 131.372 51.4731 131.372 52.3458C131.372 53.2185 131.089 53.9265 130.54 54.4699C129.992 55.0133 129.277 55.2932 128.396 55.2932H119.036C119.651 57.335 120.815 59.0146 122.56 60.2989C124.289 61.5833 126.234 62.2254 128.396 62.2254C129.277 62.2254 129.992 62.5054 130.54 63.0488C131.089 63.5921 131.372 64.3002 131.372 65.1729C131.372 66.0456 131.089 66.7372 130.54 67.2805C129.992 67.7581 129.277 68.0215 128.396 68.0215Z" fill="white"/>
<path d="M34.4996 5.06626C34.3666 5.06626 34.2336 5.06626 34.1505 5.11566C34.2003 5.24739 34.4165 5.19799 34.4497 5.32972C34.3998 5.46145 34.1505 5.32972 34.1505 5.54378C33.8013 5.54378 33.3192 5.41205 33.1862 5.80724C32.7539 5.75784 32.3549 5.75784 32.0058 5.75784C31.9559 5.88957 32.0889 5.84017 32.0557 5.9719C30.0939 5.9719 27.8163 6.18596 25.9377 6.36708C25.8047 7.53618 25.5054 9.39685 25.1064 10.3519C25.2893 10.7471 24.6243 11.2246 24.8903 11.6527C24.7074 12.6077 24.0091 13.6451 23.7598 14.5178C23.5769 15.2094 23.6268 15.901 23.3608 16.4608C23.0116 17.1524 22.8786 17.9263 22.3965 18.5355C22.2136 19.5729 21.6983 20.3962 21.4821 21.2689C21.6151 21.0878 21.6983 21.3183 21.8811 21.3183C22.0141 21.0549 22.3134 21.1866 22.5295 21.1372C22.5794 21.3183 22.5295 21.3512 22.6126 21.483C22.4298 21.5324 22.2635 21.5653 22.0806 21.6641C22.3466 21.7464 22.6126 21.483 22.9119 21.483C22.3799 21.9111 21.8645 22.0428 21.1164 22.1746C20.8171 22.4709 21.0332 23.0473 20.6342 23.2119C20.7174 23.393 20.5511 23.9035 20.3682 24.0846C20.3682 24.134 20.4514 24.134 20.4514 24.167C20.0191 24.9409 19.7531 26.11 19.404 27.1473C19.3541 27.2791 19.138 27.4437 19.0549 27.6248C19.005 27.806 19.1047 27.9212 19.0549 28.1024L18.872 28.3164C18.6891 28.7939 18.7889 29.3538 18.473 29.8807C18.4231 30.0124 18.207 30.4899 18.1239 30.7863C17.9077 31.4779 17.6417 32.0872 17.3425 32.6964C16.5943 34.0466 16.079 35.8579 15.3807 37.1093C14.8487 38.1961 14.1172 39.0523 13.4522 40.0074C12.1887 40.913 11.5736 42.6913 9.77806 42.9054C8.89692 43.0865 8.03242 43.6464 7.06816 43.5146L6.88529 43.597C6.80216 43.5146 6.66916 43.5146 6.58603 43.4158C6.50291 43.5476 6.53616 43.3335 6.40316 43.4652C3.90939 42.856 2.21363 41.4234 1.28263 39.431C1.3325 39.431 1.3325 39.4804 1.36575 39.4804C1.28263 39.3487 1.41563 39.1347 1.18288 39.0853C1.532 38.5254 0.916875 37.7021 1.04988 37.0435C1 36.9117 1.133 36.9611 1.18288 36.9941C1.09975 36.78 1.09975 36.5165 1 36.3025C1.133 36.2531 1 36.4836 1.133 36.4342C1.18288 36.4342 1.18288 36.3519 1.18288 36.2531C1.266 36.3025 1.23275 36.3848 1.23275 36.4342C1.532 36.1378 1.36575 35.3145 1.76476 35.1334C1.58188 34.6559 2.16376 34.2278 2.16376 33.7502C2.86201 33.0093 3.34414 32.0542 3.90939 31.198C5.00665 30.0289 5.97091 28.6457 7.36742 27.773C9.02993 26.1758 11.1746 25.0891 13.0532 23.7059C13.6185 23.4918 14.1505 23.1461 14.6326 22.8003C15.7298 22.2734 17.0765 21.9276 18.2569 21.4994C18.2569 21.5818 18.1737 21.5488 18.1737 21.5818C18.3566 21.6641 18.2569 21.4006 18.4397 21.45C18.4397 21.5324 18.3899 21.6312 18.4397 21.6312H18.5727C18.7057 21.4994 18.7889 21.2854 18.872 21.1537C18.8221 21.0713 18.739 21.1537 18.6559 21.1043C18.739 20.8902 18.872 20.6761 18.872 20.4621C18.872 20.4127 18.9551 20.4127 19.005 20.4127C19.0549 20.281 19.005 20.1163 19.1879 20.0669C19.1047 20.0669 19.138 19.9846 19.005 19.9846C18.9219 19.9352 18.9551 20.034 18.9219 20.1163C18.739 20.1657 18.9717 19.9352 18.8387 19.9352C18.7556 20.0669 18.7556 20.281 18.6226 20.4127C18.6226 19.6717 19.404 18.6014 19.3209 17.811C19.936 16.6419 20.5511 15.2588 20.6841 13.8262C20.9002 13.217 21.2993 12.476 21.1662 11.9656C21.1164 11.8338 21.3491 11.9656 21.2993 11.7844C21.2993 11.735 21.1662 11.735 21.1662 11.7844C21.0831 11.735 21.2494 11.6033 21.2161 11.521C21.266 11.521 21.2993 11.521 21.3491 11.4716C21.399 11.521 21.4821 11.521 21.4323 11.6033C21.5154 11.521 21.3491 11.3069 21.2161 11.3893C21.266 11.1258 21.399 10.9611 21.5154 10.8294C21.4655 9.92376 22.2136 8.837 22.1638 8.19482C22.3466 8.11249 22.2136 7.84904 22.4298 7.79964C22.3799 7.61851 22.2968 7.32212 22.5129 7.23979C22.3799 7.05866 22.5129 6.97633 22.596 6.81167C21.3658 6.76227 19.4871 7.23979 18.1405 7.45385C17.2261 7.63497 17.8412 7.23979 17.0432 7.63498C16.8603 7.68437 16.744 7.89843 16.4281 7.89843C15.946 7.84903 16.079 7.15746 15.7797 7.02573C15.8628 6.67994 15.6467 6.25182 15.9626 6.07069C15.8795 5.93897 15.9127 5.7249 15.7465 5.64257C16.744 5.21446 16.0125 5.69197 17.01 5.24739C16.9601 5.19799 17.143 5.16506 17.409 5.11566V5.19799H17.4921V5.11566C17.6251 5.11566 17.7914 5.06626 17.9244 5.03333C18.1072 5.16506 18.3566 4.951 18.4065 5.08273C18.4896 4.9016 18.6226 5.08273 18.6725 4.9016C18.8886 4.9016 18.9385 4.98393 19.0216 4.81927C19.2045 4.73694 19.0715 4.9016 19.1546 4.9016C19.2377 4.76987 19.9027 4.68754 19.803 4.72047C23.7431 3.94656 30.0773 3.12326 34.5827 4.63814C34.4497 4.76987 34.2835 4.63814 34.1837 4.72047C34.2668 4.8028 34.483 4.76987 34.5328 4.8522C34.5827 4.98393 34.4996 4.951 34.4996 5.06626ZM1.23275 36.5824C1.23275 36.6318 1.23275 36.6647 1.18288 36.6647C1.31588 36.7635 1.31588 36.5495 1.23275 36.5824ZM1.36575 35.8085C1.41563 35.7262 1.36575 35.9896 1.36575 36.0226C1.28263 36.1049 1.36575 35.8579 1.36575 35.8085ZM1.44888 35.4133C1.58188 35.4133 1.49875 35.7097 1.399 35.7097C1.31588 35.6768 1.44888 35.545 1.44888 35.4133ZM2.01413 33.8655C2.09726 33.9149 1.96426 34.0796 1.96426 34.1619C1.84788 34.0796 2.01413 33.9972 2.01413 33.8655ZM17.8412 23.3436C14.8653 24.6445 11.8894 26.6698 9.36243 28.761C9.36243 28.8104 9.4123 28.8104 9.4123 28.8433C7.69992 30.0618 6.22028 31.4779 5.1729 33.388C4.6409 33.6514 4.60765 34.343 4.25852 34.7711C4.07564 35.4133 3.42727 36.1049 3.72652 36.7141C3.64339 36.6647 3.64339 36.6318 3.54364 36.6647C3.41064 37.274 3.27764 38.0973 3.41064 38.7065C3.01164 40.1391 3.94264 41.3411 5.07315 41.868C6.38653 41.868 7.00166 41.1271 8.2153 41.0941C8.2153 41.0941 8.13217 41.2259 8.2153 41.2259C8.29842 40.8801 8.86367 40.8307 8.83042 40.4849C9.22943 40.4355 9.31255 40.0897 9.4788 39.8427C9.4788 39.925 9.4788 39.9744 9.6118 39.9744C9.7448 39.5463 10.3599 38.9371 10.7922 38.5419C10.7091 38.5419 10.6093 38.5913 10.6093 38.4925C10.6924 38.4431 10.7922 38.3608 10.9584 38.4102C10.9584 38.3278 10.9584 38.2784 11.0083 38.229C10.9584 38.229 10.9252 38.229 10.9252 38.1796L11.0582 37.9985C11.1413 38.0479 11.1413 38.0479 11.1912 38.0479C11.1912 38.0973 11.1081 38.229 11.2411 38.229L11.4239 38.0479C11.4738 37.8338 11.3741 37.4386 11.6401 37.3563C11.6401 37.488 11.4572 37.4057 11.5071 37.5704H11.7731C11.8229 37.521 11.8229 37.3892 11.9559 37.4386C11.6899 37.8338 11.3907 38.262 11.0748 38.6077C11.0748 38.5254 10.8088 38.5254 10.8088 38.5583C10.8919 38.6407 10.9917 38.5089 11.0748 38.6077C10.9917 38.7395 10.8919 38.7889 10.8587 38.9535C10.7756 38.9041 10.7257 38.9535 10.6758 39.0029C10.7257 39.0029 10.7589 39.0029 10.7589 38.9535C10.0607 39.8592 9.44555 40.6001 8.66417 41.3741C9.66168 40.9459 10.1106 39.9086 10.8919 39.2499C10.5428 39.9415 9.92768 40.3367 9.52868 40.9789C9.6118 40.9789 9.66168 41.0283 9.7448 41.0612C9.92768 40.7648 10.6259 40.3202 10.3599 40.1062C10.4929 39.8921 10.6592 39.8098 10.7922 39.6286C10.7922 39.678 10.7423 39.711 10.8421 39.711C11.2743 39.3652 11.5403 38.8383 11.9726 38.4595C12.0557 37.8997 12.6708 37.6856 12.6708 37.2081C12.4547 37.1258 12.4879 37.3893 12.2718 37.3399C12.4547 37.1587 12.5378 36.8129 12.8038 36.5989C12.8537 36.6812 12.6708 36.78 12.7539 36.8129C12.7539 36.6318 12.8371 36.7635 12.8869 36.8623C13.3691 36.1214 13.6351 35.3474 13.9842 34.4747C13.9343 34.4747 13.8512 34.4747 13.8512 34.4253V34.343H14.1172C14.1671 34.129 13.9842 33.9972 14.2003 33.8655C14.2502 33.7338 14.0175 33.8161 14.0673 33.7338C14.4165 33.4374 14.7656 32.6964 14.7656 32.2683C14.7157 32.3177 14.7656 32.4494 14.6825 32.4C14.6326 32.3506 14.7323 32.186 14.6326 32.186C14.6326 32.2683 14.4996 32.186 14.4165 32.2354C14.4165 32.4494 13.9842 32.7129 14.2835 32.7623C13.7515 33.4538 13.5852 34.4912 13.0532 35.0511C13.0532 35.3968 12.9701 35.6109 12.7041 35.6932C12.8371 35.5121 13.0532 35.1334 12.9701 35.0017C14.3167 32.2354 14.9817 29.4526 16.3782 26.818C16.3283 26.9497 16.4281 27.0321 16.3782 27.1638C16.1953 27.1638 16.1953 27.4602 16.1953 27.559C16.3283 27.6084 16.2452 27.4766 16.3782 27.5096C16.3782 27.5919 16.3283 27.6907 16.2951 27.7236C16.2951 27.6413 16.2951 27.5919 16.212 27.5919C15.9958 27.8554 16.0291 28.1518 15.946 28.4646H15.9958C16.1787 28.514 16.1288 28.3329 16.2618 28.3329L16.079 28.5469V28.5963H16.0291C15.9792 28.6787 15.8961 28.7775 15.7631 28.8104C15.7631 28.8927 15.7132 28.9915 15.6301 29.0245C15.68 29.0245 15.7132 29.0739 15.68 29.1068C15.813 29.0245 15.9792 28.9751 16.0291 29.1068L16.3283 28.2012C16.2785 28.2012 16.2785 28.2506 16.2785 28.2835C16.1455 28.2341 16.3283 28.2012 16.2785 28.1518H16.3616C16.7107 27.0321 17.1097 25.9947 17.4589 24.8585C17.276 24.8585 17.276 24.7762 17.1929 24.7268C17.143 24.7762 17.1929 24.9079 17.1097 24.9079H17.0266C17.0266 24.6115 17.2427 24.4798 17.3757 24.2658C17.5087 24.2164 17.5087 24.3152 17.675 24.3152C17.7082 23.9035 18.0574 23.6071 17.8412 23.3436ZM8.01579 41.9998C7.71654 41.8186 6.96841 42.2138 6.53616 42.3456C7.13466 42.4279 7.43392 42.0492 8.01579 41.9998ZM8.66417 40.8801H8.58105V40.9624H8.66417V40.8801ZM8.79717 40.8801C8.93017 40.9295 9.0133 40.8801 9.0133 40.7483C8.93018 40.7813 8.83042 40.7813 8.79717 40.8801ZM9.5453 41.0447C9.24605 41.0941 9.1463 41.3411 8.89692 41.4399C8.84705 41.4893 8.84705 41.5716 8.84705 41.654C9.19618 41.7034 8.93017 41.3576 9.2793 41.4399C9.31255 41.2588 9.49543 41.2259 9.5453 41.0447ZM8.93018 40.6989C8.98005 40.6989 8.98005 40.6495 8.98005 40.6495H8.8803V40.6989H8.93018ZM9.44555 26.4557C9.49543 26.5381 9.71155 26.5051 9.71155 26.4063C9.62843 26.4228 9.44555 26.324 9.44555 26.4557ZM9.49543 40.2214C9.57855 40.2214 9.6783 40.0897 9.62843 40.0403C9.57855 40.1391 9.49543 40.0897 9.49543 40.2214ZM9.71155 26.3734C9.92768 26.4228 9.92768 26.1923 10.0108 26.11C10.1937 26.1594 10.1937 26.0606 10.3599 26.0606C10.4431 25.9782 10.3101 25.7971 10.4929 25.8794C10.4929 25.83 10.5428 25.83 10.5428 25.7477C10.1438 25.7477 10.1106 26.0935 9.76143 26.1758C9.76143 26.2911 9.76143 26.324 9.71155 26.3734ZM9.71155 40.8801H9.84456C9.79468 40.9295 9.79468 41.0118 9.71155 41.0118V40.8801ZM9.84456 39.7439V39.8756C9.92768 39.925 9.97756 39.711 9.84456 39.7439ZM10.5428 25.6818C10.6259 25.7312 10.5927 25.863 10.7257 25.863C10.9086 25.5995 11.2078 25.4348 11.5569 25.3361C11.7731 25.0726 12.0889 24.9409 12.3882 24.7268C12.4713 24.6445 12.3051 24.5457 12.4381 24.5457C12.5711 24.4633 12.4381 24.628 12.5212 24.628C13.0865 24.0682 14.2336 23.7553 14.5328 23.1955C13.6517 23.6236 12.9202 24.1834 12.0391 24.628C11.9892 24.7103 12.2219 24.7597 12.0889 24.8091C11.6899 24.8585 10.9584 25.2373 10.9584 25.583C10.7756 25.6324 10.9086 25.4513 10.8254 25.5007C10.7589 25.5995 10.6259 25.5995 10.5428 25.6818ZM10.6758 39.8756C10.6259 39.925 10.6259 40.0074 10.5428 40.0568C10.6758 40.0897 10.8421 39.8756 10.6758 39.8756ZM10.7257 27.2461V27.2955H10.6758V27.3778H10.7257V27.3285H10.7756V27.2461H10.7257ZM10.9751 27.065C10.9751 27.0156 11.1081 27.065 11.0582 26.9827C11.0249 26.9827 10.9751 27.0156 10.9751 27.065ZM11.9061 38.229C11.6068 38.5748 11.2577 38.8383 11.0249 39.217C10.9418 39.0359 11.1579 38.8218 11.3242 38.7889C11.2909 38.4101 11.5902 38.3278 11.9061 38.229ZM11.0249 38.229C11.0249 38.2784 11.0249 38.3114 11.1081 38.3114C11.1081 38.229 11.0748 38.229 11.0249 38.229ZM16.877 23.393C16.744 23.393 16.5777 23.393 16.478 23.3107C15.8628 23.92 14.9485 24.1834 14.2502 24.6445C14.2502 24.6939 14.3333 24.6939 14.3333 24.7268C14.2003 24.6774 14.2502 24.8091 14.2502 24.8585C14.1172 24.7762 14.0341 24.9903 13.9011 24.8585C13.153 25.336 12.5378 25.9453 11.7564 26.324C11.8063 26.5381 11.4904 26.5051 11.4073 26.5875C11.4073 26.7686 11.2244 26.8015 11.1081 26.8509C11.1912 26.8509 11.2909 26.8509 11.3741 26.9003C13.0366 25.5501 15.0815 24.5621 16.877 23.393ZM11.2909 37.8009C11.3408 37.9326 11.1081 37.8009 11.1579 37.9326C11.0748 38.015 11.1912 37.7515 11.2909 37.8009ZM11.8562 38.1467V38.229C11.8063 38.1796 11.8063 38.1796 11.7731 38.1796V38.1302C11.7232 38.0808 11.7232 37.9985 11.5902 38.0479C11.5902 37.9656 11.7731 37.9985 11.8562 37.9985C11.8562 38.0479 11.7232 37.9985 11.7731 38.1302H11.8562V38.1467ZM11.8562 36.8953C11.8562 36.8129 11.9061 36.7635 11.9892 36.8129C11.9393 36.8129 11.9393 36.8953 11.8562 36.8953ZM12.3716 37.1093C12.1056 37.027 12.1056 37.1917 12.0224 37.3234C11.7564 37.274 12.2884 37.027 12.0224 36.9776C12.0224 36.8953 12.2386 37.027 12.2053 36.8459C12.2884 36.8459 12.2884 37.0599 12.4214 36.9282C12.5046 36.9282 12.3383 37.027 12.3716 37.1093ZM12.1222 36.6812H12.0723V36.5989H12.1554C12.1554 36.6318 12.1222 36.6318 12.1222 36.6812ZM12.8537 36.9776C12.7207 37.027 12.6376 37.0599 12.5877 37.1587C12.6708 37.2081 12.7207 37.1093 12.8038 37.1093C12.8204 37.0599 12.8204 37.027 12.8537 36.9776ZM12.7207 35.8085H12.8537C12.8537 35.8908 12.8038 35.9402 12.7207 35.9402V35.8085ZM12.9036 36.286C12.9867 36.286 13.0366 36.3354 13.0865 36.3354C13.0033 36.4671 12.9534 36.5989 12.8204 36.5989C12.7706 36.4178 12.9534 36.4507 12.9036 36.286ZM12.8204 31.692H12.9036C12.9036 31.7414 12.8537 31.7414 12.8537 31.7743H12.8038V31.692H12.8204ZM14.5162 32.647C14.4663 32.647 14.4663 32.5976 14.3832 32.5976C14.4331 32.5482 14.4663 32.5482 14.4663 32.4659C14.5162 32.5153 14.5162 32.5647 14.5162 32.647ZM14.7323 23.0802C14.5993 23.1296 14.5162 23.1625 14.6492 23.2943C14.6991 23.2613 14.6991 23.1296 14.7323 23.0802ZM15.1313 31.1815C14.9983 31.4779 14.9485 31.5273 14.9485 31.7908C14.8155 31.7908 14.8653 31.659 14.7323 31.659C14.5993 31.7414 14.5495 31.8731 14.5993 32.0542C14.6825 32.0048 14.6825 31.7908 14.7323 31.7578C14.7323 31.8896 14.8155 31.939 14.8653 32.0213C14.8155 32.0213 14.6492 31.939 14.6825 32.0707C14.6825 32.153 14.8653 32.0707 14.8653 32.153C14.9651 31.8237 15.3475 31.3956 15.1313 31.1815ZM14.7822 23.0802C14.8321 23.1296 14.7323 23.2613 14.9152 23.1625C14.9983 23.1131 15.0981 23.0308 15.2643 23.0308C15.3142 22.9814 15.2643 22.8167 15.3142 22.8497C15.3641 22.8497 15.3973 22.8497 15.3973 22.8003C15.2643 22.7509 15.1812 22.8003 15.0482 22.8003C15.0482 22.9485 14.9152 23.0308 14.7822 23.0802ZM15.0815 30.9181C15.1313 30.9181 15.1646 30.6546 15.1313 30.6546C15.0815 30.704 14.9152 30.9181 15.0815 30.9181ZM15.1812 32.647H15.0482C15.0482 32.6964 14.9983 32.8281 15.0482 32.8281C15.0482 32.6964 15.2145 32.7787 15.1812 32.647ZM15.6135 30.1771C15.4805 30.1277 15.5636 30.3582 15.4306 30.3088C15.4306 30.2265 15.5636 30.1277 15.4306 30.1277C15.3807 30.21 15.2976 30.0783 15.2477 30.0783C15.2477 30.2924 15.0648 30.2924 15.1147 30.4735C15.2976 30.5558 15.2976 30.3911 15.414 30.4241C15.4638 30.6052 15.281 30.5064 15.281 30.6381C15.3641 30.6381 15.414 30.6381 15.414 30.6875C15.4805 30.4899 15.6135 30.4405 15.6135 30.1771ZM15.4306 22.8167C15.5636 22.8661 15.6966 22.7344 15.5636 22.685C15.5636 22.7344 15.3973 22.685 15.4306 22.8167ZM16.0125 29.2715C15.7465 29.3538 15.7963 29.749 15.4805 29.7984C15.5303 29.8807 15.4306 30.0124 15.5636 30.0124C15.7963 29.8313 15.8296 29.4855 16.0125 29.2715ZM15.7963 29.3209C15.7465 29.2715 15.7465 29.1891 15.6135 29.1891C15.5636 29.2385 15.5303 29.4526 15.6135 29.4855C15.5636 29.3538 15.7963 29.4526 15.7963 29.3209ZM15.6633 22.7838H15.7465V22.7344H15.6633V22.7838ZM15.9626 28.5305C15.9127 28.5305 15.9127 28.5799 15.8795 28.5799C15.9127 28.5799 15.9127 28.5799 15.9626 28.5305ZM15.9626 22.6027C15.9626 22.5203 16.0457 22.5533 16.0457 22.4709C15.9626 22.4709 15.8795 22.6027 15.9626 22.6027ZM16.0457 28.2835H16.1787C16.1288 28.2835 16.1288 28.3329 16.1288 28.3329H16.0457V28.2835ZM16.3117 27.8883C16.3117 27.9706 16.3117 28.0694 16.1787 28.0694C16.2286 27.9377 16.1288 27.9377 16.2286 27.8554C16.2618 27.8389 16.2618 27.8883 16.3117 27.8883ZM16.3117 29.2715C16.3117 29.3209 16.3117 29.3538 16.2618 29.4032C16.3616 29.4855 16.3948 29.2715 16.3117 29.2715ZM16.4447 27.1967V27.1144C16.5777 27.065 16.5278 27.2791 16.4447 27.1967ZM16.7107 26.8839C16.4447 26.8839 16.4946 26.7521 16.4946 26.5875C16.5445 26.6698 16.6276 26.6369 16.6775 26.6369C16.4946 26.7686 16.6608 26.8015 16.7107 26.8839ZM16.744 26.4228C16.744 26.4722 16.6608 26.4722 16.6608 26.5051C16.5278 26.5545 16.611 26.3734 16.478 26.4228C16.5611 26.2417 16.478 26.1264 16.6608 25.9947C16.877 25.9782 16.5278 26.4228 16.744 26.4228ZM16.4946 26.5875V26.5381C16.5278 26.4557 16.5278 26.5381 16.4946 26.5875ZM16.9601 25.5007V25.6324C16.7938 25.6324 16.8437 25.4678 16.9601 25.5007ZM17.0598 24.9409C17.1097 24.9409 17.1097 24.9903 17.1929 24.9903C17.01 25.0397 17.143 25.3855 16.9268 25.3361C16.9601 25.2043 17.143 25.122 17.0598 24.9409ZM17.01 23.2943C17.1928 23.3436 17.2261 23.2119 17.409 23.2449C17.409 23.1955 17.542 23.0637 17.4589 23.0308C17.3591 23.1625 17.143 23.2119 17.01 23.2943ZM17.1929 23.1296C17.3259 23.0802 17.409 23.0473 17.4589 22.9485C17.276 22.9155 17.2261 23.0308 17.1929 23.1296ZM17.409 5.16506V5.11566H17.4921C17.4422 5.11566 17.4422 5.16506 17.409 5.16506ZM17.542 25.8465H17.4589V25.8959H17.542V25.8465ZM17.542 25.9453H17.4589V26.0276H17.5087C17.4921 25.9782 17.4921 25.9782 17.542 25.9453ZM17.6251 24.4633H17.542V24.5127H17.5919C17.5752 24.5127 17.5752 24.4633 17.6251 24.4633ZM17.6251 25.2537V25.3855H17.7581C17.7914 25.2867 17.675 25.2537 17.6251 25.2537ZM17.7914 24.8585C17.7914 24.8585 17.7415 24.9079 17.7082 24.9079C17.6584 24.9903 17.7082 25.0397 17.7581 25.0891C17.7082 25.0891 17.675 25.0891 17.675 25.1714C17.7914 25.1549 17.8911 24.9079 17.7914 24.8585ZM17.9244 5.03333C17.9244 4.951 18.0574 4.98393 18.0574 4.9016C17.4921 4.9016 18.1072 4.76987 18.2402 4.8522C18.1072 4.8522 18.1571 4.9016 18.2402 4.9016L18.1571 4.98393C18.1072 4.98393 18.0241 5.03333 17.9244 5.03333ZM18.2735 23.1625C18.0906 23.5083 17.8412 23.9364 17.9742 24.2493C18.0574 24.1176 18.1072 23.9529 18.2402 23.9035C18.1405 23.6894 18.4065 23.393 18.2735 23.1625ZM18.2402 4.8522C18.2901 4.8522 18.3732 4.8028 18.4564 4.8522C18.3732 4.9016 18.2735 4.9016 18.2402 4.9016V4.8522ZM18.4065 20.8737C18.4564 21.0055 18.4896 21.0055 18.4065 21.0878C18.3234 21.0549 18.3732 21.0055 18.4065 20.8737ZM18.4564 20.8243V20.6103H18.5894C18.5062 20.6597 18.5894 20.8737 18.4564 20.8243ZM18.8055 4.63814C19.1546 4.76987 19.7697 4.37468 20.1189 4.45701C19.803 4.58874 19.1546 4.951 18.8055 4.63814ZM21.7315 13.2993C21.8645 13.3816 21.8645 13.217 21.7315 13.2499C20.7672 15.8845 19.5869 19.1448 18.9717 21.5653C19.537 20.8737 19.5037 19.787 20.0191 19.1777C19.803 18.7825 20.2851 18.4038 20.4514 17.8769C20.5345 17.5805 20.3682 17.2677 20.7174 17.1359C21.0665 15.9174 21.3658 14.5837 21.8479 13.4146C21.8645 13.3487 21.6816 13.431 21.7315 13.2993ZM19.1546 18.2721V18.3544C19.0715 18.3709 19.1047 18.3215 19.1546 18.2721ZM19.2876 17.9757C19.3707 17.9757 19.2377 18.1568 19.2045 18.1074C19.1546 18.0251 19.2876 18.1074 19.2876 17.9757ZM20.2851 4.47348C20.335 4.29235 20.6342 4.34175 20.8171 4.29235C20.6841 4.50641 20.468 4.34175 20.2851 4.47348ZM20.8504 4.34175C20.8005 4.12769 21.0665 4.25942 21.1496 4.16062C21.1663 4.34175 20.9834 4.34175 20.8504 4.34175ZM20.9834 12.2949C20.9335 12.2455 20.9834 12.0314 21.1164 12.0808C21.1164 12.2126 20.9834 12.1302 20.9834 12.2949ZM21.2494 4.24295C21.2993 4.16062 21.4323 4.19356 21.5486 4.19356C21.5154 4.24296 21.3824 4.24295 21.2494 4.24295ZM21.5985 10.6977L21.7315 10.8294C21.7315 10.78 21.7315 10.78 21.7814 10.78C21.7814 10.6977 21.9144 10.4836 21.7315 10.5165C21.7315 10.6153 21.6484 10.6153 21.5985 10.6977ZM21.9476 13.0359H21.8645V13.1182C21.8645 13.1182 21.9144 13.1676 21.9476 13.1676V13.0359ZM24.5744 4.24295H24.4913V4.32529H24.5411C24.5744 4.29235 24.5744 4.29235 24.5744 4.24295ZM25.4056 4.9016C25.4888 4.81927 25.8047 4.8522 25.7548 4.81927H25.4555C25.4555 4.8522 25.4555 4.8522 25.4056 4.9016ZM26.054 4.76987H25.8712V4.81927H26.054V4.76987ZM26.054 4.12769C26.054 4.30882 26.3533 4.07829 26.5362 4.17709C26.5029 3.99596 26.1039 4.21002 26.054 4.12769ZM26.586 4.72047H26.5029V4.8028H26.586V4.72047ZM26.8853 4.07829C26.8022 4.12769 26.6692 4.0289 26.6193 4.12769C26.719 4.07829 26.852 4.16062 26.8853 4.07829ZM29.5952 4.58874C28.5977 4.58874 27.7997 4.53935 26.9684 4.76987C27.9327 4.63814 28.8637 4.76987 29.5952 4.58874ZM27.3342 4.07829H27.4173V3.99596H27.3342V4.07829ZM27.7664 4.0289C27.8163 3.9795 27.9493 4.07829 27.9493 3.9795C27.8994 3.99596 27.7664 3.94657 27.7664 4.0289ZM28.1987 4.0289C28.2818 4.0289 28.3317 4.0289 28.3317 3.9795C28.2818 3.99596 28.1987 3.94657 28.1987 4.0289ZM28.4148 3.99596C28.4647 4.04536 28.4979 4.04536 28.5977 4.04536V3.91363C28.5145 3.89717 28.4647 3.99596 28.4148 3.99596ZM29.4622 3.89717C29.4123 4.0289 29.5453 4.0289 29.6451 4.0289C29.6949 3.89717 29.5952 3.89717 29.4622 3.89717ZM29.8113 4.58874C29.7614 4.58874 29.7282 4.58874 29.6783 4.63814C29.7614 4.63814 29.7282 4.72047 29.8113 4.72047V4.58874ZM29.7781 4.0289H29.9111C29.9609 4.0289 29.9609 3.9795 29.9609 3.9795C29.8778 3.9795 29.8279 3.9301 29.7781 3.9301V4.0289V4.0289ZM29.9942 4.58874H29.9111V4.63814H29.9942V4.58874ZM29.9443 4.0289C30.0274 4.0289 30.1272 4.02889 30.2103 4.07829V3.99596H29.9942L29.9443 4.0289ZM30.6924 4.58874C30.4763 4.63814 30.2934 4.63814 30.1604 4.63814C30.2934 4.76987 30.6093 4.76987 30.6924 4.58874ZM31.0416 4.68754C30.8587 4.68754 30.8587 4.68754 30.7423 4.63814C30.6426 4.81927 31.0416 4.76987 31.0416 4.68754ZM32.3051 4.76987C32.0889 4.81927 31.3907 4.63814 31.1746 4.72047C31.5736 4.8522 32.0557 4.8522 32.4879 4.8522C32.4048 4.81927 32.4048 4.76987 32.3051 4.76987ZM31.2244 4.16062H31.2743V4.07829H31.2244V4.16062ZM31.4738 4.16062C31.5237 4.24295 31.8728 4.37468 31.9559 4.16062C31.7398 4.21002 31.6068 4.02889 31.4738 4.16062ZM32.1721 4.29235H32.3051V4.21002H32.1721V4.29235ZM33.4023 4.58874C33.2194 4.32529 32.6542 4.37468 32.3549 4.19356V4.37468C32.7539 4.37468 33.1031 4.50641 33.4023 4.58874ZM33.5852 4.50641H33.4855V4.58874H33.5686V4.50641H33.5852ZM33.6683 4.58874C33.7182 4.72047 34.0673 4.67107 34.1505 4.72047C34.0507 4.63814 33.8346 4.63814 33.6683 4.58874Z" fill="white"/>
<path d="M26.453 23.9529C26.453 23.3437 26.7523 22.8662 26.8022 22.3557C26.8853 22.3063 26.8853 22.4051 26.9352 22.4051C26.985 22.3557 27.0183 22.3228 27.0183 22.224C27.0183 22.1416 26.8354 22.2734 26.8354 22.1746C26.9684 21.7794 26.8853 21.2689 27.1845 21.0549C27.1014 20.8408 27.2677 20.6597 27.2344 20.4456C27.3674 20.495 27.3674 20.3962 27.4505 20.3962C27.1845 20.0011 27.6334 19.3589 27.7165 18.8814C27.8495 18.8814 27.8495 18.7002 27.9825 18.6673C27.9825 18.5356 27.8994 18.6179 27.7997 18.6179C27.7997 18.5356 27.8495 18.4862 27.8495 18.4038C27.9327 18.3544 27.9327 18.4532 27.9825 18.4532C28.0324 18.4532 27.9825 18.4038 28.0324 18.3709C28.0324 18.3215 27.9493 18.4203 27.9493 18.3215C27.9992 18.1898 28.0324 18.2721 28.1322 18.1404C27.783 17.9263 28.3483 17.4488 28.3982 17.1524C28.3151 17.2347 28.3483 17.3665 28.1821 17.3665C28.3649 17.103 28.3151 16.7243 28.5811 16.5432L28.6309 16.4938C28.5811 16.4938 28.5478 16.4938 28.5478 16.5432C28.4148 16.4608 28.6309 16.3291 28.6309 16.1974C28.9302 16.2797 28.8969 15.7199 29.1131 15.5881C29.0632 15.5387 29.0299 15.5058 28.9302 15.5387C28.8803 15.4564 29.1131 15.5387 29.0632 15.4564C29.1131 15.3247 28.9801 15.407 28.8803 15.407C28.8803 15.2753 29.0133 15.2753 28.9634 15.1929C29.0466 15.1435 29.0133 15.2423 29.0964 15.2423C29.1463 15.2423 29.0964 15.16 29.0964 15.1106C29.1463 15.0612 29.1463 15.1106 29.1796 15.16C29.1796 15.16 29.1796 15.1106 29.2294 15.0777C29.0964 14.8966 29.1463 14.6825 29.3624 14.5508C29.3126 14.5014 29.2793 14.5014 29.2294 14.5014C29.2294 14.419 29.3126 14.419 29.3126 14.3202C29.3624 14.3202 29.3624 14.4026 29.3957 14.4026C29.4456 14.2708 29.5786 14.1885 29.5287 14.0074C29.5786 14.0074 29.5786 14.0568 29.6118 14.0568V13.9745C29.6949 13.8921 29.6949 13.711 29.7448 13.5793H29.6118C29.6617 13.5793 29.6617 13.5299 29.6617 13.4969C29.7116 13.4969 29.7116 13.5463 29.7947 13.5463C29.8778 13.464 29.7448 13.4146 29.7116 13.3323C29.7947 13.3323 29.8446 13.3817 29.8446 13.2829C29.6284 13.2335 30.0274 12.8054 29.9776 12.5913C30.1106 12.509 30.0274 12.723 30.1106 12.6736C30.1106 12.5913 30.1604 12.4596 30.2436 12.4596C30.2436 12.3772 30.0607 12.4596 30.0607 12.5419C30.0108 12.4596 30.1106 12.2455 30.2436 12.2455C30.1937 12.0644 30.2436 11.9491 30.3766 11.8997C30.3766 11.768 30.3766 11.6857 30.4264 11.6363C30.4763 11.6363 30.4264 11.8174 30.5096 11.8503C30.6924 11.768 30.5594 11.6363 30.5594 11.5045C30.6093 11.5045 30.6426 11.5045 30.6924 11.4551C30.4763 11.2411 30.8254 10.8953 30.8753 10.6318C30.9584 10.6318 31.0083 10.5824 31.0582 10.6318C31.0083 9.98965 31.4904 9.54507 31.5902 8.90289C31.6733 8.90289 31.6733 8.95229 31.6733 8.98522C31.7564 8.93582 31.6733 8.85349 31.6733 8.77116C33.2527 6.03778 34.5993 3.13975 36.8271 0.933286C36.8271 0.883888 36.8271 0.850956 36.7772 0.850956C36.8604 0.669829 37.2594 0.768626 37.1762 0.505168C37.6584 0.505168 37.9576 -0.235807 38.4896 0.0770489C38.9219 -0.0546801 39.138 0.258176 39.404 0.208778C39.7531 0.389905 40.0191 0.636897 40.3683 0.735694C40.8005 1.26261 40.9834 2.08591 40.9335 2.72809C41.0166 3.28794 40.7174 3.71606 40.5345 4.16065C40.8338 5.32974 40.2685 6.07071 40.0025 6.84462C39.8695 6.84462 39.9194 6.97635 39.8196 6.92695C39.9028 7.4868 39.3874 7.56913 39.5536 8.17838C39.2045 8.91935 39.0715 9.61093 38.8554 10.3848C38.5894 11.4716 37.675 12.2949 37.3259 13.3323C36.7107 13.8921 36.7107 14.8966 36.1953 15.4893C36.2452 15.7034 36.1455 15.8351 36.0125 15.9175C35.6633 17.1359 35.015 18.0745 34.35 19.0295C33.951 20.1163 33.3525 21.0219 32.5545 21.7629C32.5545 22.0593 32.2552 22.191 32.0224 22.3228C31.4572 23.3601 30.4929 24.134 29.7116 25.0561C28.9302 25.616 28.2319 26.4393 28.4481 27.6907C28.5811 27.6907 28.4979 27.559 28.5811 27.559C28.5811 27.6413 28.3982 27.8554 28.4481 28.0859C29.0964 27.2132 29.8113 26.357 30.4597 25.4513C32.7706 23.3766 34.2668 20.6432 37.2427 18.9966C37.1929 18.9966 37.1596 18.9966 37.1596 18.9143C37.6417 18.7826 38.473 18.6179 38.34 19.2107C38.5561 19.2107 38.606 19.1283 38.7722 19.1613C38.7722 19.2436 38.8554 19.2436 38.8554 19.3753C39.4206 19.3753 39.6035 19.9023 39.8529 20.3304C39.9027 20.4127 39.936 20.281 39.9859 20.3304C40.335 20.9396 40.1688 21.7135 40.069 22.191C39.67 24.5292 36.8271 29.9466 37.6251 30.5064C38.6226 30.7205 39.803 29.1233 41.8645 26.7851C41.8146 26.7028 41.9144 26.7028 41.8645 26.604C42.1638 26.3405 42.4796 26.1264 42.6126 25.7313C42.6625 25.7313 42.6958 25.7807 42.6958 25.8136C42.9618 25.2537 43.527 24.908 43.793 24.3481C44.059 24.3481 44.059 24.134 44.325 24.134C44.325 23.9529 44.192 24.0517 44.192 23.92C44.325 23.8706 44.2752 23.92 44.4082 23.92C44.4082 23.7883 44.2752 23.8706 44.325 23.7883C44.6243 23.7389 44.458 23.5248 44.6243 23.4425C44.7074 23.5742 44.5744 23.7389 44.5744 23.8377C44.7573 23.8871 44.7905 23.5742 44.9734 23.5413C44.9734 23.5907 44.7905 23.7224 44.9235 23.7553L44.7407 23.9694C44.7905 23.9694 44.7905 24.0188 44.7905 24.0188H44.7074C44.1754 24.628 43.6101 25.1385 43.261 25.8301C42.6126 26.3076 41.5154 28.3823 40.9834 28.9422C40.9834 29.0245 41.0333 28.9915 41.0665 29.0245C41.3658 28.761 42.4131 27.1144 42.6791 26.818C42.7623 26.7357 42.729 26.9004 42.8121 26.9004C42.862 26.851 42.862 26.7686 42.8121 26.6863C42.9451 26.818 43.0283 26.604 43.0283 26.5052C43.1613 26.5875 43.2943 26.3734 43.3774 26.2417C43.3774 26.1594 43.3275 26.1594 43.2444 26.1594C43.1945 26.077 43.2943 26.077 43.2444 25.9782C43.4273 25.9289 43.4273 25.9289 43.5436 25.9782C44.1588 25.2373 44.8903 24.6445 45.256 23.7718C45.6883 23.5907 45.6883 23.1296 46.0873 22.9979C45.7382 24.167 44.6908 24.7762 44.1588 25.8136C44.7739 25.3855 45.2062 24.6445 45.6883 24.0846C45.6883 24.134 45.7382 24.134 45.7714 24.134C45.5885 24.3481 45.5885 24.661 45.5885 24.875C45.2394 25.3031 45.1563 25.9124 44.8072 26.3899C44.192 27.0321 42.8786 29.1562 42.3965 29.9466C42.4464 29.996 42.5295 29.9466 42.5794 29.8972C42.4464 30.243 41.9643 30.5064 41.7481 30.8028C41 31.4121 39.3874 32.6635 38.2901 32.7952C38.2402 32.7129 38.074 32.7458 37.941 32.7458C36.8936 32.4494 36.2286 32.6635 35.6633 31.7579C34.1837 30.5064 35.7465 25.4349 36.4447 24.2328C36.5777 23.1131 37.276 22.3722 37.409 21.2031C36.4447 21.8947 35.5303 22.6686 34.9651 23.7059C34.8321 23.5742 34.8321 23.8377 34.6658 23.7883C34.616 23.92 34.749 23.8706 34.749 23.9694C34.0008 24.3975 33.6517 25.0891 33.0366 25.616C32.0723 26.604 31.1579 27.6907 30.4098 28.9092C30.1937 29.0409 30.1937 29.3044 30.0108 29.4361C30.0607 29.5185 30.0607 29.3867 30.1438 29.4361C30.1937 29.5679 30.0108 29.5679 30.0108 29.6502C29.9609 29.6502 30.0108 29.5679 29.9277 29.5679C29.7947 29.6996 29.6284 29.8643 29.6617 30.1277C29.4456 30.2594 29.3957 30.4241 29.2294 30.5558C28.6974 31.5109 27.9992 32.3342 27.783 33.5362C27.65 33.7173 27.8329 33.882 27.8662 34.0631C27.783 34.6724 26.7357 34.5406 26.5195 34.1125C26.2203 34.1619 26.1205 33.8985 25.9875 33.6844C25.9044 33.7338 25.8545 33.635 25.7714 33.6844C25.5885 33.4703 25.5885 33.0422 25.2893 33.0422C25.2893 32.9105 25.2394 32.8611 25.2394 32.7458H25.2893C25.2394 32.6964 25.1563 32.5647 25.2893 32.5647C25.2062 32.5153 25.2062 32.3836 25.1563 32.3012C25.3724 32.3012 25.2062 32.0378 25.1563 32.0048C25.3724 31.5767 25.0732 30.7534 25.3724 30.3582C25.2893 29.2715 25.5553 28.02 25.7215 27.0321C25.6717 26.5546 25.8545 25.8136 25.9377 25.2537C26.0208 25.1714 25.9875 25.3031 26.1205 25.3031C26.1704 25.2208 26.1205 25.122 26.2037 25.0891L26.0707 24.908C26.3699 24.8256 26.3699 24.5128 26.3699 24.2164C26.2868 24.2164 26.4198 24.3975 26.2369 24.3481C26.3699 24.5292 26.187 24.6116 26.187 24.7762C26.1538 24.5128 26.2369 24.1176 26.453 23.9529C26.453 24.0352 26.5029 24.134 26.453 24.134C26.453 24.1834 26.5029 24.1834 26.5029 24.2164C26.5528 24.134 26.5029 23.92 26.6858 23.92C26.6027 23.92 26.6027 23.8377 26.6027 23.7059C26.6027 23.6236 26.6525 23.6236 26.6858 23.5742C26.5528 23.5248 26.5528 23.7059 26.6027 23.7059C26.5362 23.7718 26.5362 23.9035 26.453 23.9529ZM26.054 25.122C26.0042 25.0726 26.0042 25.0397 26.0042 25.0397C26.054 25.0397 26.0873 24.9903 26.0873 24.9903C26.1372 25.0397 26.1372 25.0726 26.1372 25.122H26.054ZM26.2702 25.9782C26.1372 26.0276 26.1372 26.11 26.1372 26.2417C26.2369 26.1923 26.2369 26.077 26.2702 25.9782ZM26.719 23.9035C26.586 24.4304 26.3699 24.8915 26.2868 25.4678C26.5029 25.4184 26.4198 25.1714 26.6359 25.122C26.6359 24.4798 27.0682 23.7389 26.985 23.3107C26.8022 23.2943 26.852 23.7389 26.719 23.9035ZM26.719 26.2417C26.6692 26.2417 26.6692 26.1923 26.586 26.2417C26.6359 26.4228 26.5029 26.5875 26.6359 26.7192C26.6193 26.5381 26.6193 26.3734 26.719 26.2417ZM26.9352 22.5698H26.852C26.8022 22.6521 26.8022 22.7509 26.8022 22.8662C26.8853 22.7838 26.852 22.6521 26.9352 22.5698ZM27.1513 25.0726C27.1513 24.9409 27.0682 24.9903 26.9684 24.9903C27.0183 25.122 26.7523 25.2537 26.9684 25.2537C26.9352 25.122 27.0682 25.122 27.1513 25.0726ZM27.0183 22.5204C27.0682 22.7015 26.9352 22.7838 26.9684 22.9485C27.1513 22.9156 27.2344 22.5204 27.0183 22.5204ZM27.1513 24.3316H27.0682C27.0183 24.4634 27.0682 24.5128 27.0682 24.628C27.1014 24.5622 27.2012 24.5128 27.1513 24.3316ZM27.8994 21.6147C28.0823 21.4336 27.9825 21.0878 28.1987 21.0055C28.2486 20.0504 28.6808 19.54 28.6808 18.585C29.1131 18.1898 29.0299 17.3665 29.4289 16.9384C29.2959 16.642 29.5619 16.5432 29.6118 16.2962C29.2627 16.2138 29.5287 16.7737 29.1796 16.8231C28.7806 18.1733 28.3982 19.4577 28.0491 20.8573C27.916 20.8573 27.8329 20.8573 27.8329 20.989C27.8828 21.0713 27.9659 20.8573 28.0158 20.989C27.9659 21.0713 27.7997 21.0713 27.8329 21.2525C28.0158 21.2525 27.7498 21.5983 27.8828 21.6806L27.6999 21.7629C27.65 21.8453 27.7498 21.8123 27.783 21.8947C27.65 21.8947 27.783 22.1581 27.6002 22.1581C27.6002 22.4545 27.65 22.8991 27.3342 22.8991C27.3342 23.1131 27.3342 23.1955 27.4672 23.2943C27.3342 23.2943 27.4173 23.4754 27.3342 23.4754C27.2843 23.4754 27.3342 23.3931 27.251 23.426C27.3009 23.5083 27.118 23.5083 27.1679 23.6401C27.384 23.6895 27.1679 23.7718 27.251 23.9859C27.384 23.9365 27.3009 23.7718 27.4672 23.7224C27.3342 23.3272 27.7332 23.1955 27.6002 22.7344C27.783 22.6027 27.8163 22.3392 27.8163 21.9934C27.9825 21.9111 27.9327 21.7465 27.8994 21.6147ZM27.2344 24.0846H27.1513V24.2658C27.2843 24.2493 27.2344 24.167 27.2344 24.0846ZM27.2843 23.1296V23.2119H27.3342C27.3342 23.1625 27.3342 23.1296 27.2843 23.1296ZM27.4505 21.2195C27.5835 20.8738 27.6667 20.4786 27.7498 20.1328C27.5503 20.3468 27.4505 20.9232 27.4505 21.2195ZM27.7165 20.0998H27.7997C27.7997 20.0504 27.7997 19.9681 27.7498 19.9681C27.7997 20.0504 27.6334 20.0011 27.7165 20.0998ZM27.7997 19.8858C27.8495 19.8364 27.8828 19.8035 27.8828 19.7047C27.7997 19.7047 27.7997 19.9187 27.7997 19.8858ZM27.8994 19.3589C27.8994 19.4083 27.8994 19.54 27.9825 19.4906C27.9825 19.4083 27.9327 19.3589 27.8994 19.3589ZM27.9327 19.2765C28.2319 19.0954 28.0657 18.5356 28.3649 18.3215C28.3151 17.9263 28.5811 17.7123 28.5811 17.3335C29.4954 15.5223 29.9776 13.3981 31.0249 11.7021C31.3242 10.6154 31.7731 9.6274 32.2885 8.72176C32.2885 8.63943 32.2885 8.54063 32.2386 8.5077C32.8537 7.73379 33.153 6.77876 33.7681 6.03778C33.685 5.85666 33.818 6.03778 33.7681 5.82372C34.2502 5.52733 34.5495 4.91809 34.6492 4.48997C34.8321 4.40764 34.8653 4.35824 34.7822 4.22651C34.8321 4.17711 34.8653 4.22651 34.9152 4.22651C34.8653 3.93012 35.2145 3.79839 35.1313 3.58433C34.0008 5.28034 32.9535 7.00928 31.9892 8.77116C31.3408 10.4178 30.5428 11.9821 29.8944 13.6122C29.7614 13.6945 29.7116 13.8263 29.7614 14.0403C29.0299 15.7199 28.4148 17.5476 27.9327 19.2765ZM30.1604 27.3614C30.0773 27.065 30.3766 27.0156 30.4597 26.8345C30.3766 26.8345 30.3267 27.0156 30.2436 26.9168C30.3267 26.8674 30.2934 26.7357 30.3766 26.7357C30.4597 26.7357 30.4264 26.818 30.5096 26.7851C30.9418 26.0935 31.5071 25.5337 31.9892 24.875C31.9393 24.875 31.9061 25.0067 31.8562 24.9244C31.9892 24.875 31.9892 24.7433 32.1222 24.7104C32.3383 24.8421 32.6043 24.3152 32.5545 24.1834C32.6875 24.1011 32.6376 24.2658 32.7373 24.2328C33.0033 23.9694 33.2195 23.6236 33.5686 23.4095C33.5686 23.3601 33.5686 23.3272 33.5187 23.3272C33.6018 23.3766 33.6517 23.2449 33.7348 23.2449C33.7847 23.0308 34.0008 22.9485 34.1671 22.8168L34.35 22.5204L34.3001 22.471L34.35 22.4216H34.3998V22.5039C34.7988 22.0264 35.3641 21.6312 35.4971 21.1537C35.547 21.0219 35.6301 20.9726 35.68 20.8573C35.8629 20.9396 35.813 20.775 36.0291 20.775C36.0291 20.7256 35.9792 20.6432 36.0291 20.6432C36.4281 20.6432 36.5112 20.1657 36.9102 20.1163C36.9601 20.034 36.9102 19.9352 36.9601 19.9023C37.2594 19.8199 37.2261 19.7705 37.4921 19.6059C37.4921 19.5565 37.4921 19.4247 37.4422 19.4247C37.4422 19.5071 37.2261 19.5071 37.2261 19.4741C37.409 19.4247 37.2261 19.4247 37.276 19.3918C37.1929 19.4412 37.0599 19.3918 37.0931 19.4741C37.143 19.4741 37.1762 19.4741 37.2261 19.5235L37.143 19.6059C37.143 19.5565 37.0931 19.5565 37.0931 19.4741C37.01 19.5565 36.8271 19.6059 36.7939 19.6882C36.877 19.6882 37.0599 19.6059 37.0931 19.6388L36.6609 19.9023C36.611 19.7705 36.8437 19.8199 36.7939 19.6882C36.611 19.7376 36.5777 19.7705 36.5279 19.8693C36.5777 19.8199 36.5777 19.9517 36.611 19.9517C36.1288 20.248 35.7298 20.6926 35.2976 20.9067C35.3475 20.9067 35.3475 20.9561 35.3475 20.989C35.2643 20.989 35.1646 21.1207 35.0815 21.0384C35.0316 21.2195 35.0316 21.2525 34.8155 21.3019C34.8155 21.3842 34.8653 21.4336 34.8155 21.4336C34.6825 21.3513 34.6825 21.5653 34.5495 21.5159C34.4996 21.73 34.3333 21.9111 34.1505 22.0428C34.2003 22.224 34.0673 22.3392 33.8013 22.3392C33.8013 22.471 33.6185 22.5204 33.8013 22.6027C33.6185 22.7344 33.5021 22.9979 33.2693 23.0308C33.3525 23.0802 33.2195 23.1625 33.2693 23.2119C33.1862 23.3437 33.0532 23.2119 33.0532 23.2119C33.0532 23.2943 33.1031 23.2943 33.1031 23.3437C33.02 23.3437 33.02 23.426 32.9701 23.426C32.9202 23.3437 33.0532 23.3766 33.02 23.2943C32.9368 23.426 32.7207 23.4754 32.754 23.6895C32.6708 23.6401 32.621 23.7718 32.5378 23.7718C32.5877 23.9858 32.355 23.9035 32.488 24.0682C32.3051 24.0682 32.355 24.2493 32.222 24.2822C32.222 24.2328 32.222 24.1505 32.1721 24.1505C32.1721 24.2328 32.1721 24.2328 32.089 24.2328C32.1388 24.4469 32.0391 24.5786 31.9061 24.4963C31.9061 24.5457 31.9061 24.628 31.8562 24.628C31.7731 24.7104 31.8063 24.5457 31.7232 24.5786C31.7232 24.7598 31.3242 24.8421 31.5403 24.9738C31.4572 25.0232 31.4073 25.0232 31.3242 25.0232C31.3242 25.1549 31.4572 25.0232 31.4572 25.1055C31.4073 25.1055 31.4073 25.1549 31.4073 25.1879C31.2743 25.1055 31.2743 25.2373 31.1413 25.2702C31.2244 25.2702 31.2743 25.4019 31.2244 25.4513C31.1746 25.3196 31.0083 25.5337 30.9584 25.5831V25.5007C30.8254 25.5501 30.7423 25.6325 30.8254 25.7642C30.6426 25.8136 30.6924 25.9782 30.5594 25.8465C30.6093 25.9782 30.4763 26.2417 30.3433 26.11C30.3932 26.1923 30.3433 26.2417 30.2602 26.2417C30.3101 26.3734 30.2602 26.4228 30.1272 26.3734C29.9111 27.0156 29.3791 27.4602 28.9967 27.9377C29.0466 27.9377 29.0798 27.8883 29.0798 27.9871L28.8969 28.0365C28.8471 28.1188 28.9468 28.1682 28.8471 28.2506C28.7141 28.1682 28.3151 28.5964 28.3649 28.7775C28.4481 28.6952 28.4481 28.5964 28.4979 28.514C28.5811 28.514 28.6808 28.4317 28.6808 28.4646C28.4979 28.8104 28.1987 29.0739 28.1155 29.502C28.2984 29.3209 28.3816 29.1562 28.5478 29.0739C28.4979 28.8598 28.7307 28.8104 28.8471 28.7775C28.9302 28.4317 29.2461 28.3 29.4622 28.0859C29.4123 27.9542 29.5121 27.9048 29.4123 27.8719C29.5453 27.8225 29.6284 27.7895 29.7116 27.6907C29.7614 27.6084 29.5786 27.6084 29.6617 27.559C29.9443 27.5425 29.9443 27.3614 30.1604 27.3614ZM28.4647 28.3164C28.4647 28.3658 28.4647 28.4482 28.5146 28.4482C28.5478 28.3988 28.5146 28.3164 28.4647 28.3164ZM28.5977 28.3164C28.5977 28.267 28.6808 28.267 28.6808 28.1847C28.5977 28.1847 28.5478 28.3164 28.5977 28.3164ZM28.5977 16.115C28.6476 16.0656 28.6808 16.0327 28.7806 16.0327C28.7307 16.0656 28.6808 16.115 28.5977 16.115ZM29.3791 13.9086C29.5121 13.8592 29.4622 14.0403 29.4289 14.0897H29.5121C29.3791 14.205 29.3791 13.9909 29.3791 13.9086ZM29.5952 13.6451C29.5453 13.6945 29.5952 13.7769 29.5121 13.7769C29.4622 13.6945 29.5619 13.6451 29.5952 13.6451ZM29.9443 14.8142C29.8612 14.9953 30.0274 15.3411 29.7282 15.3411C29.7282 15.6375 29.5121 15.8187 29.5453 16.1644C29.6783 16.1644 29.7282 16.0327 29.7614 15.9504H29.6783C29.7614 15.7693 29.8944 15.6869 29.8612 15.4235C30.0773 15.3741 30.0773 14.946 29.9443 14.8142ZM29.5952 13.9909H29.5453H29.5952ZM35.6301 12.7724C35.6301 12.6901 35.7132 12.6901 35.7132 12.6407C35.7631 12.5584 35.6633 12.8218 35.8462 12.6901V12.7395C35.8961 12.6572 35.9293 12.5254 36.0624 12.4431C36.1455 11.3563 37.2926 10.6318 37.3259 9.36394C36.9767 9.6274 37.0599 10.1049 36.6775 10.4013C36.9767 9.79206 37.1097 8.93582 37.3757 8.4089C37.3259 8.54063 37.4589 8.4089 37.4589 8.49123L37.3757 8.57356C37.5087 8.62296 37.6417 8.39244 37.5586 8.31011C37.5586 8.39244 37.4755 8.26071 37.4755 8.17838C37.5254 8.17838 37.5586 8.17838 37.6085 8.22778C37.7914 8.01372 37.7914 7.66793 37.9576 7.4868C37.8745 7.70086 38.0407 7.40447 38.1737 7.40447C38.2236 7.32214 38.1737 7.19041 38.1239 7.10808C38.0407 7.15748 37.9077 7.19041 37.9077 7.05868C37.7747 7.00928 37.9077 7.19041 37.7747 7.19041C37.7747 7.00928 37.7747 6.76229 37.9576 6.79522C37.8246 6.84462 37.8745 6.97635 37.8246 7.00928C38.0075 6.92695 37.9576 7.00928 38.1737 7.00928C38.1737 7.05868 38.1737 7.09161 38.2236 7.14101C38.3566 7.05868 38.4065 6.84462 38.4065 6.6635C38.3566 6.6141 38.3234 6.66349 38.3234 6.6141C38.1904 6.6141 38.2735 6.74583 38.1405 6.74583C38.1405 6.6141 38.2735 6.6141 38.2735 6.48237C38.3234 6.53177 38.3566 6.48237 38.4564 6.48237C38.3732 6.18598 38.6392 6.00485 38.5894 5.84019C38.5062 5.88959 38.5395 6.02132 38.4564 6.02132C38.4564 5.97192 38.5395 5.93899 38.5062 5.84019C38.3732 5.88959 38.4231 5.92252 38.2901 5.88959C38.207 6.15305 38.1072 6.44944 37.9909 6.6635C37.9909 6.48237 38.1239 6.40004 38.074 6.18598C38.34 6.13658 38.1239 5.70846 38.4231 5.79079C38.4231 5.60966 38.2402 5.65906 38.3732 5.52733C38.3732 5.57673 38.3732 5.65906 38.4564 5.60966C38.4065 5.52733 38.4564 5.52733 38.5395 5.52733C38.5395 5.3956 38.4065 5.47793 38.4564 5.34621C38.6725 5.34621 38.5062 5.60966 38.5062 5.69199C38.5062 5.69199 38.6392 5.77432 38.6392 5.69199C38.5062 5.74139 38.5894 5.60966 38.6392 5.60966C38.6392 5.65906 38.6392 5.69199 38.6891 5.65906C38.739 5.57673 38.7722 5.3956 38.6891 5.445C38.739 5.445 38.6891 5.36267 38.739 5.36267C38.739 5.41207 38.739 5.445 38.8221 5.41207C38.8221 5.28034 38.739 5.14861 38.8221 4.98395C38.872 4.98395 38.872 4.90162 38.9551 4.90162C38.9052 4.81929 38.9551 4.76989 38.9551 4.68756C38.606 4.73696 38.872 4.76989 38.739 4.90162C38.7889 4.90162 38.7889 4.95102 38.7889 4.98395H38.8387C38.7057 5.06628 38.7556 5.11568 38.5727 5.16508C38.9219 4.39117 38.9717 3.30441 39.1879 2.39877C39.1879 2.5305 39.271 2.4811 39.3209 2.5305C39.271 2.44817 39.271 2.34937 39.3209 2.26704C39.271 2.26704 39.2377 2.26704 39.2377 2.21764C39.2377 2.08592 39.3209 2.00358 39.2876 1.87186C38.8554 2.05298 38.5395 2.29997 38.5062 2.77749C38.2402 2.99155 37.941 3.33734 37.7581 3.6502C37.808 3.6008 37.8412 3.6008 37.8911 3.6502C37.4921 4.07831 37.3591 4.73696 36.8936 5.03335C36.5445 5.90605 35.8961 6.59763 35.6301 7.37154V7.42094V7.37154C35.547 7.42094 35.4971 7.42094 35.4971 7.50327V7.55267C35.4472 7.60206 35.4472 7.60206 35.414 7.60206C35.4971 7.78319 35.3641 7.94785 35.1978 7.99725C35.1978 8.07958 35.2477 8.07958 35.281 8.07958C33.8346 9.98965 33.2195 12.5419 32.1388 14.699C32.1388 14.7813 32.222 14.7813 32.222 14.8801C31.9227 15.0941 31.9559 15.3576 31.8229 15.7034C31.3408 16.6584 31.0748 17.7781 30.6426 18.7826C30.4597 19.8693 30.0773 20.775 29.8612 21.8123C30.2934 21.73 30.2934 21.1207 30.7756 20.9396C30.8254 20.8902 30.8254 20.8079 30.7756 20.7256C30.9917 20.5444 31.1247 20.3304 31.3076 20.1657C31.3574 20.2974 31.2244 20.3468 31.2577 20.5115C30.7756 20.6926 30.7756 21.2525 30.3433 21.4171C30.2934 21.8453 29.6949 21.8947 29.7781 22.4051C30.3101 21.8782 30.7756 21.236 31.2244 20.6762C31.4073 20.4621 31.5736 20.3304 31.7564 20.1492C32.1555 19.6223 32.6708 18.5026 33.1031 18.1074C33.1031 17.6793 33.5852 17.4982 33.5021 17.1195C33.6351 17.1689 33.6351 17.0701 33.7182 17.0701C33.9011 16.5432 34.2003 16.115 34.4165 15.6375C34.2835 15.1106 34.9485 14.8636 34.7656 14.5178C34.8155 14.4684 34.8155 14.5178 34.8487 14.5178C34.7988 14.3367 34.8986 14.3038 34.9318 14.2544C34.9817 14.3367 35.148 14.205 35.0648 14.172C35.0648 14.2214 34.9817 14.2544 34.9817 14.2214C35.0316 14.1391 35.0648 14.0403 35.0648 13.9251C35.0648 13.9745 35.1147 13.9745 35.148 13.9745C35.0648 13.7933 35.2311 13.8427 35.281 13.7933C35.2311 13.8427 35.1978 13.6616 35.281 13.6616C35.2311 13.7933 35.3641 13.711 35.414 13.6616L35.2311 13.5793C35.281 13.5793 35.3142 13.4969 35.3641 13.4475V13.5793H35.4472C35.4472 13.5299 35.4472 13.4969 35.3973 13.4475H35.3475C35.3973 13.3652 35.4306 13.1841 35.5303 13.1841C35.4805 13.1017 35.5802 13.0523 35.6135 12.97C35.6135 13.0523 35.7465 13.0194 35.8296 12.97C35.8296 12.9206 35.8795 12.8877 35.8795 12.7889C35.8795 12.8383 35.8296 12.8712 35.7963 12.8712C35.7132 12.7724 35.68 12.7724 35.6301 12.7724ZM29.8113 25.9453C29.8612 25.863 29.8612 26.1264 29.7282 26.077C29.6949 25.9453 29.8612 26.0276 29.8113 25.9453ZM29.7781 13.1182C29.7781 13.1676 29.8279 13.1676 29.8279 13.2005C29.9111 13.2499 29.8612 13.0359 29.7781 13.1182ZM29.9942 27.9377H29.9111C29.9111 27.9871 29.8612 28.02 29.8279 28.02V28.1518C29.9443 28.1024 30.0441 28.053 29.9942 27.9377ZM29.8612 12.9536V13.0359C30.0441 13.1676 30.0441 12.8218 29.8612 12.9536ZM29.9443 25.8136C29.8944 25.8136 29.9942 25.6819 30.0274 25.6819C30.0773 25.7642 29.9443 25.7148 29.9443 25.8136ZM30.0441 22.9979C30.0441 22.9485 30.0441 22.8662 29.9609 22.9156V22.9979H30.0441ZM29.9942 14.6002C29.9942 14.7813 30.0773 14.8636 30.2103 14.8636C30.2602 14.7813 30.1272 14.6496 30.2103 14.5178C30.2103 14.5672 30.2103 14.6002 30.2602 14.6002C30.4763 14.3038 30.4763 13.8263 30.7922 13.5628C30.8753 13.1347 31.0582 12.7395 31.2743 12.3937C31.2244 12.262 31.3242 12.1302 31.2743 12.1302C31.2244 12.1796 31.2244 12.0808 31.0914 12.1302C31.0083 12.5584 30.7423 12.8712 30.6093 13.217C30.5594 13.217 30.5594 13.1347 30.4763 13.1676C30.6093 13.3817 30.3932 13.9909 30.1272 13.9415C30.2602 14.1556 30.2103 14.2873 30.1771 14.5014C30.1771 14.419 30.1272 14.419 30.0939 14.419C30.0773 14.5178 30.1272 14.6331 29.9942 14.6002ZM36.5944 20.7914C36.5445 20.7914 36.5445 20.7091 36.5112 20.7091C34.2336 23.0473 31.8728 25.2537 30.0441 27.8883C30.2269 27.8389 30.2602 27.5425 30.4431 27.5919C30.4929 27.3779 30.6592 27.2461 30.7423 27.065C30.7423 27.1473 30.7922 27.1473 30.8753 27.1473C31.1413 26.5381 31.6567 26.1594 32.0058 25.6325C33.5852 24.1176 35.0648 22.3063 36.5944 20.7914ZM39.5204 5.24741C39.4705 5.29681 39.4372 5.37914 39.3042 5.37914L39.1712 5.6426C39.3042 5.5932 39.3541 5.5932 39.3874 5.72493C39.2544 5.77432 39.2544 6.07071 39.1214 6.02132C39.0715 5.93899 39.2544 5.67553 39.1712 5.72493C39.1712 5.77432 39.1214 5.77432 39.0382 5.80726C38.6392 6.92695 38.1571 8.06312 37.941 9.36394C38.0241 9.36394 37.941 9.23221 38.074 9.28161C38.1239 9.41334 38.0241 9.41334 37.9909 9.49567C37.941 9.49567 37.941 9.41334 37.9077 9.41334C37.8579 9.54507 37.7249 9.59446 37.8246 9.75912C37.9077 9.80852 37.9576 9.67679 38.0075 9.75912C38.0574 9.84146 37.9576 9.89085 37.9244 9.94025C37.7914 9.98965 37.8745 9.80852 37.7415 9.89085C37.1264 11.3234 36.0291 12.3937 35.5137 13.9251C35.2477 14.0568 35.3308 14.452 35.0815 14.5672C34.6825 16.4773 33.5021 17.7781 32.8038 19.4083C32.5046 19.5894 32.3716 19.8364 32.2718 20.0998C32.1388 20.1822 31.7066 20.6268 31.7897 20.7914C31.4904 20.742 31.5736 21.2195 31.1746 21.2689C31.2244 21.3513 31.2244 21.4007 31.2244 21.483C31.1413 21.4336 31.0914 21.5324 31.0083 21.5324C31.0083 21.8288 30.6093 21.8288 30.6592 22.1746C30.5262 22.3557 29.9609 22.6027 30.2602 22.8168C30.7423 22.6356 31.0416 21.9111 31.4406 21.4665C31.4904 21.4665 31.4904 21.5159 31.4904 21.5489C31.6234 21.3677 31.8396 21.2854 31.9227 21.0713C31.7398 21.0219 32.0058 20.6762 32.222 20.8079C32.2718 20.5938 32.4048 20.3798 32.621 20.248C32.488 19.9517 32.8038 19.9023 32.754 19.6388C32.887 19.5894 32.9368 19.6882 32.9368 19.7705C33.7182 18.7332 34.3001 17.5641 34.8986 16.395C34.9817 15.9669 35.0815 15.5223 35.3807 15.2753C35.3807 15.1929 35.3807 15.1435 35.3308 15.0941H35.4638C35.7631 14.2708 36.079 13.4969 36.5944 12.8383C36.5944 12.4925 36.7772 12.229 37.0266 12.1961C37.2095 11.5869 37.5919 11.2081 37.7747 10.5989C37.7747 10.5495 37.6916 10.6483 37.6417 10.5495C37.6417 10.3684 37.7747 10.286 37.7249 10.072C37.8579 10.1214 37.808 10.0226 37.8579 9.98965C37.9077 10.039 37.9077 10.072 37.941 10.072C37.9909 10.0226 37.9909 9.94025 38.074 9.94025C38.34 8.42537 39.1214 6.99282 39.3874 5.74139L39.6035 5.31327C39.5702 5.32974 39.5204 5.32974 39.5204 5.24741ZM30.3932 12.0479C30.4763 12.0479 30.4763 11.8668 30.4431 11.9162C30.4264 11.9491 30.3433 11.9491 30.3932 12.0479ZM30.6093 25.2537H30.4763C30.4763 25.122 30.6592 25.0726 30.6924 24.9574C30.8753 25.0232 30.5096 25.0726 30.6093 25.2537ZM31.2244 24.3316C31.4073 24.4634 31.0914 24.5457 31.0416 24.628C30.9584 24.6445 31.2244 24.4304 31.2244 24.3316ZM31.2577 12.0479C31.5237 11.8668 31.5569 11.5704 31.6899 11.3069L31.5569 11.1258C31.3907 11.3893 31.2244 11.6527 31.2577 12.0479ZM32.2718 18.7496V18.9637C32.0889 18.9637 32.1388 19.1448 31.9726 19.1448C32.0224 19.4906 31.7066 19.54 31.7066 19.787C31.4904 19.8693 31.4904 20.0504 31.2743 20.1328C31.6068 19.6553 31.8728 19.1777 32.2718 18.7496ZM32.089 23.5083C31.8229 23.7718 31.6899 24.1176 31.3408 24.2822C31.5736 24.0352 31.7398 23.7389 32.089 23.5083ZM31.3907 25.369H31.4738C31.5237 25.4513 31.4239 25.4184 31.4239 25.5007C31.3907 25.5007 31.3907 25.4184 31.3907 25.369ZM31.5237 10.7471C31.5237 10.7471 31.4738 10.8788 31.5736 10.8788C31.4904 10.7471 31.6567 10.8294 31.6567 10.7471C31.6068 10.78 31.5736 10.7471 31.5237 10.7471ZM34.0507 6.4165C34.2336 6.36711 34.1837 6.20244 34.3998 6.20244C34.483 5.67553 35.2311 5.24741 35.015 4.76989C34.749 5.46147 34.0507 5.93899 33.9676 6.63056C33.9177 6.63056 33.9177 6.54823 33.8346 6.54823C33.8346 6.59763 33.8346 6.63056 33.8845 6.63056C33.6683 6.81169 33.5353 7.05868 33.3525 7.23981C33.3026 7.19041 33.3026 7.10808 33.2693 7.15748C33.2195 7.79966 32.8703 8.37597 32.4381 8.85349C32.488 9.03462 32.2552 9.03462 32.2552 9.19928C32.3383 9.24868 32.3051 9.01815 32.3882 9.14988C32.3051 9.33101 32.2552 9.54507 32.1222 9.70973C32.0391 9.578 32.1721 9.578 32.1721 9.49567C31.9892 9.49567 32.0391 9.67679 31.9892 9.75912C32.0391 9.75912 32.0723 9.70973 32.0723 9.80852C32.0224 9.89085 32.0224 10.072 31.9393 10.1049C31.8894 10.0555 31.8894 9.97318 31.8562 9.97318C31.8063 10.1543 31.8063 10.1872 31.9061 10.3684C31.8229 10.4507 31.6401 10.319 31.6068 10.5001C31.9061 10.6318 31.5569 10.8953 31.6567 11.1917C32.2718 10.1049 32.754 9.03462 33.2361 7.89845C33.3192 7.89845 33.3192 7.81612 33.419 7.81612C33.4688 7.51973 33.685 7.28921 33.8512 7.04222C33.7182 6.86109 33.8512 6.82816 33.9011 6.64703C33.951 6.69643 34.0341 6.64703 34.1172 6.59763C34.1006 6.54823 34.0507 6.4659 34.0507 6.4165ZM32.222 18.7167V18.6673C32.2718 18.6673 32.2718 18.6179 32.2718 18.6179C32.3051 18.585 32.3051 18.7496 32.222 18.7167ZM32.488 23.0802C32.488 23.1296 32.4381 23.1625 32.355 23.1625C32.355 23.1296 32.4048 23.0802 32.488 23.0802ZM32.4048 9.14988V9.01815H32.4547C32.5046 9.06755 32.5046 9.10048 32.5046 9.14988H32.4048ZM32.4048 18.4862C32.488 18.3544 32.5378 18.1404 32.6708 18.0087C32.5711 18.1898 32.5212 18.4038 32.4048 18.4862ZM32.5212 22.9979C32.5212 22.9979 32.5711 22.9979 32.5711 22.9485C32.621 22.8991 32.621 22.8168 32.754 22.8168C32.621 22.8662 32.6542 22.9979 32.5212 22.9979ZM32.754 17.9263C32.754 17.9757 32.7041 17.9757 32.7041 18.0087C32.621 18.0251 32.6542 17.8934 32.754 17.9263ZM32.754 22.7344H32.8371V22.7838C32.7872 22.7838 32.7872 22.8332 32.754 22.8332V22.7344ZM32.9202 17.5476C32.9202 17.6299 32.9202 17.7617 32.7872 17.8111C32.8371 17.7123 32.8371 17.5805 32.9202 17.5476ZM32.9701 22.471C33.02 22.5204 33.02 22.685 32.887 22.6521C32.8371 22.5698 33.0033 22.6027 32.9701 22.471ZM33.1862 17.0701C33.1031 17.2018 33.1031 17.4159 32.9202 17.4653C33.0532 17.3665 33.0033 17.1524 33.1862 17.0701ZM33.2195 22.2569L33.0865 22.471C32.9701 22.3886 33.1862 22.2569 33.2195 22.2569ZM33.3525 16.8066C33.2693 16.856 33.4023 16.5926 33.4356 16.5432C33.5852 16.6255 33.3192 16.6749 33.3525 16.8066ZM34.1006 15.4564C34.1006 15.7528 33.7515 15.8516 33.8346 16.148C33.6185 16.1974 33.7016 16.4114 33.5686 16.4444C33.6683 16.1974 33.8346 15.5881 34.1006 15.4564ZM34.0175 21.3019C34.0673 21.483 33.7182 21.6477 33.6185 21.8617C33.5852 21.6477 33.9343 21.5159 34.0175 21.3019ZM34.2835 15.2423C34.2835 15.3247 34.1505 15.3247 34.0673 15.3247C34.1172 15.2423 34.1505 15.1929 34.1505 15.0612C34.2835 14.9789 34.1505 15.2423 34.2835 15.2423ZM34.1505 21.2195C34.2835 21.0384 34.4165 20.8244 34.6326 20.6926C34.4996 20.9232 34.3666 21.0878 34.1505 21.2195ZM34.3998 14.4684C34.35 14.5508 34.3998 14.6825 34.3167 14.7319C34.3167 14.8636 34.4497 14.7813 34.3998 14.913C34.3167 14.913 34.2668 14.8636 34.217 14.9624C34.2336 14.8142 34.3167 14.6002 34.3998 14.4684ZM34.3998 21.8288H34.4497V21.8782H34.3998V21.8288ZM34.4996 14.2873C34.4497 14.0732 34.6825 13.8592 34.7988 13.6451C34.7656 13.9086 34.5328 14.0732 34.4996 14.2873ZM34.7157 20.7091C34.6326 20.6597 34.7656 20.528 34.8487 20.5774C34.8487 20.6597 34.6658 20.5774 34.7157 20.7091ZM34.7988 13.5957C34.882 13.3817 34.9817 13.1676 35.148 12.9865C35.015 13.1676 34.9318 13.4311 34.7988 13.5957ZM35.015 20.3139H35.0981V20.3962H35.015V20.3139ZM35.281 20.1328C35.2311 20.2151 35.2311 20.3139 35.0981 20.3139C35.0648 20.1822 35.1978 20.1822 35.281 20.1328ZM35.1978 4.37471C35.2477 4.55583 35.0648 4.55583 35.1147 4.72049C35.3807 4.6711 35.3308 4.45704 35.3807 4.32531C35.281 4.34177 35.3308 4.34177 35.1978 4.37471ZM35.2311 12.7724C35.3142 12.8548 35.148 12.8218 35.1812 12.9042C35.1147 12.9042 35.148 12.7724 35.2311 12.7724ZM35.148 3.51847C35.281 3.56787 35.3308 3.38674 35.2311 3.38674C35.1978 3.43614 35.148 3.43614 35.148 3.51847ZM35.547 19.8858C35.5968 19.8858 35.6301 19.8858 35.6301 19.9352C35.547 20.0175 35.4472 20.1163 35.3308 20.1492C35.3308 20.0011 35.547 20.0504 35.547 19.8858ZM35.4638 20.742C35.5137 20.742 35.5137 20.742 35.547 20.6926C35.547 20.6432 35.5968 20.6432 35.5968 20.6103C35.4971 20.6103 35.414 20.6597 35.4638 20.742ZM35.5802 12.2126C35.5802 12.2126 35.5802 12.1632 35.5303 12.1632H35.6135V12.2126H35.5802ZM36.1122 19.4906C36.1122 19.6223 35.8462 19.7541 35.68 19.8364C35.7631 19.6553 35.9792 19.6223 36.1122 19.4906ZM35.8961 20.4456C35.8462 20.3633 36.1621 20.2316 36.0291 20.2316C36.0291 20.3139 35.7132 20.3139 35.8961 20.4456ZM36.1122 11.4881C36.0291 11.4057 36.1621 11.2246 36.2452 11.1917C36.1621 11.2575 36.1621 11.3893 36.1122 11.4881ZM36.1953 13.0029C36.2452 12.9206 36.2452 12.8218 36.3782 12.7889C36.3782 12.9042 36.2951 12.9536 36.1953 13.0029ZM36.1953 19.4412C36.2452 19.4412 36.2785 19.3918 36.2785 19.3918C36.3283 19.4741 36.2286 19.4741 36.2286 19.5235C36.1954 19.54 36.1953 19.4906 36.1953 19.4412ZM36.3284 19.3095H36.4115V19.3589H36.3616C36.3782 19.3589 36.3782 19.3095 36.3284 19.3095ZM36.5445 12.5254C36.5445 12.6572 36.5445 12.7395 36.3616 12.7395C36.3782 12.6078 36.4115 12.5254 36.5445 12.5254ZM36.4614 10.6977C36.5445 10.6483 36.5112 10.4836 36.6442 10.4342C36.6442 10.566 36.5944 10.6648 36.4614 10.6977ZM36.7606 19.0954C36.8105 19.2765 36.5445 19.2271 36.4614 19.2765C36.4614 19.2765 36.6775 19.1448 36.7606 19.0954ZM36.6442 20.742L36.5944 20.7914C36.5944 20.7914 36.5944 20.8408 36.6442 20.7914V20.742ZM36.8604 20.4786C36.5944 20.4292 36.6442 20.6103 36.6442 20.742L36.6941 20.6926C36.7606 20.6597 36.8604 20.5774 36.8604 20.4786ZM37.1097 20.3468C37.3259 20.3962 37.5087 20.1328 37.6417 19.9517C37.5586 19.9517 37.5087 19.9517 37.4256 20.001C37.2926 20.0834 37.2427 20.2645 36.9934 20.2645C37.0432 20.3962 36.9102 20.3468 36.8604 20.4456C36.9934 20.4456 36.9934 20.4456 37.0765 20.495C37.0765 20.3962 37.2427 20.4456 37.1097 20.3468ZM37.1596 25.0232C37.5919 24.0352 37.9909 22.9814 38.34 21.9111C38.2901 21.9111 38.2569 21.8617 38.2569 21.73C38.0407 22.8168 37.2926 23.9035 37.1596 25.0232ZM37.2427 9.14988C37.1929 9.23221 37.3757 9.23221 37.3259 9.19928C37.2926 9.18281 37.3425 9.10048 37.2427 9.14988ZM37.4755 8.19484C37.3425 8.24424 37.5254 8.27718 37.4755 8.37597C37.4256 8.29364 37.3425 8.42537 37.3425 8.32657C37.3425 8.22778 37.3757 8.19484 37.4755 8.19484ZM37.3425 8.83702H37.3924V8.75469H37.3425V8.83702ZM37.4256 8.09605C37.4755 7.96432 37.5586 7.88199 37.6417 7.79966C37.6417 7.93139 37.5586 8.01372 37.4256 8.09605ZM37.4256 8.80409C37.5586 8.85349 37.5087 8.67236 37.4256 8.72176V8.80409ZM37.6417 7.635C37.5586 7.55267 37.6417 7.37154 37.7747 7.33861C37.7747 7.45387 37.6417 7.50327 37.6417 7.635ZM37.6916 3.6502C37.6916 3.6502 37.6417 3.69959 37.6916 3.69959V3.6502ZM38.074 7.5362C38.0241 7.5856 38.0241 7.66793 37.8911 7.66793C38.0407 7.98078 38.1737 7.45387 38.074 7.5362ZM37.9909 6.76229C37.941 6.67996 38.0407 6.67996 38.1239 6.63056C38.074 6.67996 38.1239 6.81169 37.9909 6.76229ZM38.1239 9.10048C38.074 9.10048 38.074 9.18281 38.074 9.23221H37.9909C37.9909 9.14988 38.0407 9.10048 38.1239 9.10048ZM38.074 3.25501V3.12328C38.3732 3.04095 38.3732 2.77749 38.6392 2.64576C38.5229 2.90922 38.34 3.12328 38.074 3.25501ZM38.074 7.27274V7.19041H38.1239L38.1737 7.23981C38.1239 7.23981 38.1239 7.23981 38.074 7.27274ZM38.1737 7.02575L38.2236 6.97635C38.1737 6.97635 38.1737 7.02575 38.1737 7.02575ZM38.207 6.97635C38.207 6.84462 38.1571 6.71289 38.34 6.71289C38.34 6.81169 38.2569 6.89402 38.207 6.97635ZM38.5229 5.16508C38.5229 5.24741 38.5229 5.34621 38.4397 5.34621C38.4231 5.29681 38.473 5.24741 38.5229 5.16508ZM39.0382 3.68313C39.0382 3.73253 39.0382 3.76546 39.0881 3.81486C39.1712 3.81486 39.1214 3.6502 39.0382 3.68313ZM39.1214 3.6008C39.1214 3.41967 39.3042 3.25501 39.2045 3.07388C39.2211 3.30441 39.0382 3.46907 39.1214 3.6008ZM39.2544 2.82689L39.2045 2.87629C39.1546 2.95862 39.2876 3.00802 39.2876 2.92569C39.2544 2.90922 39.2544 2.85982 39.2544 2.82689ZM39.2211 2.61283C39.271 2.69516 39.271 2.79396 39.404 2.74456C39.3541 2.5305 39.4871 2.4811 39.4539 2.31644C39.1712 2.26704 39.5204 2.64576 39.2211 2.61283ZM39.2544 2.82689C39.3042 2.82689 39.3874 2.82689 39.3042 2.77749C39.2544 2.77749 39.2544 2.82689 39.2544 2.82689ZM39.4705 5.19801C39.3874 5.19801 39.3874 5.14861 39.3375 5.14861C39.3874 5.19801 39.2544 5.28034 39.3874 5.28034C39.3874 5.24741 39.4705 5.24741 39.4705 5.19801ZM39.6035 4.37471C39.7365 3.84779 39.9526 3.38674 40.0357 2.85982C39.9526 2.81042 39.9028 2.90922 39.8196 2.90922C39.8695 3.20561 39.5204 3.46907 39.7365 3.73253C39.4705 3.78192 39.6534 4.16065 39.6035 4.37471ZM42.0973 30.2759V30.3582C42.1804 30.3912 42.1804 30.1771 42.0973 30.2759ZM42.5794 29.9301V29.8478C42.6293 29.8807 42.5794 29.9301 42.5794 29.9301ZM43.4605 25.8959H43.5436V25.9453H43.4938L43.4605 25.8959ZM43.8429 26.0276C43.8928 26.11 43.8429 26.2417 43.926 26.2088C43.9759 26.1923 43.9426 25.9782 43.8429 26.0276ZM44.059 25.8465C43.9759 25.8465 43.8762 25.9782 43.9759 26.0276C43.9427 25.8959 44.1089 25.9453 44.059 25.8465ZM44.99 23.6895C45.0399 23.6895 44.99 23.7389 45.0399 23.7718H44.9069C44.8903 23.7389 44.99 23.7389 44.99 23.6895ZM44.99 22.5698V22.4874H45.0399V22.5698H44.99ZM45.0233 22.438C44.9734 22.2569 45.2062 22.224 45.2394 22.0428C45.2893 22.1746 45.123 22.3392 45.0233 22.438ZM45.123 22.685V22.6027C45.2062 22.5533 45.2062 22.6521 45.2062 22.685H45.123ZM45.2893 23.5083H45.2062C45.2062 23.4589 45.2062 23.426 45.1563 23.426C45.1563 23.3437 45.3724 23.4754 45.2893 23.5083Z" fill="white"/>
<path d="M61.9476 20.6103L61.8645 20.7914C61.5985 20.9232 61.4655 21.1372 61.3824 21.3513C60.335 21.9605 59.936 22.9485 58.8886 23.5578C58.8055 23.7389 58.4896 23.7389 58.4896 23.9859C58.8886 23.8047 59.271 23.459 59.4871 23.2449C59.9692 22.9485 60.2352 22.5039 60.5345 22.2899C61.798 21.3348 61.665 21.0714 61.8479 21.0714C62.1139 21.0714 60.1022 23.8047 58.6559 25.402C58.2236 25.5831 57.3923 26.3899 57.1762 26.4887C57.1263 26.5711 56.7772 26.7028 56.6941 26.6205C56.3948 26.8345 55.9958 26.6698 55.6966 26.8345C55.4805 27.5261 54.9983 28.3 54.9152 28.8269C54.9152 28.9586 54.7822 29.0904 54.6991 29.041C54.6492 29.0904 54.6492 29.1233 54.6991 29.2221C54.3998 29.2715 54.5162 29.5185 54.217 29.6173C54.3998 29.749 54.3001 29.7984 54.2668 29.9631C54.2668 30.0454 54.3998 29.8807 54.3998 29.9631C54.3998 30.2265 54.1006 30.2595 54.1006 30.49C53.5686 30.7534 53.4023 31.231 52.8371 31.478C52.3549 32.0872 51.6567 32.5977 50.9584 33.1246C49.1629 33.7667 47.7165 33.6844 46.453 33.174C45.6716 32.5647 44.8404 32.0872 44.2751 31.1322C44.3583 31.0828 44.3583 31.1322 44.3583 31.1816C44.3583 30.9181 44.1421 30.6217 44.0091 30.4077C43.9593 30.6217 44.192 30.8028 44.2751 31.0992C44.0923 31.0169 43.9759 30.8028 43.793 30.6711C43.926 30.6217 43.66 30.5394 43.793 30.49C43.66 30.2759 43.4938 29.749 43.6101 29.5844C43.3441 29.288 43.527 28.547 43.6101 28.1518C43.4273 27.3779 43.7431 26.5875 44.0424 26.0277H43.9593C44.0424 25.9453 44.1754 25.9453 44.1421 25.7642C44.0923 25.6819 44.0091 25.9453 44.0091 25.7642C44.6575 24.9409 44.7074 23.7224 45.3225 22.8991C45.4057 22.8497 45.4056 22.9814 45.5054 22.9485C45.5553 22.8991 45.5553 22.8662 45.5553 22.8168C45.5054 22.7344 45.5553 22.8991 45.4721 22.8662C45.4721 22.7838 45.389 22.8168 45.389 22.7344C45.6052 22.7838 45.522 22.6521 45.6883 22.6521C45.6883 22.6027 45.7382 22.5698 45.7382 22.5204C45.7382 22.4381 45.6051 22.5204 45.6051 22.3887C45.6883 22.3887 45.6883 22.471 45.8213 22.4381C45.8712 22.3063 45.6384 22.3063 45.7382 22.224C45.788 22.1746 45.7382 22.3063 45.9543 22.224C45.9543 21.8782 46.1704 21.6971 46.3533 21.4501C46.3533 21.3678 46.2702 21.4007 46.2203 21.4007C46.4364 21.1043 46.5694 20.7585 46.9185 20.528C46.9185 20.5774 46.8687 20.5774 46.8687 20.6597C47.0017 20.4786 47.0515 20.1328 47.3009 20.0999C47.3508 20.2316 47.0848 20.1822 47.1679 20.3633C47.4672 19.9681 47.8163 19.6224 48.1654 19.2436C47.8994 19.2436 47.8163 19.5894 47.6334 19.7211C47.7165 19.3754 48.2485 19.079 48.4647 18.6838C48.1155 18.7332 48.0324 19.1119 47.7165 19.2436C47.9825 18.8484 48.3649 18.2557 48.7639 18.0745C48.847 17.597 49.5952 17.5476 49.7282 17.2512C50.4763 16.9054 50.7756 16.6914 51.5569 16.5103C51.6899 16.5926 51.8562 16.6914 52.1222 16.5926C52.3383 16.7737 52.7373 16.8066 53.0033 16.7737C52.9534 16.7243 52.8703 16.7243 52.8703 16.6914C55.148 16.395 57.0266 18.7661 56.7606 21.236C57.1596 21.5324 56.7107 22.1087 56.9767 22.4051C56.9268 22.965 56.7938 23.5248 56.6775 24.0517C56.7606 23.92 57.0765 23.9694 56.9767 23.7553C57.0598 23.7553 57.1928 23.7059 57.1928 23.6236C57.3757 23.7553 56.9767 23.7553 57.143 24.0188C57.2261 23.9365 57.3258 23.8871 57.4921 23.8377C57.3092 23.7553 57.409 23.6566 57.542 23.5742C57.542 23.6236 57.4921 23.6565 57.4921 23.7059C57.9244 23.5742 58.2402 23.1461 58.4065 22.8332C58.6226 22.965 59.1047 22.4381 59.3209 22.2734C59.8529 21.7465 60.4181 21.022 60.9335 20.6268C60.8836 20.5774 60.8836 20.5445 60.8836 20.4951C60.9667 20.4951 61.2327 20.3633 61.1829 20.1987C61.399 20.0669 61.6151 19.9352 61.6151 19.6717C61.8313 19.6717 61.798 19.4906 62.0141 19.4906C61.7149 20.0175 61.2328 20.4457 60.7839 20.9232C60.7839 21.0055 60.9169 20.9726 60.9169 21.1043C60.9667 21.1043 60.867 21.022 60.9169 20.9726V20.8902C61.0499 20.8408 61.0499 20.9726 61.0997 21.0714C60.9169 21.2525 60.7007 21.0714 60.6176 21.2854C60.5345 21.3678 60.5677 21.2031 60.6176 21.1537C60.4015 21.236 60.2186 21.4995 60.0856 21.7135C60.2685 21.6641 60.1687 21.4995 60.3516 21.4501C60.2186 21.7135 60.0025 21.8453 59.9526 22.0923C59.6534 22.0923 59.7697 22.4875 59.3874 22.5204C59.5204 22.7015 59.6534 22.5204 59.8196 22.471C59.7365 22.3887 59.7365 22.3887 59.7365 22.2899C60.0357 22.2899 60.0856 22.0758 60.3516 21.9935C60.4846 21.5654 61.133 21.4336 61.266 21.0384C61.3159 20.989 61.3159 21.0384 61.399 21.0384C61.4821 20.8244 61.798 20.775 61.798 20.5115C62.2968 20.1822 62.2469 20.2645 61.9476 20.6103ZM43.8429 27.7072C43.7598 27.7072 43.66 27.6578 43.6268 27.7895C43.6766 27.7401 43.7099 27.7895 43.7598 27.7895C43.6766 27.7072 43.8928 27.7566 43.8429 27.7072ZM43.8928 26.8839C43.8928 26.9333 43.8928 26.9333 43.8429 26.9333V26.851C43.7598 26.9004 43.66 26.9827 43.66 27.1144C43.793 27.065 43.793 26.9333 43.8761 27.0321C43.8429 26.9827 43.9759 26.8839 43.8928 26.8839ZM43.7598 27.9707C43.7598 27.9213 43.7099 27.9213 43.7099 27.8883C43.7099 27.8883 43.66 27.8883 43.66 27.9377V27.9871H43.7598V27.9707ZM43.7099 27.592C43.8429 27.592 43.8429 27.3779 43.7099 27.3779C43.8096 27.4602 43.6268 27.4602 43.7099 27.592ZM43.8096 26.6369L43.8595 26.5875H43.8096V26.6369ZM44.4248 26.8839C44.2918 26.8839 44.2419 27.065 44.3416 27.065C44.2918 26.9827 44.4248 26.9827 44.4248 26.8839ZM45.256 24.3317C45.3059 24.3811 45.123 24.3811 45.1729 24.4634C45.256 24.4634 45.2893 24.2987 45.256 24.3317ZM45.5054 23.9035C45.3724 23.8212 45.2394 24.0353 45.3225 24.0847C45.3225 24.0353 45.4555 24.0353 45.5054 24.0023V23.9035ZM46.2535 22.3393C46.2037 22.3887 46.1704 22.3887 46.1704 22.3887C46.2203 22.6027 45.9543 22.6521 45.9875 22.9156C45.7714 23.0967 45.4555 23.3931 45.5885 23.7389C45.5885 23.6072 45.6716 23.5248 45.7714 23.4754C45.8213 23.0308 46.2037 22.8168 46.2535 22.3393ZM46.3034 22.3393C46.4364 22.2569 46.6525 22.0758 46.5195 21.8617V21.9935C46.4364 21.9935 46.4364 22.0429 46.3367 22.0758C46.3367 22.1746 46.3034 22.2569 46.3034 22.3393ZM50.7091 29.9301C50.5761 29.8478 50.7091 29.4526 50.9751 29.535C51.0249 29.3538 51.1912 29.2715 51.3242 29.3209C51.3741 29.0245 51.7232 28.761 51.8894 28.761C51.8894 28.6787 51.9393 28.6787 51.9393 28.6293C51.9393 28.5799 51.8562 28.5799 51.8063 28.5799C51.8894 28.4976 51.9892 28.5305 52.0224 28.4976C51.9726 28.4976 51.9393 28.4153 52.0224 28.3659C52.1056 28.3165 52.1056 28.4153 52.2386 28.3659C52.1887 28.1847 52.3217 28.1024 52.3217 27.9707C52.3716 27.9213 52.3716 28.0201 52.4547 27.9707C52.7207 27.4438 53.1031 26.9827 53.3691 26.3735C53.2859 26.3241 53.2361 26.2417 53.1862 26.2417C53.1862 26.2911 53.1862 26.2911 53.1363 26.3241C51.6567 25.6325 49.9443 23.6401 49.6451 21.9935C49.4622 21.9935 49.6949 21.7794 49.5619 21.5983C49.2959 21.6477 49.3458 21.8617 49.1629 21.9935C49.2959 21.9935 49.2959 21.8617 49.379 21.9441C49.1962 22.3393 48.7639 22.5533 48.6309 22.9814C48.3649 22.932 48.3317 23.1132 48.1987 23.2449C48.1987 23.3272 48.2818 23.3272 48.2818 23.426C48.1987 23.3766 48.0657 23.4754 48.0657 23.6072C48.1987 23.6565 48.1488 23.426 48.1987 23.5248C47.6667 24.6116 47.0183 25.649 46.8853 26.9498C46.7523 27.2132 46.586 27.4767 46.6193 27.8554C46.2702 28.2835 46.5694 29.0739 46.3533 29.6667C46.4863 30.3089 46.1704 31.6097 46.9185 31.9225C47.2677 31.7414 48.182 31.6261 48.6642 31.445V31.3956C48.714 31.2639 48.5312 31.445 48.5312 31.2639C48.6642 31.2639 48.6642 31.2145 48.7473 31.1816C48.6974 31.2639 48.7972 31.3627 48.8304 31.445C48.7805 31.445 48.6974 31.445 48.6974 31.4944C48.7805 31.5768 48.8304 31.4944 48.8803 31.445C48.8803 31.5768 49.0632 31.5274 49.0632 31.4944H48.9302C48.98 31.4121 48.9302 31.4121 48.8803 31.3133C48.9302 31.2639 48.9634 31.2639 48.9634 31.231C48.9634 31.231 48.9634 31.2804 49.0133 31.3627C49.2294 31.1816 49.4455 31.0663 49.6284 30.8358C49.5786 30.7534 49.6284 30.6546 49.6783 30.5723C49.8113 30.5229 49.8612 30.6217 49.9776 30.6217C50.0274 30.3583 50.1937 30.1442 50.3766 29.9301C50.3766 30.0125 50.3267 30.0619 50.3766 30.1442C50.3267 30.1936 50.1937 30.2265 50.1937 30.3253C50.4098 30.3253 50.3267 30.1442 50.4929 30.1113C50.4431 30.0619 50.4098 29.9301 50.4929 29.8972C50.6259 29.8807 50.5761 30.0125 50.7091 29.9301ZM46.7357 21.6971C46.8188 21.6971 46.8687 21.5654 46.7855 21.5654C46.8188 21.6477 46.6525 21.6148 46.7357 21.6971ZM46.7357 20.3139V20.2316H46.7855L46.8354 20.281C46.7855 20.2645 46.7855 20.3139 46.7357 20.3139ZM46.8687 20.1822C46.8687 20.1328 46.9185 20.1328 46.8687 20.0505C46.9518 20.0505 46.9518 20.1822 46.8687 20.1822ZM47.1347 19.9681C47.0848 19.9681 47.0017 20.0175 46.9518 20.0175C46.9518 19.9352 47.0349 19.8858 47.1347 19.8364C47.1679 19.8858 47.1347 19.9187 47.1347 19.9681ZM47.1679 19.7541C47.1679 19.54 47.384 19.4906 47.4672 19.3589C47.6002 19.4906 47.3508 19.6553 47.1679 19.7541ZM47.1679 21.1372C47.2178 21.1372 47.251 21.0878 47.251 21.0549C47.2178 21.0549 47.1679 21.0878 47.1679 21.1372ZM47.5669 19.7047C47.4838 19.787 47.4838 19.9187 47.384 19.9187C47.384 19.8364 47.4339 19.7541 47.5669 19.7047ZM48.0823 20.0999C48.0823 20.0505 48.1322 20.0175 48.1322 19.9681C48.049 19.9681 47.9992 20.0999 48.0823 20.0999ZM48.2652 18.9637C48.2652 19.0131 48.2652 19.046 48.315 19.046C48.315 18.9966 48.315 18.9966 48.3649 18.9966C48.315 18.9637 48.315 18.9308 48.2652 18.9637ZM48.4314 23.1296C48.4813 23.212 48.3483 23.179 48.3815 23.2614C48.3483 23.2943 48.3483 23.1296 48.4314 23.1296ZM48.4813 18.6179C48.4813 18.5685 48.5312 18.5356 48.5312 18.5356C48.581 18.5356 48.581 18.585 48.6143 18.585C48.5644 18.5356 48.5644 18.5027 48.5644 18.5027C48.3982 18.4533 48.315 18.6179 48.4813 18.6179ZM49.0133 31.1816C49.0632 31.0992 49.0632 31.0992 49.0632 31.0004C49.113 30.951 49.1463 31.0004 49.1463 31.0828C49.1297 31.1322 49.0465 31.1322 49.0133 31.1816ZM49.3624 30.9675C49.3125 30.9675 49.3125 30.9181 49.3125 30.8852H49.2294C49.2294 30.7864 49.4455 30.8358 49.3624 30.9675ZM49.9277 30.5229C49.8446 30.4406 49.9776 30.4406 49.9776 30.3912C50.0607 30.3912 50.0108 30.5723 49.9277 30.5229ZM50.7091 30.8358C50.7091 30.7864 50.6592 30.7864 50.6592 30.7534C50.6592 30.7534 50.6093 30.8028 50.5761 30.8028V30.8522H50.7091V30.8358ZM52.4547 29.3538C52.4048 29.3538 52.4547 29.2221 52.3716 29.3044C52.3716 29.4362 52.2884 29.4362 52.1554 29.4362C52.1056 29.5679 52.1056 29.6502 52.0723 29.6996C51.6401 29.6996 51.2909 30.3912 50.8088 30.5723C50.8088 30.704 50.8088 30.7864 50.7589 30.8687C51.3242 30.3583 52.0224 29.9631 52.4547 29.3538ZM51.0582 29.6173C51.1413 29.6173 51.1413 29.4362 51.1081 29.4856C51.1081 29.535 51.0249 29.535 51.0582 29.6173ZM51.8894 28.3659C51.8894 28.3659 51.8894 28.3165 51.8396 28.3165C51.8894 28.3165 51.8894 28.3165 51.9227 28.2671V28.3494H51.8894V28.3659ZM55.0316 20.8244C54.6825 20.1328 55.2145 18.832 54.4663 18.2721C54.4165 18.4533 54.5495 18.6179 54.5495 18.7496C54.4165 18.7002 54.4165 18.4533 54.2835 18.3545C53.7515 18.5685 53.5353 18.9637 53.1529 19.2272C53.2028 19.3589 53.1529 19.4083 53.2028 19.4906C53.0698 19.54 53.0698 19.6717 52.9368 19.6717L52.0557 22.3063C52.0557 22.3557 52.1056 22.3557 52.1388 22.3557C51.8396 22.5369 52.1887 23.0473 52.0557 23.2284C52.3217 23.7553 52.5877 24.5293 52.9368 25.0068C53.3691 25.0891 53.6351 25.0891 54.0673 24.9574C54.1505 24.3152 54.5495 23.8377 54.5495 23.1461C54.9485 22.5204 54.9485 21.6477 55.0316 20.8244ZM52.7207 27.1968C52.6708 27.1474 52.6708 27.1144 52.6708 27.065C52.7706 27.0156 52.8038 27.1968 52.7207 27.1968ZM52.8038 28.1847C52.7539 28.2341 52.7539 28.2341 52.7207 28.2341L52.7706 28.2835H52.8204V28.1847H52.8038ZM53.2859 28.053C53.2028 27.8719 53.3358 27.9707 53.3358 27.8389C53.2527 27.8883 53.2028 27.7895 53.0698 27.8389C53.1529 27.9707 53.0199 28.0201 52.9368 28.053C52.9368 28.1024 52.9368 28.1024 52.9867 28.1024C52.9036 28.1518 52.9036 28.1847 52.9368 28.2835C52.8038 28.3329 52.6708 28.3659 52.7539 28.547C52.9368 28.547 52.8038 28.3659 52.9701 28.3659C52.9368 28.1518 53.2028 28.1024 53.2859 28.053ZM53.2527 28.3988C53.1696 28.4482 53.1197 28.4482 53.1197 28.5305L53.2527 28.3988ZM53.7681 26.6698C53.7681 27.0156 53.3358 27.2791 53.2859 27.5426C53.2361 27.4932 53.2028 27.4932 53.1529 27.4932C53.1529 27.6249 53.2361 27.6743 53.2028 27.7895L53.552 27.7072C53.552 27.5755 53.552 27.4438 53.6351 27.4108C53.685 27.5426 53.6849 27.2297 53.8179 27.2791C53.8179 27.098 53.8179 27.1968 53.7348 27.065C53.8179 27.065 53.818 27.0156 53.9177 27.0156C53.8346 26.8839 53.8678 26.7192 54.0507 26.7192C54.0507 26.6698 54.0008 26.6369 54.0008 26.5875C53.9011 26.5875 53.8512 26.6369 53.7681 26.6698ZM53.3358 28.3165L53.2527 28.3988C53.3026 28.3988 53.3358 28.3988 53.3358 28.3494V28.3165ZM54.2502 26.7192C54.0673 27.1144 53.3358 27.9707 53.3358 28.3165C53.6018 28.053 53.9011 27.7072 53.9842 27.2791C54.1671 27.2791 54.0673 27.098 54.2502 27.065C54.2003 26.8839 54.3001 26.8839 54.2502 26.7192ZM53.6351 27.3614C53.6351 27.312 53.7182 27.2791 53.685 27.2297C53.7681 27.2462 53.7348 27.3614 53.6351 27.3614ZM53.8179 25.122H53.9011C53.9011 25.0726 53.8512 25.0726 53.8512 25.0397C53.8512 25.0891 53.8013 25.0891 53.8013 25.0891V25.122H53.8179ZM54.6492 20.2645C54.6492 20.3139 54.6991 20.3469 54.6991 20.3963C54.6492 20.3469 54.616 20.3963 54.616 20.3139C54.6492 20.3139 54.6492 20.3139 54.6492 20.2645ZM54.7323 21.0055C54.7323 20.9232 54.6492 20.7091 54.6492 20.528C54.7822 20.6103 54.7822 20.8244 54.7323 21.0055ZM54.7323 29.4856C54.7822 29.535 54.6825 29.535 54.6825 29.5679C54.6492 29.6173 54.6825 29.4856 54.7323 29.4856ZM55.3475 23.8212C55.2643 24.2493 54.9152 24.4634 54.6991 24.8586C54.882 24.8092 54.8321 24.7268 54.882 24.6445C55.015 24.7268 55.1812 24.5951 55.281 24.5622C55.2145 24.2987 55.4805 24.0847 55.3475 23.8212ZM55.0815 18.3709C55.0815 18.3709 55.1313 18.4203 55.1313 18.4533C55.2145 18.4533 55.1646 18.2721 55.0815 18.3709ZM55.7797 20.6103C55.6467 19.8364 55.6966 19.046 55.1646 18.4533C55.2145 18.6344 55.2976 18.6673 55.2976 18.799C55.1147 18.8814 55.3475 19.1448 55.1646 19.1942C55.4638 19.1942 55.1147 19.54 55.3475 19.54C55.2145 19.5894 55.3475 19.6223 55.3475 19.6717C55.1646 19.6717 55.4306 19.8035 55.2145 19.8035C55.2643 19.8858 55.2643 19.9352 55.2643 20.0175C55.3475 20.0175 55.3475 19.9681 55.3475 19.9352C55.4306 20.1163 55.2643 20.2316 55.4306 20.3633C55.2976 20.8408 55.6966 21.5818 55.3807 21.8782C55.3807 21.9276 55.4638 21.8782 55.5137 21.9276C55.4638 21.977 55.4638 22.0099 55.4638 22.0593C55.414 22.0593 55.3807 22.0099 55.3308 22.0593C55.414 22.1417 55.281 22.1911 55.2477 22.2405C55.2477 22.3228 55.4306 22.3228 55.3308 22.3722C55.281 22.2899 55.1147 22.6357 55.2477 22.6686C55.1147 22.8003 55.1147 22.965 55.1147 23.1955C55.2477 23.1955 55.1147 23.0638 55.2477 23.0638C55.1646 23.2778 55.2477 23.2449 55.0648 23.3272C55.0648 23.459 55.148 23.459 55.148 23.5907C55.015 23.6401 55.0648 23.8871 55.0981 23.9365C55.148 23.7224 55.148 23.5084 55.3142 23.4096C55.3142 23.3272 55.2643 23.3272 55.2643 23.2284C55.5303 22.932 55.5303 22.4051 55.5303 22.0099C55.5802 22.0099 55.5802 22.0923 55.6135 22.0593C55.6966 21.9276 55.7465 21.7959 55.6633 21.6312C56.0956 21.4336 55.5137 20.8244 55.7797 20.6103ZM55.2976 22.8168H55.2145V22.7674H55.2976V22.8168ZM55.3807 22.6027C55.3807 22.6521 55.3308 22.6521 55.2976 22.6521C55.2976 22.6027 55.2976 22.5698 55.3475 22.5698V22.5204C55.3973 22.5204 55.3973 22.5204 55.3973 22.471C55.4805 22.471 55.3475 22.5698 55.3807 22.6027ZM55.6135 22.9156C55.6633 23.0473 55.6135 23.0967 55.6135 23.179C55.6966 23.1626 55.6467 22.8168 55.6135 22.9156ZM56.9102 24.1176C56.8271 24.167 56.8271 24.0682 56.7772 24.0682C56.8603 24.1999 56.6442 24.1176 56.6442 24.1999C56.744 24.2493 56.9102 24.167 56.9102 24.1176ZM57.4921 23.426C57.542 23.5578 57.3092 23.5084 57.3591 23.6401C57.2261 23.5578 57.3923 23.4754 57.4921 23.426ZM57.6251 23.426H57.542C57.4921 23.3766 57.5919 23.3766 57.5919 23.3437C57.675 23.3931 57.675 23.426 57.675 23.5248C57.6584 23.6401 57.5752 23.4754 57.6251 23.426ZM57.6584 24.4305C57.7082 24.5128 57.5254 24.5622 57.6085 24.5622C57.6584 24.5622 57.7415 24.4305 57.6584 24.4305ZM57.7415 23.3931C57.6916 23.3931 57.6916 23.3437 57.6916 23.3437C57.7415 23.3437 57.7415 23.2943 57.7747 23.2943V23.3766H57.7415V23.3931ZM57.9244 23.0308C58.0075 23.1132 57.7914 23.0802 57.8412 23.1626C57.7914 23.1626 57.8412 23.0308 57.9244 23.0308ZM57.9244 24.3811C57.9244 24.3317 57.9244 24.3317 57.8745 24.2987H57.8246V24.3811H57.9244ZM58.4397 23.9859C58.3899 23.9859 58.3566 23.9859 58.3067 24.0353C58.3234 24.0353 58.4065 24.0353 58.4397 23.9859ZM58.7556 23.2614C58.6725 23.1296 58.8055 23.1296 58.8055 23.0473C58.6226 23.0967 58.8554 23.0473 58.7556 22.9156C58.5727 22.965 58.7057 23.2614 58.5395 23.1296C58.5894 23.179 58.5894 23.212 58.5894 23.2614C58.6392 23.2614 58.7722 23.179 58.7224 23.2614C58.6392 23.3108 58.5062 23.3437 58.5062 23.4754C58.6725 23.426 58.6226 23.2943 58.7556 23.2614ZM59.0549 22.9485C58.9717 22.9979 58.9717 23.0308 58.8387 23.0308C58.8387 23.1132 58.8387 23.212 58.7556 23.2449C58.8055 23.3766 58.9385 23.1626 59.0549 23.1955C58.9219 23.1296 59.0216 23.0308 59.0549 22.9485ZM59.3209 22.685C59.1879 22.685 59.2377 22.8168 59.1879 22.8991C59.2377 22.8168 59.3707 22.8168 59.3209 22.685ZM59.9859 21.7794C59.9859 21.7794 59.9859 21.8288 60.0357 21.8288C60.0856 21.8288 60.1189 21.7794 60.0856 21.7465C60.069 21.7465 60.0191 21.7465 59.9859 21.7794ZM60.5012 21.3513C60.5511 21.3019 60.5511 21.4336 60.4514 21.4336C60.4181 21.4007 60.5012 21.4007 60.5012 21.3513ZM61.4655 20.6103C61.4655 20.6103 61.2494 20.6597 61.1995 20.5609C61.2826 20.5609 61.3325 20.5115 61.4156 20.5115C61.4156 20.5774 61.4156 20.6103 61.4655 20.6103ZM61.5154 20.3139C61.5154 20.3633 61.4322 20.3963 61.4655 20.4457C61.3824 20.4457 61.4156 20.3139 61.5154 20.3139ZM61.5486 20.3963C61.5486 20.528 61.6816 20.3963 61.6317 20.528C61.5486 20.5774 61.4489 20.3469 61.5819 20.3139C61.6318 20.3963 61.5985 20.3963 61.5486 20.3963ZM61.5985 20.2316C61.5985 20.1822 61.7315 20.1822 61.7315 20.281C61.6816 20.3139 61.6816 20.2316 61.5985 20.2316ZM62.463 19.4906C62.463 19.573 62.3799 19.6223 62.2469 19.6717C62.2469 19.6223 62.3799 19.54 62.2968 19.54C62.2968 19.4083 62.3799 19.54 62.463 19.4906Z" fill="white"/>
</svg>
