<svg width="140" height="78" viewBox="0 0 140 78" fill="none" xmlns="http://www.w3.org/2000/svg">
<path d="M25.1205 43.6187C24.5885 44.1456 24.3392 44.7713 24.3392 45.5288L24.389 59.5085C24.389 61.8796 23.5578 63.8885 21.8953 65.5187C20.2328 67.1653 18.2045 67.9886 15.8271 67.9886C14.946 67.9886 14.2477 67.7251 13.6991 67.1817C13.1671 66.6548 12.8845 65.9468 12.8845 65.0741C12.8845 64.2014 13.1505 63.4933 13.6991 62.9499C14.2311 62.4066 14.946 62.1266 15.8271 62.1266C16.5919 62.1266 17.2236 61.8796 17.7224 61.3692C18.2377 60.8587 18.4871 60.233 18.4871 59.4921L18.4372 45.5123C18.4372 43.1247 19.2685 41.0994 20.931 39.4693C22.5935 37.8391 24.6218 37.0158 26.9992 37.0158C27.8803 37.0158 28.5952 37.2793 29.1438 37.8226C29.6924 38.3496 29.9751 39.0576 29.9751 39.9303C29.9751 40.803 29.7257 41.4781 29.2103 41.9886C28.6949 42.499 27.9967 42.7789 27.1156 42.8613C26.2178 42.9271 25.5528 43.1741 25.1205 43.6187Z" fill="#031020"/>
<path d="M45.0374 65.0411C45.0374 65.9138 44.7714 66.6054 44.2228 67.1488C43.6908 67.6757 42.9759 67.9556 42.0948 67.9556C41.2136 67.9556 40.4988 67.6922 39.9501 67.1488C39.4015 66.6219 39.1189 65.9138 39.1189 65.0411V42.8777H35.2785C34.3973 42.8777 33.6825 42.5978 33.1338 42.0544C32.5852 41.5111 32.3026 40.803 32.3026 39.9303C32.3026 39.0576 32.5852 38.366 33.1338 37.8226C33.6825 37.2957 34.3973 37.0158 35.2785 37.0158H49.0939C49.9751 37.0158 50.6899 37.2793 51.2386 37.8226C51.7872 38.3496 52.0698 39.0576 52.0698 39.9303C52.0698 40.803 51.7872 41.5111 51.2386 42.0544C50.6899 42.5978 49.9751 42.8777 49.0939 42.8777H45.0208V65.0411H45.0374Z" fill="#031020"/>
<path d="M70.0914 37.0323C74.4638 37.0323 78.1546 38.5307 81.197 41.5275C84.2228 44.5244 85.7357 48.1963 85.7357 52.5269C85.7357 56.8575 84.2228 60.5294 81.197 63.5263C78.1712 66.5231 74.4638 68.0215 70.0914 68.0215C65.719 68.0215 62.0116 66.5231 58.9859 63.5263C55.9601 60.5294 54.4472 56.8575 54.4472 52.5269C54.4472 48.1963 55.9601 44.5408 58.9859 41.5275C62.0116 38.5307 65.719 37.0323 70.0914 37.0323ZM70.0914 42.8778C67.3151 42.8778 65.0042 43.7999 63.1421 45.6441C61.2801 47.4883 60.3491 49.7935 60.3491 52.5269C60.3491 55.2438 61.2968 57.5326 63.1754 59.3933C65.054 61.254 67.3649 62.1925 70.1081 62.1925C72.8512 62.1925 75.1621 61.254 77.0407 59.3933C78.9194 57.5326 79.867 55.2438 79.867 52.5269C79.867 49.81 78.9194 47.5212 77.0407 45.6605C75.1455 43.7999 72.8346 42.8778 70.0914 42.8778Z" fill="#031020"/>
<path d="M102.178 58.7676C102.211 59.6897 102.56 60.48 103.225 61.1222C103.89 61.7644 104.688 62.0937 105.603 62.0937C106.517 62.0937 107.249 62.3572 107.814 62.9006C108.362 63.4275 108.645 64.152 108.645 65.0412C108.645 65.9139 108.362 66.6054 107.814 67.1488C107.265 67.6757 106.55 67.9557 105.669 67.9557C102.993 67.9557 100.748 67.0665 98.9526 65.2717C97.1571 63.4769 96.2594 61.2539 96.2594 58.6029V56.2153C96.2594 55.4414 96.5586 54.7663 97.1405 54.1735C97.7224 53.5972 98.404 53.3008 99.202 53.3008C100.665 53.3008 101.912 52.7904 102.943 51.7695C103.973 50.7486 104.489 49.5136 104.489 48.0646C104.489 46.6156 103.973 45.3971 102.943 44.3926C101.912 43.3882 100.665 42.8778 99.202 42.8778C97.739 42.8778 96.5087 43.3882 95.4946 44.3926C94.4805 45.3971 93.9651 46.632 93.9651 48.0646V65.0412C93.9651 65.9139 93.6825 66.6054 93.1338 67.1488C92.5852 67.6757 91.8703 67.9557 90.9892 67.9557C90.1413 67.9557 89.4431 67.6757 88.8944 67.1324C88.3458 66.589 88.0632 65.8974 88.0632 65.0576V48.0646C88.0632 44.9525 89.1272 42.3344 91.2718 40.2102C93.4165 38.0861 96.0599 37.0323 99.202 37.0323C102.344 37.0323 105.004 38.0861 107.165 40.2102C109.327 42.3344 110.407 44.9525 110.407 48.0646C110.407 50.5674 109.643 52.8068 108.13 54.7828C106.6 56.7422 104.622 58.076 102.178 58.7676Z" fill="#031020"/>
<path d="M128.396 68.0215C124.023 68.0215 120.316 66.5231 117.29 63.5263C114.264 60.5294 112.751 56.8575 112.751 52.5269C112.751 48.1963 114.264 44.5408 117.29 41.5275C120.316 38.5307 124.023 37.0323 128.396 37.0323C129.277 37.0323 129.992 37.2957 130.54 37.8391C131.089 38.366 131.372 39.0741 131.372 39.9468C131.372 40.8195 131.089 41.5275 130.54 42.0709C129.992 42.6143 129.277 42.8942 128.396 42.8942C126.301 42.8942 124.406 43.487 122.71 44.689C121.014 45.8911 119.834 47.4718 119.169 49.4313H128.396C129.277 49.4313 129.992 49.6947 130.54 50.2381C131.089 50.765 131.372 51.4731 131.372 52.3458C131.372 53.2185 131.089 53.9265 130.54 54.4699C129.992 55.0133 129.277 55.2932 128.396 55.2932H119.036C119.651 57.335 120.815 59.0146 122.56 60.2989C124.289 61.5833 126.234 62.2254 128.396 62.2254C129.277 62.2254 129.992 62.5054 130.54 63.0488C131.089 63.5921 131.372 64.3002 131.372 65.1729C131.372 66.0456 131.089 66.7372 130.54 67.2806C129.992 67.7581 129.277 68.0215 128.396 68.0215Z" fill="#031020"/>
<path d="M42.0781 15.0171C41.9451 15.0171 41.8121 15.0171 41.729 15.0665C41.7789 15.1982 41.995 15.1488 42.0283 15.2805C41.9784 15.4123 41.729 15.2805 41.729 15.4946C41.3799 15.4946 40.8978 15.3629 40.7648 15.758C40.3325 15.7086 39.9335 15.7086 39.5844 15.7086C39.5345 15.8404 39.6675 15.791 39.6342 15.9227C37.6725 15.9227 35.3948 16.1368 33.5162 16.3179C33.3832 17.487 33.084 19.3477 32.685 20.3027C32.8678 20.6979 32.2028 21.1754 32.4688 21.6035C32.286 22.5585 31.5877 23.5959 31.3383 24.4686C31.1554 25.1602 31.2053 25.8518 30.9393 26.4116C30.5902 27.1032 30.4572 27.8771 29.9751 28.4864C29.7922 29.5237 29.2768 30.347 29.0607 31.2197C29.1937 31.0386 29.2768 31.2691 29.4597 31.2691C29.5927 31.0057 29.8919 31.1374 30.1081 31.088C30.1579 31.2691 30.1081 31.3021 30.1912 31.4338C30.0083 31.4832 29.8421 31.5161 29.6592 31.6149C29.9252 31.6972 30.1912 31.4338 30.4904 31.4338C29.9584 31.8619 29.4431 31.9936 28.6949 32.1254C28.3957 32.4218 28.6118 32.9981 28.2128 33.1627C28.2959 33.3439 28.1297 33.8543 27.9468 34.0354C27.9468 34.0848 28.0299 34.0848 28.0299 34.1178C27.5977 34.8917 27.3317 36.0608 26.9825 37.0981C26.9327 37.2299 26.7165 37.3945 26.6334 37.5756C26.5835 37.7568 26.6833 37.872 26.6334 38.0532L26.4505 38.2672C26.2677 38.7447 26.3674 39.3046 26.0515 39.8315C26.0017 39.9632 25.7855 40.4408 25.7024 40.7371C25.4863 41.4287 25.2203 42.038 24.921 42.6472C24.1729 43.9974 23.6575 45.8087 22.9593 47.0601C22.4273 48.1469 21.6958 49.0031 21.0308 49.9582C19.7672 50.8638 19.1521 52.6421 17.3566 52.8562C16.4755 53.0373 15.611 53.5972 14.6467 53.4655L14.4638 53.5478C14.3807 53.4655 14.2477 53.4655 14.1646 53.3667C14.0815 53.4984 14.1147 53.2843 13.9817 53.416C11.4879 52.8068 9.79218 51.3743 8.86118 49.3819C8.91105 49.3819 8.91105 49.4313 8.9443 49.4313C8.86118 49.2995 8.99418 49.0855 8.76143 49.0361C9.11056 48.4762 8.49543 47.6529 8.62843 46.9943C8.57855 46.8625 8.71155 46.9119 8.76143 46.9449C8.6783 46.7308 8.6783 46.4674 8.57855 46.2533C8.71155 46.2039 8.57855 46.4344 8.71155 46.385C8.76143 46.385 8.76143 46.3027 8.76143 46.2039C8.84455 46.2533 8.8113 46.3356 8.8113 46.385C9.11056 46.0886 8.9443 45.2653 9.34331 45.0842C9.16043 44.6067 9.74231 44.1786 9.74231 43.701C10.4406 42.9601 10.9227 42.005 11.4879 41.1488C12.5852 39.9797 13.5495 38.5965 14.946 37.7238C16.6085 36.1266 18.7531 35.0399 20.6318 33.6567C21.197 33.4426 21.729 33.0969 22.2111 32.7511C23.3084 32.2242 24.655 31.8784 25.8354 31.4503C25.8354 31.5326 25.7523 31.4996 25.7523 31.5326C25.9352 31.6149 25.8354 31.3515 26.0183 31.4009C26.0183 31.4832 25.9684 31.582 26.0183 31.582H26.1513C26.2843 31.4503 26.3674 31.2362 26.4505 31.1045C26.4007 31.0221 26.3175 31.1045 26.2344 31.0551C26.3175 30.841 26.4505 30.6269 26.4505 30.4129C26.4505 30.3635 26.5337 30.3635 26.5835 30.3635C26.6334 30.2318 26.5835 30.0671 26.7664 30.0177C26.6833 30.0177 26.7165 29.9354 26.5835 29.9354C26.5004 29.886 26.5337 29.9848 26.5004 30.0671C26.3175 30.1165 26.5503 29.886 26.4173 29.886C26.3342 30.0177 26.3342 30.2318 26.2012 30.3635C26.2012 29.6225 26.9825 28.5522 26.8994 27.7618C27.5145 26.5927 28.1297 25.2096 28.2627 23.777C28.4788 23.1678 28.8778 22.4268 28.7448 21.9164C28.6949 21.7846 28.9277 21.9164 28.8778 21.7352C28.8778 21.6858 28.7448 21.6858 28.7448 21.7352C28.6617 21.6858 28.8279 21.5541 28.7947 21.4718C28.8446 21.4718 28.8778 21.4718 28.9277 21.4224C28.9776 21.4718 29.0607 21.4718 29.0108 21.5541C29.0939 21.4718 28.9277 21.2577 28.7947 21.3401C28.8446 21.0766 28.9776 20.9119 29.0939 20.7802C29.0441 19.8746 29.7922 18.7878 29.7423 18.1456C29.9252 18.0633 29.7922 17.7998 30.0083 17.7504C29.9584 17.5693 29.8753 17.2729 30.0914 17.1906C29.9584 17.0095 30.0914 16.9271 30.1746 16.7625C28.9443 16.7131 27.0657 17.1906 25.719 17.4047C24.8047 17.5858 25.4198 17.1906 24.6218 17.5858C24.4389 17.6352 24.3225 17.8492 24.0066 17.8492C23.5245 17.7998 23.6575 17.1083 23.3583 16.9765C23.4414 16.6307 23.2253 16.2026 23.5411 16.0215C23.458 15.8898 23.4913 15.6757 23.325 15.5934C24.3225 15.1653 23.591 15.6428 24.5885 15.1982C24.5387 15.1488 24.7215 15.1159 24.9875 15.0665V15.1488H25.0707V15.0665C25.2037 15.0665 25.3699 15.0171 25.5029 14.9841C25.6858 15.1159 25.9352 14.9018 25.985 15.0335C26.0682 14.8524 26.2012 15.0335 26.251 14.8524C26.4672 14.8524 26.517 14.9347 26.6002 14.7701C26.783 14.6877 26.65 14.8524 26.7332 14.8524C26.8163 14.7207 27.4813 14.6383 27.3815 14.6713C31.3217 13.8974 37.6559 13.0741 42.1613 14.5889C42.0283 14.7207 41.862 14.5889 41.7623 14.6713C41.8454 14.7536 42.0615 14.7207 42.1114 14.803C42.1613 14.9347 42.0781 14.9018 42.0781 15.0171ZM8.8113 46.5332C8.8113 46.5826 8.8113 46.6155 8.76143 46.6155C8.89443 46.7143 8.89443 46.5003 8.8113 46.5332ZM8.9443 45.7593C8.99418 45.677 8.9443 45.9404 8.9443 45.9734C8.86118 46.0557 8.9443 45.8087 8.9443 45.7593ZM9.02743 45.3641C9.16043 45.3641 9.07731 45.6605 8.97755 45.6605C8.89443 45.6276 9.02743 45.4958 9.02743 45.3641ZM9.59268 43.8163C9.67581 43.8657 9.54281 44.0304 9.54281 44.1127C9.42643 44.0304 9.59268 43.948 9.59268 43.8163ZM25.4198 33.2945C22.4439 34.5953 19.468 36.6206 16.941 38.7118C16.941 38.7612 16.9909 38.7612 16.9909 38.7941C15.2785 40.0126 13.7988 41.4287 12.7515 43.3388C12.2194 43.6022 12.1862 44.2938 11.8371 44.7219C11.6542 45.3641 11.0058 46.0557 11.3051 46.6649C11.2219 46.6155 11.2219 46.5826 11.1222 46.6155C10.9892 47.2248 10.8562 48.0481 10.9892 48.6573C10.5902 50.0899 11.5212 51.2919 12.6517 51.8188C13.9651 51.8188 14.5802 51.0779 15.7938 51.0449C15.7938 51.0449 15.7107 51.1767 15.7938 51.1767C15.877 50.8309 16.4422 50.7815 16.409 50.4357C16.808 50.3863 16.8911 50.0405 17.0574 49.7935C17.0574 49.8758 17.0574 49.9252 17.1904 49.9252C17.3234 49.4971 17.9385 48.8879 18.3707 48.4927C18.2876 48.4927 18.1879 48.5421 18.1879 48.4433C18.271 48.3939 18.3707 48.3116 18.537 48.361C18.537 48.2786 18.537 48.2292 18.5869 48.1798C18.537 48.1798 18.5037 48.1798 18.5037 48.1304L18.6367 47.9493C18.7199 47.9987 18.7199 47.9987 18.7697 47.9987C18.7697 48.0481 18.6866 48.1798 18.8196 48.1798L19.0025 47.9987C19.0524 47.7846 18.9526 47.3895 19.2186 47.3071C19.2186 47.4389 19.0357 47.3565 19.0856 47.5212H19.3516C19.4015 47.4718 19.4015 47.3401 19.5345 47.3895C19.2685 47.7846 18.9692 48.2128 18.6534 48.5585C18.6534 48.4762 18.3874 48.4762 18.3874 48.5092C18.4705 48.5915 18.5702 48.4598 18.6534 48.5585C18.5702 48.6903 18.4705 48.7397 18.4372 48.9043C18.3541 48.8549 18.3042 48.9043 18.2544 48.9537C18.3042 48.9537 18.3375 48.9537 18.3375 48.9043C17.6392 49.81 17.0241 50.5509 16.2427 51.3249C17.2402 50.8967 17.6891 49.8594 18.4705 49.2007C18.1214 49.8923 17.5062 50.2875 17.1072 50.9297C17.1904 50.9297 17.2402 50.9791 17.3234 51.012C17.5062 50.7156 18.2045 50.271 17.9385 50.057C18.0715 49.8429 18.2377 49.7606 18.3707 49.5794C18.3707 49.6288 18.3209 49.6618 18.4206 49.6618C18.8529 49.316 19.1189 48.7891 19.5511 48.4104C19.6342 47.8505 20.2494 47.6364 20.2494 47.1589C20.0332 47.0766 20.0665 47.3401 19.8504 47.2907C20.0332 47.1095 20.1164 46.7637 20.3824 46.5497C20.4323 46.632 20.2494 46.7308 20.3325 46.7637C20.3325 46.5826 20.4156 46.7143 20.4655 46.8131C20.9476 46.0722 21.2136 45.2983 21.5628 44.4256C21.5129 44.4256 21.4298 44.4256 21.4298 44.3762V44.2938H21.6958C21.7456 44.0798 21.5628 43.948 21.7789 43.8163C21.8288 43.6846 21.596 43.7669 21.6459 43.6846C21.995 43.3882 22.3441 42.6472 22.3441 42.2191C22.2943 42.2685 22.3441 42.4002 22.261 42.3508C22.2111 42.3014 22.3109 42.1368 22.2111 42.1368C22.2111 42.2191 22.0781 42.1368 21.995 42.1862C21.995 42.4002 21.5628 42.6637 21.862 42.7131C21.33 43.4047 21.1638 44.442 20.6318 45.0019C20.6318 45.3477 20.5486 45.5617 20.2826 45.644C20.4156 45.4629 20.6318 45.0842 20.5486 44.9525C21.8953 42.1862 22.5603 39.4034 23.9568 36.7688C23.9069 36.9005 24.0066 36.9829 23.9568 37.1146C23.7739 37.1146 23.7739 37.411 23.7739 37.5098C23.9069 37.5592 23.8238 37.4275 23.9568 37.4604C23.9568 37.5427 23.9069 37.6415 23.8736 37.6744C23.8736 37.5921 23.8736 37.5427 23.7905 37.5427C23.5744 37.8062 23.6076 38.1026 23.5245 38.4154H23.5744C23.7573 38.4648 23.7074 38.2837 23.8404 38.2837L23.6575 38.4978V38.5471H23.6076C23.5578 38.6295 23.4746 38.7283 23.3416 38.7612C23.3416 38.8435 23.2918 38.9423 23.2086 38.9753C23.2585 38.9753 23.2918 39.0247 23.2585 39.0576C23.3915 38.9753 23.5578 38.9259 23.6076 39.0576L23.9069 38.152C23.857 38.152 23.857 38.2014 23.857 38.2343C23.724 38.1849 23.9069 38.152 23.857 38.1026H23.9401C24.2893 36.9829 24.6883 35.9455 25.0374 34.8093C24.8545 34.8093 24.8545 34.727 24.7714 34.6776C24.7215 34.727 24.7714 34.8587 24.6883 34.8587H24.6052C24.6052 34.5623 24.8213 34.4306 24.9543 34.2166C25.0873 34.1672 25.0873 34.266 25.2535 34.266C25.2868 33.8543 25.6359 33.5579 25.4198 33.2945ZM15.5943 51.9506C15.2951 51.7694 14.547 52.1646 14.1147 52.2964C14.7132 52.3787 15.0125 52 15.5943 51.9506ZM16.2427 50.8309H16.1596V50.9132H16.2427V50.8309ZM16.3757 50.8309C16.5087 50.8803 16.5919 50.8309 16.5919 50.6991C16.5087 50.7321 16.409 50.7321 16.3757 50.8309ZM17.1239 50.9955C16.8246 51.0449 16.7249 51.2919 16.4755 51.3907C16.4256 51.4401 16.4256 51.5224 16.4256 51.6048C16.7747 51.6542 16.5087 51.3084 16.8579 51.3907C16.8911 51.2096 17.074 51.1767 17.1239 50.9955ZM16.5087 50.6497C16.5586 50.6497 16.5586 50.6003 16.5586 50.6003H16.4589V50.6497H16.5087ZM17.0241 36.4066C17.074 36.4889 17.2901 36.456 17.2901 36.3572C17.207 36.3736 17.0241 36.2748 17.0241 36.4066ZM17.074 50.1722C17.1571 50.1722 17.2569 50.0405 17.207 49.9911C17.1571 50.0899 17.074 50.0405 17.074 50.1722ZM17.2901 36.3242C17.5062 36.3736 17.5062 36.1431 17.5894 36.0608C17.7722 36.1102 17.7722 36.0114 17.9385 36.0114C18.0216 35.929 17.8886 35.7479 18.0715 35.8302C18.0715 35.7808 18.1214 35.7808 18.1214 35.6985C17.7224 35.6985 17.6891 36.0443 17.34 36.1266C17.34 36.2419 17.34 36.2748 17.2901 36.3242ZM17.2901 50.8309H17.4231C17.3732 50.8803 17.3732 50.9626 17.2901 50.9626V50.8309ZM17.4231 49.6947V49.8264C17.5062 49.8758 17.5561 49.6618 17.4231 49.6947ZM18.1214 35.6326C18.2045 35.682 18.1712 35.8138 18.3042 35.8138C18.4871 35.5503 18.7864 35.3857 19.1355 35.2869C19.3516 35.0234 19.6675 34.8917 19.9667 34.6776C20.0499 34.5953 19.8836 34.4965 20.0166 34.4965C20.1496 34.4142 20.0166 34.5788 20.0997 34.5788C20.665 34.019 21.8121 33.7061 22.1114 33.1463C21.2303 33.5744 20.4988 34.1342 19.6176 34.5788C19.5677 34.6611 19.8005 34.7105 19.6675 34.7599C19.2685 34.8093 18.537 35.1881 18.537 35.5338C18.3541 35.5832 18.4871 35.4021 18.404 35.4515C18.3375 35.5503 18.2045 35.5503 18.1214 35.6326ZM18.2544 49.8264C18.2045 49.8758 18.2045 49.9582 18.1214 50.0076C18.2544 50.0405 18.4206 49.8264 18.2544 49.8264ZM18.3042 37.1969V37.2463H18.2544V37.3287H18.3042V37.2793H18.3541V37.1969H18.3042ZM18.5536 37.0158C18.5536 36.9664 18.6866 37.0158 18.6367 36.9335C18.6035 36.9335 18.5536 36.9664 18.5536 37.0158ZM19.4846 48.1798C19.1854 48.5256 18.8362 48.7891 18.6035 49.1678C18.5204 48.9867 18.7365 48.7726 18.9027 48.7397C18.8695 48.361 19.1687 48.2786 19.4846 48.1798ZM18.6035 48.1798C18.6035 48.2292 18.6035 48.2622 18.6866 48.2622C18.6866 48.1798 18.6534 48.1798 18.6035 48.1798ZM24.4555 33.3439C24.3225 33.3439 24.1563 33.3439 24.0565 33.2615C23.4414 33.8708 22.527 34.1342 21.8288 34.5953C21.8288 34.6447 21.9119 34.6447 21.9119 34.6776C21.7789 34.6282 21.8288 34.7599 21.8288 34.8093C21.6958 34.727 21.6126 34.9411 21.4796 34.8093C20.7315 35.2869 20.1164 35.8961 19.335 36.2748C19.3849 36.4889 19.069 36.4559 18.9859 36.5383C18.9859 36.7194 18.803 36.7523 18.6866 36.8017C18.7697 36.8017 18.8695 36.8017 18.9526 36.8511C20.6151 35.5009 22.66 34.5129 24.4555 33.3439ZM18.8695 47.7517C18.9194 47.8834 18.6866 47.7517 18.7365 47.8834C18.6534 47.9658 18.7697 47.7023 18.8695 47.7517ZM19.4347 48.0975V48.1798C19.3849 48.1304 19.3849 48.1304 19.3516 48.1304V48.081C19.3017 48.0316 19.3017 47.9493 19.1687 47.9987C19.1687 47.9164 19.3516 47.9493 19.4347 47.9493C19.4347 47.9987 19.3017 47.9493 19.3516 48.081H19.4347V48.0975ZM19.4347 46.8461C19.4347 46.7637 19.4846 46.7143 19.5677 46.7637C19.5179 46.7637 19.5179 46.8461 19.4347 46.8461ZM19.9501 47.0601C19.6841 46.9778 19.6841 47.1425 19.601 47.2742C19.335 47.2248 19.867 46.9778 19.601 46.9284C19.601 46.8461 19.8171 46.9778 19.7839 46.7967C19.867 46.7967 19.867 47.0107 20 46.879C20.0831 46.879 19.9169 46.9778 19.9501 47.0601ZM19.7007 46.632H19.6509V46.5497H19.734C19.734 46.5826 19.7007 46.5826 19.7007 46.632ZM20.4323 46.9284C20.2993 46.9778 20.2161 47.0107 20.1663 47.1095C20.2494 47.1589 20.2992 47.0601 20.3824 47.0601C20.399 47.0107 20.399 46.9778 20.4323 46.9284ZM20.2992 45.7593H20.4323C20.4323 45.8416 20.3824 45.891 20.2992 45.891V45.7593ZM20.4821 46.2368C20.5653 46.2368 20.6151 46.2862 20.665 46.2862C20.5819 46.418 20.532 46.5497 20.399 46.5497C20.3491 46.3686 20.532 46.4015 20.4821 46.2368ZM20.399 41.6428H20.4821C20.4821 41.6922 20.4323 41.6922 20.4323 41.7251H20.3824V41.6428H20.399ZM22.0948 42.5978C22.0449 42.5978 22.0449 42.5484 21.9618 42.5484C22.0116 42.499 22.0449 42.499 22.0449 42.4167C22.0948 42.4661 22.0948 42.5155 22.0948 42.5978ZM22.3109 33.031C22.1779 33.0804 22.0948 33.1133 22.2278 33.2451C22.2776 33.2121 22.2776 33.0804 22.3109 33.031ZM22.7099 41.1323C22.5769 41.4287 22.527 41.4781 22.527 41.7416C22.394 41.7416 22.4439 41.6098 22.3109 41.6098C22.1779 41.6922 22.128 41.8239 22.1779 42.005C22.261 41.9556 22.261 41.7416 22.3109 41.7086C22.3109 41.8404 22.394 41.8898 22.4439 41.9721C22.394 41.9721 22.2278 41.8898 22.261 42.0215C22.261 42.1038 22.4439 42.0215 22.4439 42.1038C22.5436 41.7745 22.926 41.3464 22.7099 41.1323ZM22.3608 33.031C22.4106 33.0804 22.3109 33.2121 22.4938 33.1133C22.5769 33.0639 22.6766 32.9816 22.8429 32.9816C22.8928 32.9322 22.8429 32.7675 22.8928 32.8005C22.9426 32.8005 22.9759 32.8005 22.9759 32.7511C22.8429 32.7017 22.7598 32.7511 22.6268 32.7511C22.6268 32.8993 22.4938 32.9816 22.3608 33.031ZM22.66 40.8689C22.7099 40.8689 22.7431 40.6054 22.7099 40.6054C22.66 40.6548 22.4938 40.8689 22.66 40.8689ZM22.7598 42.5978H22.6268C22.6268 42.6472 22.5769 42.7789 22.6268 42.7789C22.6268 42.6472 22.793 42.7295 22.7598 42.5978ZM23.192 40.1279C23.059 40.0785 23.1421 40.309 23.0091 40.2596C23.0091 40.1773 23.1421 40.0785 23.0091 40.0785C22.9593 40.1608 22.8761 40.0291 22.8263 40.0291C22.8263 40.2432 22.6434 40.2432 22.6933 40.4243C22.8761 40.5066 22.8761 40.342 22.9925 40.3749C23.0424 40.556 22.8595 40.4572 22.8595 40.5889C22.9426 40.5889 22.9925 40.5889 22.9925 40.6383C23.059 40.4408 23.192 40.3914 23.192 40.1279ZM23.0091 32.7675C23.1421 32.8169 23.2751 32.6852 23.1421 32.6358C23.1421 32.6852 22.9759 32.6358 23.0091 32.7675ZM23.591 39.2223C23.325 39.3046 23.3749 39.6998 23.059 39.7492C23.1089 39.8315 23.0091 39.9632 23.1421 39.9632C23.3749 39.7821 23.4081 39.4363 23.591 39.2223ZM23.3749 39.2717C23.325 39.2223 23.325 39.1399 23.192 39.1399C23.1421 39.1893 23.1089 39.4034 23.192 39.4363C23.1421 39.3046 23.3749 39.4034 23.3749 39.2717ZM23.2419 32.7346H23.325V32.6852H23.2419V32.7346ZM23.5411 38.4813C23.4913 38.4813 23.4913 38.5307 23.458 38.5307C23.4913 38.5307 23.4913 38.5307 23.5411 38.4813ZM23.5411 32.5535C23.5411 32.4711 23.6243 32.5041 23.6243 32.4218C23.5411 32.4218 23.458 32.5535 23.5411 32.5535ZM23.6243 38.2343H23.7573C23.7074 38.2343 23.7074 38.2837 23.7074 38.2837H23.6243V38.2343ZM23.8903 37.8391C23.8903 37.9214 23.8903 38.0202 23.7573 38.0202C23.8071 37.8885 23.7074 37.8885 23.8071 37.8062C23.8404 37.7897 23.8404 37.8391 23.8903 37.8391ZM23.8903 39.2223C23.8903 39.2717 23.8903 39.3046 23.8404 39.354C23.9401 39.4363 23.9734 39.2223 23.8903 39.2223ZM24.0233 37.1475V37.0652C24.1563 37.0158 24.1064 37.2299 24.0233 37.1475ZM24.2893 36.8347C24.0233 36.8347 24.0731 36.7029 24.0731 36.5383C24.123 36.6206 24.2061 36.5877 24.256 36.5877C24.0731 36.7194 24.2394 36.7523 24.2893 36.8347ZM24.3225 36.3736C24.3225 36.423 24.2394 36.423 24.2394 36.4559C24.1064 36.5053 24.1895 36.3242 24.0565 36.3736C24.1396 36.1925 24.0565 36.0772 24.2394 35.9455C24.4555 35.929 24.1064 36.3736 24.3225 36.3736ZM24.0731 36.5383V36.4889C24.1064 36.4066 24.1064 36.4889 24.0731 36.5383ZM24.5387 35.4515V35.5832C24.3724 35.5832 24.4223 35.4186 24.5387 35.4515ZM24.6384 34.8917C24.6883 34.8917 24.6883 34.9411 24.7714 34.9411C24.5885 34.9905 24.7215 35.3363 24.5054 35.2869C24.5387 35.1551 24.7215 35.0728 24.6384 34.8917ZM24.5885 33.2451C24.7714 33.2945 24.8047 33.1627 24.9875 33.1957C24.9875 33.1463 25.1205 33.0145 25.0374 32.9816C24.9377 33.1133 24.7215 33.1627 24.5885 33.2451ZM24.7714 33.0804C24.9044 33.031 24.9875 32.9981 25.0374 32.8993C24.8545 32.8663 24.8047 32.9816 24.7714 33.0804ZM24.9875 15.1159V15.0665H25.0707C25.0208 15.0665 25.0208 15.1159 24.9875 15.1159ZM25.1205 35.7973H25.0374V35.8467H25.1205V35.7973ZM25.1205 35.8961H25.0374V35.9784H25.0873C25.0707 35.929 25.0707 35.929 25.1205 35.8961ZM25.2037 34.4142H25.1205V34.4636H25.1704C25.1538 34.4636 25.1538 34.4142 25.2037 34.4142ZM25.2037 35.2045V35.3363H25.3367C25.3699 35.2375 25.2535 35.2045 25.2037 35.2045ZM25.3699 34.8093C25.3699 34.8093 25.32 34.8587 25.2868 34.8587C25.2369 34.9411 25.2868 34.9905 25.3367 35.0399C25.2868 35.0399 25.2535 35.0399 25.2535 35.1222C25.3699 35.1057 25.4697 34.8587 25.3699 34.8093ZM25.5029 14.9841C25.5029 14.9018 25.6359 14.9347 25.6359 14.8524C25.0707 14.8524 25.6858 14.7207 25.8188 14.803C25.6858 14.803 25.7357 14.8524 25.8188 14.8524L25.7357 14.9347C25.6858 14.9347 25.6027 14.9841 25.5029 14.9841ZM25.852 33.1133C25.6692 33.4591 25.4198 33.8872 25.5528 34.2001C25.6359 34.0684 25.6858 33.9037 25.8188 33.8543C25.719 33.6402 25.985 33.3439 25.852 33.1133ZM25.8188 14.803C25.8687 14.803 25.9518 14.7536 26.0349 14.803C25.9518 14.8524 25.852 14.8524 25.8188 14.8524V14.803ZM25.985 30.8245C26.0349 30.9563 26.0682 30.9563 25.985 31.0386C25.9019 31.0057 25.9518 30.9563 25.985 30.8245ZM26.0349 30.7751V30.5611H26.1679C26.0848 30.6105 26.1679 30.8245 26.0349 30.7751ZM26.384 14.5889C26.7332 14.7207 27.3483 14.3255 27.6974 14.4078C27.3815 14.5395 26.7332 14.9018 26.384 14.5889ZM29.3101 23.2501C29.4431 23.3325 29.4431 23.1678 29.3101 23.2007C28.3458 25.8353 27.1654 29.0956 26.5503 31.5161C27.1155 30.8245 27.0823 29.7378 27.5977 29.1285C27.3815 28.7333 27.8637 28.3546 28.0299 27.8277C28.1131 27.5313 27.9468 27.2185 28.2959 27.0867C28.6451 25.8682 28.9443 24.5345 29.4264 23.3654C29.4431 23.2995 29.2602 23.3819 29.3101 23.2501ZM26.7332 28.2229V28.3052C26.65 28.3217 26.6833 28.2723 26.7332 28.2229ZM26.8662 27.9265C26.9493 27.9265 26.8163 28.1076 26.783 28.0582C26.7332 27.9759 26.8662 28.0582 26.8662 27.9265ZM27.8637 14.4243C27.9135 14.2432 28.2128 14.2926 28.3957 14.2432C28.2627 14.4572 28.0465 14.2926 27.8637 14.4243ZM28.4289 14.2926C28.3791 14.0785 28.6451 14.2102 28.7282 14.1114C28.7448 14.2926 28.5619 14.2926 28.4289 14.2926ZM28.5619 22.2457C28.5121 22.1963 28.5619 21.9822 28.6949 22.0316C28.6949 22.1634 28.5619 22.081 28.5619 22.2457ZM28.8279 14.1938C28.8778 14.1114 29.0108 14.1444 29.1272 14.1444C29.0939 14.1938 28.9609 14.1938 28.8279 14.1938ZM29.1771 20.6485L29.3101 20.7802C29.3101 20.7308 29.3101 20.7308 29.3599 20.7308C29.3599 20.6485 29.4929 20.4344 29.3101 20.4674C29.3101 20.5661 29.2269 20.5661 29.1771 20.6485ZM29.5262 22.9867H29.4431V23.069C29.4431 23.069 29.4929 23.1184 29.5262 23.1184V22.9867ZM32.1529 14.1938H32.0698V14.2761H32.1197C32.153 14.2432 32.1529 14.2432 32.1529 14.1938ZM32.9842 14.8524C33.0673 14.7701 33.3832 14.803 33.3333 14.7701H33.0341C33.0341 14.803 33.0341 14.803 32.9842 14.8524ZM33.6326 14.7207H33.4497V14.7701H33.6326V14.7207ZM33.6326 14.0785C33.6326 14.2596 33.9318 14.0291 34.1147 14.1279C34.0815 13.9468 33.6825 14.1608 33.6326 14.0785ZM34.1646 14.6713H34.0815V14.7536H34.1646V14.6713ZM34.4638 14.0291C34.3807 14.0785 34.2477 13.9797 34.1978 14.0785C34.2976 14.0291 34.4306 14.1114 34.4638 14.0291ZM37.1737 14.5395C36.1762 14.5395 35.3782 14.4902 34.547 14.7207C35.5112 14.5889 36.4422 14.7207 37.1737 14.5395ZM34.9127 14.0291H34.9958V13.9468H34.9127V14.0291ZM35.345 13.9797C35.3948 13.9303 35.5278 14.0291 35.5278 13.9303C35.478 13.9468 35.345 13.8974 35.345 13.9797ZM35.7772 13.9797C35.8603 13.9797 35.9102 13.9797 35.9102 13.9303C35.8603 13.9468 35.7772 13.8974 35.7772 13.9797ZM35.9933 13.9468C36.0432 13.9962 36.0765 13.9962 36.1762 13.9962V13.8644C36.0931 13.848 36.0432 13.9468 35.9933 13.9468ZM37.0407 13.848C36.9909 13.9797 37.1239 13.9797 37.2236 13.9797C37.2735 13.848 37.1737 13.848 37.0407 13.848ZM37.3899 14.5395C37.34 14.5395 37.3067 14.5395 37.2569 14.5889C37.34 14.5889 37.3067 14.6713 37.3899 14.6713V14.5395ZM37.3566 13.9797H37.4896C37.5395 13.9797 37.5395 13.9303 37.5395 13.9303C37.4564 13.9303 37.4065 13.8809 37.3566 13.8809V13.9797ZM37.5727 14.5395H37.4896V14.5889H37.5727V14.5395ZM37.5229 13.9797C37.606 13.9797 37.7057 13.9797 37.7889 14.0291V13.9468H37.5727L37.5229 13.9797ZM38.271 14.5395C38.0549 14.5889 37.872 14.5889 37.739 14.5889C37.872 14.7207 38.1879 14.7207 38.271 14.5395ZM38.6201 14.6383C38.4372 14.6383 38.4372 14.6383 38.3209 14.5889C38.2211 14.7701 38.6201 14.7207 38.6201 14.6383ZM39.8836 14.7207C39.6675 14.7701 38.9692 14.5889 38.7531 14.6713C39.1521 14.803 39.6342 14.803 40.0665 14.803C39.9834 14.7701 39.9834 14.7207 39.8836 14.7207ZM38.803 14.1114H38.8529V14.0291H38.803V14.1114ZM39.0524 14.1114C39.1022 14.1938 39.4514 14.3255 39.5345 14.1114C39.3184 14.1608 39.1854 13.9797 39.0524 14.1114ZM39.7506 14.2432H39.8836V14.1608H39.7506V14.2432ZM40.9809 14.5395C40.798 14.2761 40.2327 14.3255 39.9335 14.1444V14.3255C40.3325 14.3255 40.6816 14.4572 40.9809 14.5395ZM41.1638 14.4572H41.064V14.5395H41.1471V14.4572H41.1638ZM41.2469 14.5395C41.2968 14.6713 41.6459 14.6219 41.729 14.6713C41.6293 14.5889 41.4131 14.5889 41.2469 14.5395Z" fill="#B11B1B"/>
<path d="M34.0316 33.9037C34.0316 33.2945 34.3308 32.817 34.3807 32.3065C34.4638 32.2571 34.4638 32.3559 34.5137 32.3559C34.5636 32.3065 34.5968 32.2736 34.5968 32.1748C34.5968 32.0924 34.414 32.2242 34.414 32.1254C34.547 31.7302 34.4638 31.2197 34.7631 31.0057C34.68 30.7916 34.8462 30.6105 34.813 30.3964C34.946 30.4458 34.946 30.347 35.0291 30.347C34.7631 29.9519 35.212 29.3097 35.2951 28.8322C35.4281 28.8322 35.4281 28.651 35.5611 28.6181C35.5611 28.4864 35.478 28.5687 35.3782 28.5687C35.3782 28.4864 35.4281 28.437 35.4281 28.3546C35.5112 28.3052 35.5112 28.404 35.5611 28.404C35.611 28.404 35.5611 28.3546 35.611 28.3217C35.611 28.2723 35.5279 28.3711 35.5279 28.2723C35.5777 28.1406 35.611 28.2229 35.7107 28.0912C35.3616 27.8771 35.9269 27.3996 35.9767 27.1032C35.8936 27.1855 35.9269 27.3173 35.7606 27.3173C35.9435 27.0538 35.8936 26.6751 36.1596 26.494L36.2095 26.4446C36.1596 26.4446 36.1264 26.4446 36.1264 26.494C35.9934 26.4116 36.2095 26.2799 36.2095 26.1482C36.5087 26.2305 36.4755 25.6707 36.6916 25.5389C36.6417 25.4895 36.6085 25.4566 36.5087 25.4895C36.4589 25.4072 36.6916 25.4895 36.6417 25.4072C36.6916 25.2755 36.5586 25.3578 36.4589 25.3578C36.4589 25.2261 36.5919 25.2261 36.542 25.1437C36.6251 25.0944 36.5919 25.1931 36.675 25.1931C36.7249 25.1931 36.675 25.1108 36.675 25.0614C36.7249 25.012 36.7249 25.0614 36.7581 25.1108C36.7581 25.1108 36.7581 25.0614 36.808 25.0285C36.675 24.8474 36.7249 24.6333 36.941 24.5016C36.8911 24.4522 36.8579 24.4522 36.808 24.4522C36.808 24.3698 36.8911 24.3698 36.8911 24.271C36.941 24.271 36.941 24.3534 36.9742 24.3534C37.0241 24.2216 37.1571 24.1393 37.1072 23.9582C37.1571 23.9582 37.1571 24.0076 37.1904 24.0076V23.9253C37.2735 23.8429 37.2735 23.6618 37.3234 23.5301H37.1904C37.2402 23.5301 37.2402 23.4807 37.2402 23.4477C37.2901 23.4477 37.2901 23.4971 37.3732 23.4971C37.4564 23.4148 37.3234 23.3654 37.2901 23.2831C37.3732 23.2831 37.4231 23.3325 37.4231 23.2337C37.207 23.1843 37.606 22.7562 37.5561 22.5421C37.6891 22.4598 37.606 22.6738 37.6891 22.6244C37.6891 22.5421 37.739 22.4104 37.8221 22.4104C37.8221 22.328 37.6392 22.4104 37.6392 22.4927C37.5894 22.4104 37.6891 22.1963 37.8221 22.1963C37.7722 22.0152 37.8221 21.8999 37.9551 21.8505C37.9551 21.7188 37.9551 21.6365 38.005 21.5871C38.0549 21.5871 38.005 21.7682 38.0881 21.8011C38.271 21.7188 38.138 21.5871 38.138 21.4553C38.1879 21.4553 38.2211 21.4553 38.271 21.4059C38.0549 21.1919 38.404 20.8461 38.4539 20.5826C38.537 20.5826 38.5869 20.5332 38.6367 20.5826C38.5869 19.9405 39.069 19.4959 39.1688 18.8537C39.2519 18.8537 39.2519 18.9031 39.2519 18.936C39.335 18.8866 39.2519 18.8043 39.2519 18.722C40.8313 15.9886 42.1779 13.0906 44.4057 10.8841C44.4057 10.8347 44.4057 10.8018 44.3558 10.8018C44.4389 10.6206 44.8379 10.7194 44.7548 10.456C45.2369 10.456 45.5362 9.715 46.0682 10.0279C46.5004 9.89613 46.7165 10.209 46.9825 10.1596C47.3317 10.3407 47.5977 10.5877 47.9468 10.6865C48.3791 11.2134 48.5619 12.0367 48.5121 12.6789C48.5952 13.2387 48.2959 13.6669 48.1131 14.1115C48.4123 15.2805 47.8471 16.0215 47.5811 16.7954C47.4481 16.7954 47.4979 16.9272 47.3982 16.8778C47.4813 17.4376 46.9659 17.5199 47.1322 18.1292C46.783 18.8702 46.65 19.5617 46.4339 20.3356C46.1679 21.4224 45.2535 22.2457 44.9044 23.2831C44.2893 23.8429 44.2893 24.8474 43.7739 25.4401C43.8238 25.6542 43.724 25.7859 43.591 25.8683C43.2419 27.0868 42.5935 28.0253 41.9285 28.9804C41.5295 30.0671 40.931 30.9728 40.133 31.7137C40.133 32.0101 39.8338 32.1418 39.601 32.2736C39.0357 33.3109 38.0715 34.0849 37.2901 35.007C36.5087 35.5668 35.8105 36.3901 36.0266 37.6415C36.1596 37.6415 36.0765 37.5098 36.1596 37.5098C36.1596 37.5921 35.9767 37.8062 36.0266 38.0367C36.675 37.164 37.3899 36.3078 38.0382 35.4021C40.3491 33.3274 41.8454 30.594 44.8213 28.9474C44.7714 28.9474 44.7382 28.9474 44.7382 28.8651C45.2203 28.7334 46.0515 28.5687 45.9185 29.1615C46.1347 29.1615 46.1845 29.0792 46.3508 29.1121C46.3508 29.1944 46.4339 29.1944 46.4339 29.3261C46.9992 29.3261 47.182 29.8531 47.4314 30.2812C47.4813 30.3635 47.5146 30.2318 47.5644 30.2812C47.9136 30.8904 47.7473 31.6643 47.6476 32.1418C47.2486 34.48 44.4057 39.8974 45.2037 40.4572C46.2012 40.6713 47.3815 39.0741 49.4431 36.7359C49.3932 36.6536 49.4929 36.6536 49.4431 36.5548C49.7423 36.2913 50.0582 36.0772 50.1912 35.6821C50.2411 35.6821 50.2743 35.7315 50.2743 35.7644C50.5403 35.2045 51.1056 34.8588 51.3716 34.2989C51.6376 34.2989 51.6376 34.0849 51.9036 34.0849C51.9036 33.9037 51.7706 34.0025 51.7706 33.8708C51.9036 33.8214 51.8537 33.8708 51.9867 33.8708C51.9867 33.7391 51.8537 33.8214 51.9036 33.7391C52.2028 33.6897 52.0366 33.4756 52.2028 33.3933C52.286 33.525 52.153 33.6897 52.153 33.7885C52.3358 33.8379 52.3691 33.525 52.552 33.4921C52.552 33.5415 52.3691 33.6732 52.5021 33.7061L52.3192 33.9202C52.3691 33.9202 52.3691 33.9696 52.3691 33.9696H52.286C51.754 34.5788 51.1887 35.0893 50.8396 35.7809C50.1912 36.2584 49.0939 38.3331 48.5619 38.893C48.5619 38.9753 48.6118 38.9424 48.6451 38.9753C48.9443 38.7118 49.9917 37.0652 50.2577 36.7688C50.3408 36.6865 50.3076 36.8512 50.3907 36.8512C50.4406 36.8018 50.4406 36.7194 50.3907 36.6371C50.5237 36.7688 50.6068 36.5548 50.6068 36.456C50.7398 36.5383 50.8728 36.3242 50.9559 36.1925C50.9559 36.1102 50.9061 36.1102 50.823 36.1102C50.7731 36.0279 50.8728 36.0279 50.823 35.9291C51.0058 35.8797 51.0058 35.8797 51.1222 35.9291C51.7373 35.1881 52.4688 34.5953 52.8346 33.7226C53.2668 33.5415 53.2668 33.0804 53.6658 32.9487C53.3167 34.1178 52.2693 34.727 51.7373 35.7644C52.3525 35.3363 52.7847 34.5953 53.2668 34.0355C53.2668 34.0849 53.3167 34.0849 53.35 34.0849C53.1671 34.2989 53.1671 34.6118 53.1671 34.8258C52.818 35.2539 52.7348 35.8632 52.3857 36.3407C51.7706 36.9829 50.4572 39.107 49.9751 39.8974C50.0249 39.9468 50.1081 39.8974 50.1579 39.848C50.0249 40.1938 49.5428 40.4572 49.3267 40.7536C48.5786 41.3629 46.9659 42.6143 45.8687 42.746C45.8188 42.6637 45.6525 42.6966 45.5195 42.6966C44.4722 42.4002 43.8072 42.6143 43.2419 41.7087C41.7623 40.4572 43.325 35.3857 44.0233 34.1836C44.1563 33.064 44.8545 32.323 44.9875 31.1539C44.0233 31.8455 43.1089 32.6194 42.5436 33.6567C42.4106 33.525 42.4106 33.7885 42.2444 33.7391C42.1945 33.8708 42.3275 33.8214 42.3275 33.9202C41.5794 34.3483 41.2303 35.0399 40.6151 35.5668C39.6509 36.5548 38.7365 37.6415 37.9884 38.86C37.7722 38.9918 37.7722 39.2552 37.5894 39.3869C37.6392 39.4693 37.6392 39.3375 37.7224 39.3869C37.7722 39.5187 37.5894 39.5187 37.5894 39.601C37.5395 39.601 37.5894 39.5187 37.5062 39.5187C37.3732 39.6504 37.207 39.8151 37.2402 40.0785C37.0241 40.2102 36.9742 40.3749 36.808 40.5066C36.276 41.4617 35.5777 42.285 35.3616 43.487C35.2286 43.6681 35.4115 43.8328 35.4447 44.0139C35.3616 44.6232 34.3142 44.4914 34.0981 44.0633C33.7988 44.1127 33.6991 43.8493 33.5661 43.6352C33.483 43.6846 33.4331 43.5858 33.35 43.6352C33.1671 43.4211 33.1671 42.993 32.8678 42.993C32.8678 42.8613 32.818 42.8119 32.818 42.6966H32.8678C32.818 42.6472 32.7348 42.5155 32.8678 42.5155C32.7847 42.4661 32.7847 42.3344 32.7348 42.252C32.951 42.252 32.7847 41.9886 32.7348 41.9557C32.951 41.5275 32.6517 40.7042 32.951 40.309C32.8678 39.2223 33.1338 37.9709 33.3001 36.9829C33.2502 36.5054 33.4331 35.7644 33.5162 35.2045C33.5993 35.1222 33.5661 35.2539 33.6991 35.2539C33.749 35.1716 33.6991 35.0728 33.7822 35.0399L33.6492 34.8588C33.9485 34.7764 33.9485 34.4636 33.9485 34.1672C33.8653 34.1672 33.9983 34.3483 33.8155 34.2989C33.9485 34.48 33.7656 34.5624 33.7656 34.727C33.7323 34.4636 33.8155 34.0684 34.0316 33.9037C34.0316 33.9861 34.0815 34.0849 34.0316 34.0849C34.0316 34.1342 34.0815 34.1342 34.0815 34.1672C34.1313 34.0849 34.0815 33.8708 34.2643 33.8708C34.1812 33.8708 34.1812 33.7885 34.1812 33.6567C34.1812 33.5744 34.2311 33.5744 34.2643 33.525C34.1313 33.4756 34.1313 33.6567 34.1812 33.6567C34.1147 33.7226 34.1147 33.8543 34.0316 33.9037ZM33.6326 35.0728C33.5827 35.0234 33.5827 34.9905 33.5827 34.9905C33.6326 34.9905 33.6658 34.9411 33.6658 34.9411C33.7157 34.9905 33.7157 35.0234 33.7157 35.0728H33.6326ZM33.8487 35.9291C33.7157 35.9785 33.7157 36.0608 33.7157 36.1925C33.8155 36.1431 33.8155 36.0279 33.8487 35.9291ZM34.2976 33.8543C34.1646 34.3812 33.9485 34.8423 33.8653 35.4186C34.0815 35.3692 33.9983 35.1222 34.2145 35.0728C34.2145 34.4306 34.6467 33.6897 34.5636 33.2615C34.3807 33.2451 34.4306 33.6897 34.2976 33.8543ZM34.2976 36.1925C34.2477 36.1925 34.2477 36.1431 34.1646 36.1925C34.2145 36.3736 34.0815 36.5383 34.2145 36.67C34.1978 36.4889 34.1978 36.3242 34.2976 36.1925ZM34.5137 32.5206H34.4306C34.3807 32.6029 34.3807 32.7017 34.3807 32.817C34.4638 32.7346 34.4306 32.6029 34.5137 32.5206ZM34.7298 35.0234C34.7298 34.8917 34.6467 34.9411 34.547 34.9411C34.5968 35.0728 34.3308 35.2045 34.547 35.2045C34.5137 35.0728 34.6467 35.0728 34.7298 35.0234ZM34.5968 32.4712C34.6467 32.6523 34.5137 32.7346 34.547 32.8993C34.7298 32.8664 34.813 32.4712 34.5968 32.4712ZM34.7298 34.2824H34.6467C34.5968 34.4142 34.6467 34.4636 34.6467 34.5788C34.68 34.513 34.7797 34.4636 34.7298 34.2824ZM35.478 31.5655C35.6609 31.3844 35.5611 31.0386 35.7772 30.9563C35.8271 30.0013 36.2594 29.4908 36.2594 28.5358C36.6916 28.1406 36.6085 27.3173 37.0075 26.8892C36.8745 26.5928 37.1405 26.494 37.1904 26.247C36.8412 26.1646 37.1072 26.7245 36.7581 26.7739C36.3591 28.1241 35.9767 29.4085 35.6276 30.8081C35.4946 30.8081 35.4115 30.8081 35.4115 30.9398C35.4614 31.0222 35.5445 30.8081 35.5944 30.9398C35.5445 31.0222 35.3782 31.0222 35.4115 31.2033C35.5944 31.2033 35.3284 31.5491 35.4614 31.6314L35.2785 31.7137C35.2286 31.7961 35.3283 31.7631 35.3616 31.8455C35.2286 31.8455 35.3616 32.1089 35.1787 32.1089C35.1787 32.4053 35.2286 32.8499 34.9127 32.8499C34.9127 33.064 34.9127 33.1463 35.0457 33.2451C34.9127 33.2451 34.9958 33.4262 34.9127 33.4262C34.8628 33.4262 34.9127 33.3439 34.8296 33.3768C34.8795 33.4591 34.6966 33.4591 34.7465 33.5909C34.9626 33.6403 34.7465 33.7226 34.8296 33.9367C34.9626 33.8873 34.8795 33.7226 35.0457 33.6732C34.9127 33.278 35.3117 33.1463 35.1787 32.6852C35.3616 32.5535 35.3948 32.29 35.3948 31.9443C35.5611 31.8619 35.5112 31.6973 35.478 31.5655ZM34.813 34.0355H34.7298V34.2166C34.8628 34.2001 34.813 34.1178 34.813 34.0355ZM34.8628 33.0804V33.1627H34.9127C34.9127 33.1133 34.9127 33.0804 34.8628 33.0804ZM35.0291 31.1703C35.1621 30.8246 35.2452 30.4294 35.3284 30.0836C35.1288 30.2976 35.0291 30.874 35.0291 31.1703ZM35.2951 30.0507H35.3782C35.3782 30.0013 35.3782 29.9189 35.3284 29.9189C35.3782 30.0013 35.212 29.9519 35.2951 30.0507ZM35.3782 29.8366C35.4281 29.7872 35.4614 29.7543 35.4614 29.6555C35.3782 29.6555 35.3782 29.8695 35.3782 29.8366ZM35.478 29.3097C35.478 29.3591 35.478 29.4908 35.5611 29.4414C35.5611 29.3591 35.5112 29.3097 35.478 29.3097ZM35.5112 29.2273C35.8105 29.0462 35.6442 28.4864 35.9435 28.2723C35.8936 27.8771 36.1596 27.6631 36.1596 27.2843C37.074 25.4731 37.5561 23.3489 38.6035 21.6529C38.9027 20.5662 39.3516 19.5782 39.867 18.6726C39.867 18.5902 39.867 18.4914 39.8171 18.4585C40.4323 17.6846 40.7315 16.7296 41.3466 15.9886C41.2635 15.8075 41.3965 15.9886 41.3466 15.7745C41.8288 15.4781 42.128 14.8689 42.2278 14.4408C42.4106 14.3584 42.4439 14.309 42.3608 14.1773C42.4106 14.1279 42.4439 14.1773 42.4938 14.1773C42.4439 13.8809 42.793 13.7492 42.7099 13.5351C41.5794 15.2311 40.532 16.9601 39.5678 18.722C38.9194 20.3686 38.1214 21.9329 37.473 23.563C37.34 23.6453 37.2901 23.7771 37.34 23.9911C36.6085 25.6707 35.9934 27.4984 35.5112 29.2273ZM37.739 37.3122C37.6559 37.0158 37.9551 36.9664 38.0382 36.7853C37.9551 36.7853 37.9052 36.9664 37.8221 36.8676C37.9052 36.8182 37.872 36.6865 37.9551 36.6865C38.0382 36.6865 38.005 36.7688 38.0881 36.7359C38.5204 36.0443 39.0856 35.4845 39.5678 34.8258C39.5179 34.8258 39.4846 34.9576 39.4348 34.8752C39.5678 34.8258 39.5678 34.6941 39.7008 34.6612C39.9169 34.7929 40.1829 34.266 40.133 34.1342C40.266 34.0519 40.2161 34.2166 40.3159 34.1836C40.5819 33.9202 40.798 33.5744 41.1471 33.3603C41.1471 33.3109 41.1471 33.278 41.0973 33.278C41.1804 33.3274 41.2303 33.1957 41.3134 33.1957C41.3633 32.9816 41.5794 32.8993 41.7456 32.7676L41.9285 32.4712L41.8786 32.4218L41.9285 32.3724H41.9784V32.4547C42.3774 31.9772 42.9426 31.582 43.0757 31.1045C43.1255 30.9728 43.2087 30.9234 43.2585 30.8081C43.4414 30.8904 43.3915 30.7258 43.6077 30.7258C43.6077 30.6764 43.5578 30.594 43.6077 30.594C44.0067 30.594 44.0898 30.1165 44.4888 30.0671C44.5387 29.9848 44.4888 29.886 44.5387 29.8531C44.8379 29.7707 44.8047 29.7213 45.0707 29.5567C45.0707 29.5073 45.0707 29.3755 45.0208 29.3755C45.0208 29.4579 44.8047 29.4579 44.8047 29.4249C44.9875 29.3755 44.8047 29.3755 44.8545 29.3426C44.7714 29.392 44.6384 29.3426 44.6717 29.4249C44.7215 29.4249 44.7548 29.4249 44.8047 29.4743L44.7215 29.5567C44.7215 29.5073 44.6717 29.5073 44.6717 29.4249C44.5885 29.5073 44.4057 29.5567 44.3724 29.639C44.4555 29.639 44.6384 29.5567 44.6717 29.5896L44.2394 29.8531C44.1895 29.7213 44.4223 29.7707 44.3724 29.639C44.1895 29.6884 44.1563 29.7213 44.1064 29.8201C44.1563 29.7707 44.1563 29.9025 44.1895 29.9025C43.7074 30.1988 43.3084 30.6434 42.8761 30.8575C42.926 30.8575 42.926 30.9069 42.926 30.9398C42.8429 30.9398 42.7431 31.0716 42.66 30.9892C42.6101 31.1703 42.6101 31.2033 42.394 31.2527C42.394 31.335 42.4439 31.3844 42.394 31.3844C42.261 31.3021 42.261 31.5161 42.128 31.4667C42.0781 31.6808 41.9119 31.8619 41.729 31.9937C41.7789 32.1748 41.6459 32.29 41.3799 32.29C41.3799 32.4218 41.197 32.4712 41.3799 32.5535C41.197 32.6852 41.0806 32.9487 40.8479 32.9816C40.931 33.031 40.798 33.1133 40.8479 33.1627C40.7648 33.2945 40.6318 33.1627 40.6318 33.1627C40.6318 33.2451 40.6816 33.2451 40.6816 33.2945C40.5985 33.2945 40.5985 33.3768 40.5486 33.3768C40.4988 33.2945 40.6318 33.3274 40.5985 33.2451C40.5154 33.3768 40.2993 33.4262 40.3325 33.6403C40.2494 33.5909 40.1995 33.7226 40.1164 33.7226C40.1663 33.9367 39.9335 33.8543 40.0665 34.019C39.8836 34.019 39.9335 34.2001 39.8005 34.233C39.8005 34.1836 39.8005 34.1013 39.7506 34.1013C39.7506 34.1836 39.7506 34.1836 39.6675 34.1836C39.7174 34.3977 39.6176 34.5294 39.4846 34.4471C39.4846 34.4965 39.4846 34.5788 39.4348 34.5788C39.3516 34.6612 39.3849 34.4965 39.3017 34.5294C39.3017 34.7106 38.9027 34.7929 39.1189 34.9246C39.0357 34.974 38.9859 34.974 38.9027 34.974C38.9027 35.1057 39.0357 34.974 39.0357 35.0564C38.9859 35.0564 38.9859 35.1057 38.9859 35.1387C38.8529 35.0564 38.8529 35.1881 38.7199 35.221C38.803 35.221 38.8529 35.3527 38.803 35.4021C38.7531 35.2704 38.5869 35.4845 38.537 35.5339V35.4515C38.404 35.5009 38.3209 35.5833 38.404 35.715C38.2211 35.7644 38.271 35.9291 38.138 35.7973C38.1879 35.9291 38.0549 36.1925 37.9219 36.0608C37.9717 36.1431 37.9219 36.1925 37.8387 36.1925C37.8886 36.3242 37.8387 36.3736 37.7057 36.3242C37.4896 36.9664 36.9576 37.411 36.5752 37.8885C36.6251 37.8885 36.6584 37.8391 36.6584 37.9379L36.4755 37.9873C36.4256 38.0697 36.5254 38.119 36.4256 38.2014C36.2926 38.119 35.8936 38.5472 35.9435 38.7283C36.0266 38.646 36.0266 38.5472 36.0765 38.4648C36.1596 38.4648 36.2594 38.3825 36.2594 38.4154C36.0765 38.7612 35.7772 39.0247 35.6941 39.4528C35.877 39.2717 35.9601 39.107 36.1264 39.0247C36.0765 38.8106 36.3092 38.7612 36.4256 38.7283C36.5087 38.3825 36.8246 38.2508 37.0407 38.0367C36.9909 37.905 37.0906 37.8556 36.9909 37.8227C37.1239 37.7733 37.207 37.7403 37.2901 37.6415C37.34 37.5592 37.1571 37.5592 37.2402 37.5098C37.5229 37.4933 37.5229 37.3122 37.739 37.3122ZM36.0432 38.2672C36.0432 38.3166 36.0432 38.399 36.0931 38.399C36.1264 38.3496 36.0931 38.2672 36.0432 38.2672ZM36.1762 38.2672C36.1762 38.2178 36.2594 38.2178 36.2594 38.1355C36.1762 38.1355 36.1264 38.2672 36.1762 38.2672ZM36.1762 26.0659C36.2261 26.0165 36.2594 25.9835 36.3591 25.9835C36.3092 26.0165 36.2594 26.0659 36.1762 26.0659ZM36.9576 23.8594C37.0906 23.81 37.0407 23.9911 37.0075 24.0405H37.0906C36.9576 24.1558 36.9576 23.9417 36.9576 23.8594ZM37.1737 23.5959C37.1239 23.6453 37.1737 23.7277 37.0906 23.7277C37.0407 23.6453 37.1405 23.5959 37.1737 23.5959ZM37.5229 24.765C37.4397 24.9462 37.606 25.2919 37.3067 25.2919C37.3067 25.5883 37.0906 25.7695 37.1239 26.1153C37.2569 26.1153 37.3067 25.9835 37.34 25.9012H37.2569C37.34 25.7201 37.473 25.6377 37.4397 25.3743C37.6559 25.3249 37.6559 24.8968 37.5229 24.765ZM37.1737 23.9417H37.1239H37.1737ZM43.2086 22.7232C43.2086 22.6409 43.2918 22.6409 43.2918 22.5915C43.3417 22.5092 43.2419 22.7726 43.4248 22.6409V22.6903C43.4747 22.608 43.5079 22.4762 43.6409 22.3939C43.724 21.3071 44.8712 20.5826 44.9044 19.3147C44.5553 19.5782 44.6384 20.0557 44.256 20.3521C44.5553 19.7429 44.6883 18.8866 44.9543 18.3597C44.9044 18.4914 45.0374 18.3597 45.0374 18.442L44.9543 18.5244C45.0873 18.5738 45.2203 18.3432 45.1372 18.2609C45.1372 18.3432 45.054 18.2115 45.054 18.1292C45.1039 18.1292 45.1372 18.1292 45.187 18.1786C45.3699 17.9645 45.3699 17.6187 45.5362 17.4376C45.453 17.6517 45.6193 17.3553 45.7523 17.3553C45.8022 17.2729 45.7523 17.1412 45.7024 17.0589C45.6193 17.1083 45.4863 17.1412 45.4863 17.0095C45.3533 16.9601 45.4863 17.1412 45.3533 17.1412C45.3533 16.9601 45.3533 16.7131 45.5362 16.746C45.4032 16.7954 45.453 16.9272 45.4032 16.9601C45.586 16.8778 45.5362 16.9601 45.7523 16.9601C45.7523 17.0095 45.7523 17.0424 45.8022 17.0918C45.9352 17.0095 45.985 16.7954 45.985 16.6143C45.9352 16.5649 45.9019 16.6143 45.9019 16.5649C45.7689 16.5649 45.852 16.6966 45.719 16.6966C45.719 16.5649 45.852 16.5649 45.852 16.4332C45.9019 16.4826 45.9352 16.4332 46.0349 16.4332C45.9518 16.1368 46.2178 15.9557 46.1679 15.791C46.0848 15.8404 46.118 15.9721 46.0349 15.9721C46.0349 15.9227 46.118 15.8898 46.0848 15.791C45.9518 15.8404 46.0017 15.8733 45.8687 15.8404C45.7855 16.1039 45.6858 16.4002 45.5694 16.6143C45.5694 16.4332 45.7024 16.3508 45.6525 16.1368C45.9185 16.0874 45.7024 15.6593 46.0017 15.7416C46.0017 15.5605 45.8188 15.6099 45.9518 15.4781C45.9518 15.5275 45.9518 15.6099 46.0349 15.5605C45.985 15.4781 46.0349 15.4781 46.118 15.4781C46.118 15.3464 45.985 15.4287 46.0349 15.297C46.251 15.297 46.0848 15.5605 46.0848 15.6428C46.0848 15.6428 46.2178 15.7251 46.2178 15.6428C46.0848 15.6922 46.1679 15.5605 46.2178 15.5605C46.2178 15.6099 46.2178 15.6428 46.2677 15.6099C46.3175 15.5275 46.3508 15.3464 46.2677 15.3958C46.3175 15.3958 46.2677 15.3135 46.3175 15.3135C46.3175 15.3629 46.3175 15.3958 46.4007 15.3629C46.4007 15.2311 46.3175 15.0994 46.4007 14.9348C46.4505 14.9348 46.4505 14.8524 46.5337 14.8524C46.4838 14.7701 46.5337 14.7207 46.5337 14.6384C46.1845 14.6878 46.4505 14.7207 46.3175 14.8524C46.3674 14.8524 46.3674 14.9018 46.3674 14.9348H46.4173C46.2843 15.0171 46.3342 15.0665 46.1513 15.1159C46.5004 14.342 46.5503 13.2552 46.7664 12.3496C46.7664 12.4813 46.8495 12.4319 46.8994 12.4813C46.8495 12.399 46.8495 12.3002 46.8994 12.2178C46.8495 12.2178 46.8163 12.2178 46.8163 12.1684C46.8163 12.0367 46.8994 11.9544 46.8662 11.8227C46.4339 12.0038 46.118 12.2508 46.0848 12.7283C45.8188 12.9424 45.5195 13.2881 45.3367 13.601C45.3865 13.5516 45.4198 13.5516 45.4697 13.601C45.0707 14.0291 44.9377 14.6878 44.4722 14.9842C44.123 15.8569 43.4747 16.5484 43.2086 17.3223V17.3717V17.3223C43.1255 17.3717 43.0757 17.3717 43.0757 17.4541V17.5035C43.0258 17.5529 43.0258 17.5529 42.9925 17.5529C43.0757 17.734 42.9426 17.8987 42.7764 17.9481C42.7764 18.0304 42.8263 18.0304 42.8595 18.0304C41.4131 19.9405 40.798 22.4927 39.7174 24.6498C39.7174 24.7321 39.8005 24.7321 39.8005 24.8309C39.5013 25.045 39.5345 25.3084 39.4015 25.6542C38.9194 26.6092 38.6534 27.7289 38.2211 28.7334C38.0382 29.8201 37.6559 30.7258 37.4397 31.7631C37.872 31.6808 37.872 31.0716 38.3541 30.8904C38.404 30.841 38.404 30.7587 38.3541 30.6764C38.5702 30.4952 38.7032 30.2812 38.8861 30.1165C38.936 30.2482 38.803 30.2976 38.8362 30.4623C38.3541 30.6434 38.3541 31.2033 37.9219 31.3679C37.872 31.7961 37.2735 31.8455 37.3566 32.3559C37.8886 31.829 38.3541 31.1868 38.803 30.627C38.9859 30.4129 39.1521 30.2812 39.335 30.1001C39.734 29.5731 40.2494 28.4534 40.6816 28.0583C40.6816 27.6301 41.1638 27.449 41.0806 27.0703C41.2136 27.1197 41.2136 27.0209 41.2968 27.0209C41.4796 26.494 41.7789 26.0659 41.995 25.5883C41.862 25.0614 42.527 24.8144 42.3441 24.4686C42.394 24.4192 42.394 24.4686 42.4273 24.4686C42.3774 24.2875 42.4771 24.2546 42.5104 24.2052C42.5603 24.2875 42.7265 24.1558 42.6434 24.1229C42.6434 24.1722 42.5603 24.2052 42.5603 24.1722C42.6101 24.0899 42.6434 23.9911 42.6434 23.8759C42.6434 23.9253 42.6933 23.9253 42.7265 23.9253C42.6434 23.7441 42.8096 23.7935 42.8595 23.7441C42.8096 23.7935 42.7764 23.6124 42.8595 23.6124C42.8096 23.7441 42.9426 23.6618 42.9925 23.6124L42.8096 23.5301C42.8595 23.5301 42.8928 23.4477 42.9426 23.3983V23.5301H43.0258C43.0258 23.4807 43.0258 23.4477 42.9759 23.3983H42.926C42.9759 23.316 43.0091 23.1349 43.1089 23.1349C43.059 23.0526 43.1588 23.0032 43.192 22.9208C43.192 23.0032 43.325 22.9702 43.4082 22.9208C43.4082 22.8714 43.458 22.8385 43.458 22.7397C43.458 22.7891 43.4081 22.822 43.3749 22.822C43.2918 22.7232 43.2585 22.7232 43.2086 22.7232ZM37.3899 35.8961C37.4397 35.8138 37.4397 36.0773 37.3067 36.0279C37.2735 35.8961 37.4397 35.9785 37.3899 35.8961ZM37.3566 23.069C37.3566 23.1184 37.4065 23.1184 37.4065 23.1514C37.4896 23.2007 37.4397 22.9867 37.3566 23.069ZM37.5727 37.8885H37.4896C37.4896 37.9379 37.4397 37.9709 37.4065 37.9709V38.1026C37.5229 38.0532 37.6226 38.0038 37.5727 37.8885ZM37.4397 22.9044V22.9867C37.6226 23.1184 37.6226 22.7726 37.4397 22.9044ZM37.5229 35.7644C37.473 35.7644 37.5727 35.6327 37.606 35.6327C37.6559 35.715 37.5229 35.6656 37.5229 35.7644ZM37.6226 32.9487C37.6226 32.8993 37.6226 32.817 37.5395 32.8664V32.9487H37.6226ZM37.5727 24.551C37.5727 24.7321 37.6559 24.8144 37.7889 24.8144C37.8387 24.7321 37.7057 24.6004 37.7889 24.4686C37.7889 24.518 37.7889 24.551 37.8387 24.551C38.0549 24.2546 38.0549 23.7771 38.3707 23.5136C38.4539 23.0855 38.6367 22.6903 38.8529 22.3445C38.803 22.2128 38.9027 22.0811 38.8529 22.0811C38.803 22.1305 38.803 22.0317 38.67 22.0811C38.5869 22.5092 38.3209 22.822 38.1879 23.1678C38.138 23.1678 38.138 23.0855 38.0549 23.1184C38.1879 23.3325 37.9717 23.9417 37.7057 23.8923C37.8387 24.1064 37.7889 24.2381 37.7556 24.4522C37.7556 24.3698 37.7057 24.3698 37.6725 24.3698C37.6559 24.4686 37.7057 24.5839 37.5727 24.551ZM44.1729 30.7422C44.123 30.7422 44.123 30.6599 44.0898 30.6599C41.8121 32.9981 39.4514 35.2045 37.6226 37.8391C37.8055 37.7897 37.8387 37.4933 38.0216 37.5427C38.0715 37.3287 38.2377 37.1969 38.3209 37.0158C38.3209 37.0982 38.3707 37.0982 38.4539 37.0982C38.7199 36.4889 39.2353 36.1102 39.5844 35.5833C41.1638 34.0684 42.6434 32.2571 44.1729 30.7422ZM47.0989 15.1982C47.049 15.2476 47.0158 15.3299 46.8828 15.3299L46.7498 15.5934C46.8828 15.544 46.9327 15.544 46.9659 15.6757C46.8329 15.7251 46.8329 16.0215 46.6999 15.9721C46.65 15.8898 46.8329 15.6263 46.7498 15.6757C46.7498 15.7251 46.6999 15.7251 46.6168 15.7581C46.2178 16.8778 45.7357 18.0139 45.5195 19.3147C45.6027 19.3147 45.5195 19.183 45.6525 19.2324C45.7024 19.3641 45.6027 19.3641 45.5694 19.4465C45.5195 19.4465 45.5195 19.3641 45.4863 19.3641C45.4364 19.4959 45.3034 19.5453 45.4032 19.7099C45.4863 19.7593 45.5362 19.6276 45.586 19.7099C45.6359 19.7923 45.5362 19.8417 45.5029 19.8911C45.3699 19.9405 45.453 19.7593 45.32 19.8417C44.7049 21.2742 43.6077 22.3445 43.0923 23.8759C42.8263 24.0076 42.9094 24.4028 42.66 24.518C42.261 26.4281 41.0806 27.7289 40.3824 29.3591C40.0831 29.5402 39.9501 29.7872 39.8504 30.0507C39.7174 30.133 39.2851 30.5776 39.3683 30.7422C39.069 30.6928 39.1521 31.1703 38.7531 31.2197C38.803 31.3021 38.803 31.3515 38.803 31.4338C38.7199 31.3844 38.67 31.4832 38.5869 31.4832C38.5869 31.7796 38.1879 31.7796 38.2377 32.1254C38.1047 32.3065 37.5395 32.5535 37.8387 32.7676C38.3209 32.5864 38.6201 31.8619 39.0191 31.4173C39.069 31.4173 39.069 31.4667 39.069 31.4997C39.202 31.3185 39.4181 31.2362 39.5013 31.0222C39.3184 30.9728 39.5844 30.627 39.8005 30.7587C39.8504 30.5446 39.9834 30.3306 40.1995 30.1988C40.0665 29.9025 40.3824 29.8531 40.3325 29.5896C40.4655 29.5402 40.5154 29.639 40.5154 29.7213C41.2968 28.684 41.8786 27.5149 42.4771 26.3458C42.5603 25.9177 42.66 25.4731 42.9593 25.2261C42.9593 25.1437 42.9593 25.0944 42.9094 25.045H43.0424C43.3417 24.2216 43.6575 23.4477 44.1729 22.7891C44.1729 22.4433 44.3558 22.1798 44.6052 22.1469C44.788 21.5377 45.1704 21.1589 45.3533 20.5497C45.3533 20.5003 45.2702 20.5991 45.2203 20.5003C45.2203 20.3192 45.3533 20.2368 45.3034 20.0228C45.4364 20.0722 45.3865 19.9734 45.4364 19.9405C45.4863 19.9899 45.4863 20.0228 45.5195 20.0228C45.5694 19.9734 45.5694 19.8911 45.6525 19.8911C45.9185 18.3762 46.6999 16.9436 46.9659 15.6922L47.182 15.2641C47.1488 15.2805 47.0989 15.2805 47.0989 15.1982ZM37.9717 21.9987C38.0549 21.9987 38.0549 21.8176 38.0216 21.867C38.005 21.8999 37.9219 21.8999 37.9717 21.9987ZM38.1879 35.2045H38.0549C38.0549 35.0728 38.2377 35.0234 38.271 34.9082C38.4539 34.974 38.0881 35.0234 38.1879 35.2045ZM38.803 34.2824C38.9859 34.4142 38.67 34.4965 38.6201 34.5788C38.537 34.5953 38.803 34.3812 38.803 34.2824ZM38.8362 21.9987C39.1023 21.8176 39.1355 21.5212 39.2685 21.2577L39.1355 21.0766C38.9692 21.3401 38.803 21.6035 38.8362 21.9987ZM39.8504 28.7004V28.9145C39.6675 28.9145 39.7174 29.0956 39.5511 29.0956C39.601 29.4414 39.2851 29.4908 39.2851 29.7378C39.069 29.8201 39.069 30.0013 38.8529 30.0836C39.1854 29.6061 39.4514 29.1286 39.8504 28.7004ZM39.6675 33.4591C39.4015 33.7226 39.2685 34.0684 38.9194 34.233C39.1521 33.9861 39.3184 33.6897 39.6675 33.4591ZM38.9692 35.3198H39.0524C39.1022 35.4021 39.0025 35.3692 39.0025 35.4515C38.9692 35.4515 38.9692 35.3692 38.9692 35.3198ZM39.1022 20.6979C39.1022 20.6979 39.0524 20.8296 39.1521 20.8296C39.069 20.6979 39.2352 20.7802 39.2352 20.6979C39.1854 20.7308 39.1521 20.6979 39.1022 20.6979ZM41.6293 16.3673C41.8121 16.3179 41.7623 16.1532 41.9784 16.1532C42.0615 15.6263 42.8096 15.1982 42.5935 14.7207C42.3275 15.4123 41.6293 15.8898 41.5461 16.5814C41.4963 16.5814 41.4963 16.499 41.4131 16.499C41.4131 16.5484 41.4131 16.5814 41.463 16.5814C41.2469 16.7625 41.1139 17.0095 40.931 17.1906C40.8811 17.1412 40.8811 17.0589 40.8479 17.1083C40.798 17.7505 40.4489 18.3268 40.0166 18.8043C40.0665 18.9854 39.8338 18.9854 39.8338 19.1501C39.9169 19.1995 39.8836 18.969 39.9668 19.1007C39.8836 19.2818 39.8338 19.4959 39.7008 19.6605C39.6176 19.5288 39.7506 19.5288 39.7506 19.4465C39.5678 19.4465 39.6176 19.6276 39.5678 19.7099C39.6176 19.7099 39.6509 19.6605 39.6509 19.7593C39.601 19.8417 39.601 20.0228 39.5179 20.0557C39.468 20.0063 39.468 19.924 39.4348 19.924C39.3849 20.1051 39.3849 20.1381 39.4846 20.3192C39.4015 20.4015 39.2186 20.2698 39.1854 20.4509C39.4846 20.5826 39.1355 20.8461 39.2352 21.1425C39.8504 20.0557 40.3325 18.9854 40.8146 17.8493C40.8978 17.8493 40.8978 17.7669 40.9975 17.7669C41.0474 17.4705 41.2635 17.24 41.4298 16.993C41.2968 16.8119 41.4298 16.779 41.4796 16.5978C41.5295 16.6472 41.6126 16.5978 41.6958 16.5484C41.6791 16.499 41.6293 16.4167 41.6293 16.3673ZM39.8005 28.6675V28.6181C39.8504 28.6181 39.8504 28.5687 39.8504 28.5687C39.8836 28.5358 39.8836 28.7004 39.8005 28.6675ZM40.0665 33.031C40.0665 33.0804 40.0166 33.1133 39.9335 33.1133C39.9335 33.0804 39.9834 33.031 40.0665 33.031ZM39.9834 19.1007V18.969H40.0333C40.0831 19.0184 40.0831 19.0513 40.0831 19.1007H39.9834ZM39.9834 28.437C40.0665 28.3052 40.1164 28.0912 40.2494 27.9595C40.1496 28.1406 40.0998 28.3546 39.9834 28.437ZM40.0998 32.9487C40.0998 32.9487 40.1496 32.9487 40.1496 32.8993C40.1995 32.8499 40.1995 32.7676 40.3325 32.7676C40.1995 32.817 40.2328 32.9487 40.0998 32.9487ZM40.3325 27.8771C40.3325 27.9265 40.2826 27.9265 40.2826 27.9595C40.1995 27.9759 40.2328 27.8442 40.3325 27.8771ZM40.3325 32.6852H40.4156V32.7346C40.3658 32.7346 40.3658 32.784 40.3325 32.784V32.6852ZM40.4988 27.4984C40.4988 27.5807 40.4988 27.7125 40.3658 27.7619C40.4156 27.6631 40.4156 27.5313 40.4988 27.4984ZM40.5486 32.4218C40.5985 32.4712 40.5985 32.6358 40.4655 32.6029C40.4156 32.5206 40.5819 32.5535 40.5486 32.4218ZM40.7648 27.0209C40.6816 27.1526 40.6816 27.3667 40.4988 27.4161C40.6318 27.3173 40.5819 27.1032 40.7648 27.0209ZM40.798 32.2077L40.665 32.4218C40.5486 32.3394 40.7648 32.2077 40.798 32.2077ZM40.931 26.7574C40.8479 26.8068 40.9809 26.5434 41.0141 26.494C41.1638 26.5763 40.8978 26.6257 40.931 26.7574ZM41.6791 25.4072C41.6791 25.7036 41.33 25.8024 41.4131 26.0988C41.197 26.1482 41.2801 26.3622 41.1471 26.3952C41.2469 26.1482 41.4131 25.5389 41.6791 25.4072ZM41.596 31.2527C41.6459 31.4338 41.2968 31.5985 41.197 31.8125C41.1638 31.5985 41.5129 31.4667 41.596 31.2527ZM41.862 25.1931C41.862 25.2755 41.729 25.2755 41.6459 25.2755C41.6958 25.1931 41.729 25.1437 41.729 25.012C41.862 24.9297 41.729 25.1931 41.862 25.1931ZM41.729 31.1703C41.862 30.9892 41.995 30.7752 42.2111 30.6434C42.0781 30.874 41.9451 31.0386 41.729 31.1703ZM41.9784 24.4192C41.9285 24.5016 41.9784 24.6333 41.8953 24.6827C41.8953 24.8144 42.0283 24.7321 41.9784 24.8638C41.8953 24.8638 41.8454 24.8144 41.7955 24.9132C41.8121 24.765 41.8953 24.551 41.9784 24.4192ZM41.9784 31.7796H42.0283V31.829H41.9784V31.7796ZM42.0781 24.2381C42.0283 24.0241 42.261 23.81 42.3774 23.5959C42.3441 23.8594 42.1114 24.0241 42.0781 24.2381ZM42.2943 30.6599C42.2111 30.6105 42.3441 30.4788 42.4273 30.5282C42.4273 30.6105 42.2444 30.5282 42.2943 30.6599ZM42.3774 23.5465C42.4605 23.3325 42.5603 23.1184 42.7265 22.9373C42.5935 23.1184 42.5104 23.3819 42.3774 23.5465ZM42.5935 30.2647H42.6766V30.347H42.5935V30.2647ZM42.8595 30.0836C42.8096 30.1659 42.8096 30.2647 42.6766 30.2647C42.6434 30.133 42.7764 30.133 42.8595 30.0836ZM42.7764 14.3255C42.8263 14.5066 42.6434 14.5066 42.6933 14.6713C42.9593 14.6219 42.9094 14.4078 42.9593 14.2761C42.8595 14.2926 42.9094 14.2926 42.7764 14.3255ZM42.8096 22.7232C42.8928 22.8056 42.7265 22.7726 42.7598 22.855C42.6933 22.855 42.7265 22.7232 42.8096 22.7232ZM42.7265 13.4693C42.8595 13.5187 42.9094 13.3375 42.8096 13.3375C42.7764 13.3869 42.7265 13.3869 42.7265 13.4693ZM43.1255 29.8366C43.1754 29.8366 43.2086 29.8366 43.2086 29.886C43.1255 29.9683 43.0258 30.0671 42.9094 30.1001C42.9094 29.9519 43.1255 30.0013 43.1255 29.8366ZM43.0424 30.6928C43.0923 30.6928 43.0923 30.6928 43.1255 30.6434C43.1255 30.594 43.1754 30.594 43.1754 30.5611C43.0757 30.5611 42.9925 30.6105 43.0424 30.6928ZM43.1588 22.1634C43.1588 22.1634 43.1588 22.114 43.1089 22.114H43.192V22.1634H43.1588ZM43.6908 29.4414C43.6908 29.5731 43.4248 29.7049 43.2585 29.7872C43.3417 29.6061 43.5578 29.5731 43.6908 29.4414ZM43.4747 30.3964C43.4248 30.3141 43.7407 30.1824 43.6077 30.1824C43.6077 30.2647 43.2918 30.2647 43.4747 30.3964ZM43.6908 21.4389C43.6077 21.3565 43.7407 21.1754 43.8238 21.1425C43.7407 21.2083 43.7407 21.3401 43.6908 21.4389ZM43.7739 22.9538C43.8238 22.8714 43.8238 22.7726 43.9568 22.7397C43.9568 22.855 43.8737 22.9044 43.7739 22.9538ZM43.7739 29.392C43.8238 29.392 43.857 29.3426 43.857 29.3426C43.9069 29.4249 43.8072 29.4249 43.8072 29.4743C43.7739 29.4908 43.7739 29.4414 43.7739 29.392ZM43.9069 29.2603H43.99V29.3097H43.9402C43.9568 29.3097 43.9568 29.2603 43.9069 29.2603ZM44.123 22.4762C44.123 22.608 44.123 22.6903 43.9402 22.6903C43.9568 22.5586 43.99 22.4762 44.123 22.4762ZM44.0399 20.6485C44.123 20.5991 44.0898 20.4344 44.2228 20.385C44.2228 20.5168 44.1729 20.6156 44.0399 20.6485ZM44.3392 29.0462C44.389 29.2273 44.123 29.1779 44.0399 29.2273C44.0399 29.2273 44.256 29.0956 44.3392 29.0462ZM44.2228 30.6928L44.1729 30.7422C44.1729 30.7422 44.1729 30.7916 44.2228 30.7422V30.6928ZM44.4389 30.4294C44.1729 30.38 44.2228 30.5611 44.2228 30.6928L44.2727 30.6434C44.3392 30.6105 44.4389 30.5282 44.4389 30.4294ZM44.6883 30.2976C44.9044 30.347 45.0873 30.0836 45.2203 29.9025C45.1372 29.9025 45.0873 29.9025 45.0042 29.9519C44.8712 30.0342 44.8213 30.2153 44.5719 30.2153C44.6218 30.347 44.4888 30.2976 44.4389 30.3964C44.5719 30.3964 44.5719 30.3964 44.655 30.4458C44.655 30.347 44.8213 30.3964 44.6883 30.2976ZM44.7382 34.974C45.1704 33.9861 45.5694 32.9322 45.9185 31.8619C45.8687 31.8619 45.8354 31.8125 45.8354 31.6808C45.6193 32.7676 44.8712 33.8543 44.7382 34.974ZM44.8213 19.1007C44.7714 19.183 44.9543 19.183 44.9044 19.1501C44.8712 19.1336 44.921 19.0513 44.8213 19.1007ZM45.054 18.1456C44.921 18.195 45.1039 18.228 45.054 18.3268C45.0042 18.2444 44.921 18.3762 44.921 18.2774C44.921 18.1786 44.9543 18.1456 45.054 18.1456ZM44.921 18.7878H44.9709V18.7055H44.921V18.7878ZM45.0042 18.0469C45.054 17.9151 45.1372 17.8328 45.2203 17.7505C45.2203 17.8822 45.1372 17.9645 45.0042 18.0469ZM45.0042 18.7549C45.1372 18.8043 45.0873 18.6232 45.0042 18.6726V18.7549ZM45.2203 17.5858C45.1372 17.5035 45.2203 17.3223 45.3533 17.2894C45.3533 17.4047 45.2203 17.4541 45.2203 17.5858ZM45.2702 13.601C45.2702 13.601 45.2203 13.6504 45.2702 13.6504V13.601ZM45.6525 17.487C45.6027 17.5364 45.6027 17.6187 45.4697 17.6187C45.6193 17.9316 45.7523 17.4047 45.6525 17.487ZM45.5694 16.7131C45.5195 16.6308 45.6193 16.6308 45.7024 16.5814C45.6525 16.6308 45.7024 16.7625 45.5694 16.7131ZM45.7024 19.0513C45.6525 19.0513 45.6525 19.1336 45.6525 19.183H45.5694C45.5694 19.1007 45.6193 19.0513 45.7024 19.0513ZM45.6525 13.2058V13.0741C45.9518 12.9918 45.9518 12.7283 46.2178 12.5966C46.1014 12.86 45.9185 13.0741 45.6525 13.2058ZM45.6525 17.2235V17.1412H45.7024L45.7523 17.1906C45.7024 17.1906 45.7024 17.1906 45.6525 17.2235ZM45.7523 16.9766L45.8022 16.9272C45.7523 16.9272 45.7523 16.9766 45.7523 16.9766ZM45.7855 16.9272C45.7855 16.7954 45.7357 16.6637 45.9185 16.6637C45.9185 16.7625 45.8354 16.8448 45.7855 16.9272ZM46.1014 15.1159C46.1014 15.1982 46.1014 15.297 46.0183 15.297C46.0017 15.2476 46.0515 15.1982 46.1014 15.1159ZM46.6168 13.6339C46.6168 13.6833 46.6168 13.7163 46.6667 13.7657C46.7498 13.7657 46.6999 13.601 46.6168 13.6339ZM46.6999 13.5516C46.6999 13.3705 46.8828 13.2058 46.783 13.0247C46.7997 13.2552 46.6168 13.4199 46.6999 13.5516ZM46.8329 12.7777L46.783 12.8271C46.7332 12.9094 46.8662 12.9588 46.8662 12.8765C46.8329 12.86 46.8329 12.8106 46.8329 12.7777ZM46.7997 12.5636C46.8495 12.646 46.8495 12.7448 46.9825 12.6954C46.9327 12.4813 47.0657 12.4319 47.0324 12.2672C46.7498 12.2178 47.0989 12.5966 46.7997 12.5636ZM46.8329 12.7777C46.8828 12.7777 46.9659 12.7777 46.8828 12.7283C46.8329 12.7283 46.8329 12.7777 46.8329 12.7777ZM47.049 15.1488C46.9659 15.1488 46.9659 15.0994 46.916 15.0994C46.9659 15.1488 46.8329 15.2311 46.9659 15.2311C46.9659 15.1982 47.049 15.1982 47.049 15.1488ZM47.182 14.3255C47.315 13.7986 47.5312 13.3375 47.6143 12.8106C47.5312 12.7612 47.4813 12.86 47.3982 12.86C47.4481 13.1564 47.0989 13.4199 47.3151 13.6833C47.0491 13.7327 47.2319 14.1115 47.182 14.3255ZM49.6758 40.2267V40.309C49.7589 40.342 49.7589 40.1279 49.6758 40.2267ZM50.1579 39.8809V39.7986C50.2078 39.8315 50.1579 39.8809 50.1579 39.8809ZM51.0391 35.8467H51.1222V35.8961H51.0723L51.0391 35.8467ZM51.4214 35.9785C51.4713 36.0608 51.4214 36.1925 51.5046 36.1596C51.5545 36.1431 51.5212 35.9291 51.4214 35.9785ZM51.6376 35.7973C51.5545 35.7973 51.4547 35.9291 51.5545 35.9785C51.5212 35.8467 51.6875 35.8961 51.6376 35.7973ZM52.5686 33.6403C52.6185 33.6403 52.5686 33.6897 52.6185 33.7226H52.4855C52.4688 33.6897 52.5686 33.6897 52.5686 33.6403ZM52.5686 32.5206V32.4382H52.6185V32.5206H52.5686ZM52.6018 32.3888C52.552 32.2077 52.7847 32.1748 52.818 31.9937C52.8678 32.1254 52.7016 32.29 52.6018 32.3888ZM52.7016 32.6358V32.5535C52.7847 32.5041 52.7847 32.6029 52.7847 32.6358H52.7016ZM52.8678 33.4591H52.7847C52.7847 33.4097 52.7847 33.3768 52.7348 33.3768C52.7348 33.2945 52.951 33.4262 52.8678 33.4591Z" fill="#B11B1B"/>
<path d="M69.5262 30.5611L69.4431 30.7422C69.1771 30.874 69.0441 31.088 68.9609 31.3021C67.9135 31.9113 67.5145 32.8993 66.4672 33.5086C66.384 33.6897 66.0682 33.6897 66.0682 33.9367C66.4672 33.7556 66.8495 33.4098 67.0657 33.1957C67.5478 32.8993 67.8138 32.4547 68.113 32.2407C69.3766 31.2856 69.2436 31.0222 69.4264 31.0222C69.6924 31.0222 67.6808 33.7555 66.2344 35.3528C65.8022 35.5339 64.9709 36.3407 64.7548 36.4395C64.7049 36.5219 64.3558 36.6536 64.2726 36.5713C63.9734 36.7853 63.5744 36.6207 63.2751 36.7853C63.059 37.4769 62.5769 38.2508 62.4938 38.7777C62.4938 38.9094 62.3608 39.0412 62.2776 38.9918C62.2278 39.0412 62.2278 39.0741 62.2776 39.1729C61.9784 39.2223 62.0948 39.4693 61.7955 39.5681C61.9784 39.6998 61.8786 39.7492 61.8454 39.9139C61.8454 39.9962 61.9784 39.8315 61.9784 39.9139C61.9784 40.1773 61.6791 40.2103 61.6791 40.4408C61.1471 40.7043 60.9809 41.1818 60.4156 41.4288C59.9335 42.038 59.2352 42.5485 58.537 43.0754C56.7415 43.7176 55.2951 43.6352 54.0316 43.1248C53.2502 42.5155 52.4189 42.038 51.8537 41.083C51.9368 41.0336 51.9368 41.083 51.9368 41.1324C51.9368 40.8689 51.7207 40.5725 51.5877 40.3585C51.5378 40.5725 51.7706 40.7536 51.8537 41.05C51.6708 40.9677 51.5544 40.7536 51.3716 40.6219C51.5046 40.5725 51.2386 40.4902 51.3716 40.4408C51.2386 40.2267 51.0723 39.6998 51.1887 39.5352C50.9227 39.2388 51.1056 38.4978 51.1887 38.1026C51.0058 37.3287 51.3217 36.5383 51.6209 35.9785H51.5378C51.6209 35.8961 51.7539 35.8961 51.7207 35.715C51.6708 35.6327 51.5877 35.8961 51.5877 35.715C52.2361 34.8917 52.2859 33.6732 52.9011 32.8499C52.9842 32.8005 52.9842 32.9322 53.0839 32.8993C53.1338 32.8499 53.1338 32.817 53.1338 32.7676C53.084 32.6853 53.1338 32.8499 53.0507 32.817C53.0507 32.7347 52.9676 32.7676 52.9676 32.6853C53.1837 32.7347 53.1006 32.6029 53.2668 32.6029C53.2668 32.5535 53.3167 32.5206 53.3167 32.4712C53.3167 32.3889 53.1837 32.4712 53.1837 32.3395C53.2668 32.3395 53.2668 32.4218 53.3998 32.3889C53.4497 32.2571 53.217 32.2571 53.3167 32.1748C53.3666 32.1254 53.3167 32.2571 53.5328 32.1748C53.5328 31.829 53.749 31.6479 53.9318 31.4009C53.9318 31.3186 53.8487 31.3515 53.7988 31.3515C54.015 31.0551 54.148 30.7093 54.4971 30.4788C54.4971 30.5282 54.4472 30.5282 54.4472 30.6105C54.5802 30.4294 54.6301 30.0836 54.8795 30.0507C54.9293 30.1824 54.6633 30.133 54.7465 30.3141C55.0457 29.9189 55.3948 29.5732 55.744 29.1944C55.478 29.1944 55.3948 29.5402 55.212 29.672C55.2951 29.3262 55.8271 29.0298 56.0432 28.6346C55.6941 28.684 55.611 29.0627 55.2951 29.1944C55.5611 28.7992 55.9435 28.2065 56.3425 28.0253C56.4256 27.5478 57.1737 27.4984 57.3067 27.202C58.0549 26.8562 58.3541 26.6422 59.1355 26.4611C59.2685 26.5434 59.4347 26.6422 59.7007 26.5434C59.9169 26.7245 60.3159 26.7575 60.5819 26.7245C60.532 26.6751 60.4489 26.6751 60.4489 26.6422C62.7265 26.3458 64.6051 28.7169 64.3391 31.1868C64.7382 31.4832 64.2893 32.0595 64.5553 32.3559C64.5054 32.9158 64.3724 33.4756 64.256 34.0025C64.3391 33.8708 64.655 33.9202 64.5553 33.7062C64.6384 33.7062 64.7714 33.6568 64.7714 33.5744C64.9543 33.7062 64.5553 33.7062 64.7215 33.9696C64.8046 33.8873 64.9044 33.8379 65.0707 33.7885C64.8878 33.7062 64.9875 33.6074 65.1205 33.525C65.1205 33.5744 65.0707 33.6074 65.0707 33.6568C65.5029 33.525 65.8188 33.0969 65.985 32.784C66.2012 32.9158 66.6833 32.3889 66.8994 32.2242C67.4314 31.6973 67.9967 30.9728 68.5121 30.5776C68.4622 30.5282 68.4622 30.4953 68.4622 30.4459C68.5453 30.4459 68.8113 30.3141 68.7614 30.1495C68.9776 30.0177 69.1937 29.886 69.1937 29.6226C69.4098 29.6226 69.3766 29.4414 69.5927 29.4414C69.2934 29.9683 68.8113 30.3965 68.3624 30.874C68.3624 30.9563 68.4954 30.9234 68.4954 31.0551C68.5453 31.0551 68.4455 30.9728 68.4954 30.9234V30.841C68.6284 30.7916 68.6284 30.9234 68.6783 31.0222C68.4954 31.2033 68.2793 31.0222 68.1962 31.2362C68.113 31.3186 68.1463 31.1539 68.1962 31.1045C67.98 31.1868 67.7972 31.4503 67.6642 31.6644C67.847 31.615 67.7473 31.4503 67.9302 31.4009C67.7972 31.6644 67.581 31.7961 67.5312 32.0431C67.2319 32.0431 67.3483 32.4383 66.9659 32.4712C67.0989 32.6523 67.2319 32.4712 67.3982 32.4218C67.315 32.3395 67.315 32.3395 67.315 32.2407C67.6143 32.2407 67.6642 32.0266 67.9302 31.9443C68.0632 31.5162 68.7116 31.3844 68.8446 30.9892C68.8944 30.9398 68.8944 30.9892 68.9776 30.9892C69.0607 30.7752 69.3766 30.7258 69.3766 30.4623C69.8753 30.133 69.8254 30.2153 69.5262 30.5611ZM51.4214 37.658C51.3383 37.658 51.2386 37.6086 51.2053 37.7403C51.2552 37.691 51.2884 37.7403 51.3383 37.7403C51.2552 37.658 51.4713 37.7074 51.4214 37.658ZM51.4713 36.8347C51.4713 36.8841 51.4713 36.8841 51.4214 36.8841V36.8018C51.3383 36.8512 51.2386 36.9335 51.2386 37.0652C51.3716 37.0158 51.3716 36.8841 51.4547 36.9829C51.4214 36.9335 51.5544 36.8347 51.4713 36.8347ZM51.3383 37.9215C51.3383 37.8721 51.2884 37.8721 51.2884 37.8391C51.2884 37.8391 51.2386 37.8391 51.2386 37.8885V37.9379H51.3383V37.9215ZM51.2884 37.5428C51.4214 37.5428 51.4214 37.3287 51.2884 37.3287C51.3882 37.411 51.2053 37.411 51.2884 37.5428ZM51.3882 36.5877L51.4381 36.5383H51.3882V36.5877ZM52.0033 36.8347C51.8703 36.8347 51.8204 37.0158 51.9202 37.0158C51.8703 36.9335 52.0033 36.9335 52.0033 36.8347ZM52.8346 34.2825C52.8844 34.3319 52.7016 34.3319 52.7514 34.4142C52.8346 34.4142 52.8678 34.2495 52.8346 34.2825ZM53.0839 33.8543C52.9509 33.772 52.818 33.9861 52.9011 34.0355C52.9011 33.9861 53.0341 33.9861 53.0839 33.9531V33.8543ZM53.8321 32.2901C53.7822 32.3395 53.749 32.3395 53.749 32.3395C53.7988 32.5535 53.5328 32.6029 53.5661 32.8664C53.35 33.0475 53.0341 33.3439 53.1671 33.6897C53.1671 33.558 53.2502 33.4756 53.35 33.4262C53.3998 32.9816 53.7822 32.7676 53.8321 32.2901ZM53.882 32.2901C54.015 32.2077 54.2311 32.0266 54.0981 31.8125V31.9443C54.015 31.9443 54.015 31.9937 53.9152 32.0266C53.9152 32.1254 53.882 32.2077 53.882 32.2901ZM58.2876 39.8809C58.1546 39.7986 58.2876 39.4034 58.5536 39.4858C58.6035 39.3046 58.7697 39.2223 58.9027 39.2717C58.9526 38.9753 59.3017 38.7119 59.468 38.7119C59.468 38.6295 59.5179 38.6295 59.5179 38.5801C59.5179 38.5307 59.4347 38.5307 59.3849 38.5307C59.468 38.4484 59.5677 38.4813 59.601 38.4484C59.5511 38.4484 59.5179 38.3661 59.601 38.3167C59.6841 38.2673 59.6841 38.3661 59.8171 38.3167C59.7672 38.1355 59.9002 38.0532 59.9002 37.9215C59.9501 37.8721 59.9501 37.9709 60.0332 37.9215C60.2992 37.3946 60.6816 36.9335 60.9476 36.3243C60.8645 36.2749 60.8146 36.1925 60.7647 36.1925C60.7647 36.2419 60.7648 36.2419 60.7149 36.2749C59.2352 35.5833 57.5229 33.5909 57.2236 31.9443C57.0407 31.9443 57.2735 31.7302 57.1405 31.5491C56.8745 31.5985 56.9243 31.8125 56.7415 31.9443C56.8745 31.9443 56.8745 31.8125 56.9576 31.8949C56.7747 32.2901 56.3425 32.5041 56.2095 32.9322C55.9435 32.8828 55.9102 33.064 55.7772 33.1957C55.7772 33.278 55.8603 33.278 55.8603 33.3768C55.7772 33.3274 55.6442 33.4262 55.6442 33.558C55.7772 33.6074 55.7273 33.3768 55.7772 33.4756C55.2452 34.5624 54.5968 35.5998 54.4638 36.9006C54.3308 37.164 54.1646 37.4275 54.1978 37.8062C53.8487 38.2343 54.148 39.0247 53.9318 39.6175C54.0648 40.2597 53.749 41.5605 54.4971 41.8733C54.8462 41.6922 55.7606 41.577 56.2427 41.3958V41.3464C56.2926 41.2147 56.1097 41.3958 56.1097 41.2147C56.2427 41.2147 56.2427 41.1653 56.3258 41.1324C56.276 41.2147 56.3757 41.3135 56.409 41.3958C56.3591 41.3958 56.276 41.3958 56.276 41.4452C56.3591 41.5276 56.409 41.4452 56.4588 41.3958C56.4588 41.5276 56.6417 41.4782 56.6417 41.4452H56.5087C56.5586 41.3629 56.5087 41.3629 56.4588 41.2641C56.5087 41.2147 56.542 41.2147 56.542 41.1818C56.542 41.1818 56.542 41.2312 56.5918 41.3135C56.808 41.1324 57.0241 41.0171 57.207 40.7866C57.1571 40.7043 57.207 40.6055 57.2569 40.5231C57.3899 40.4737 57.4397 40.5725 57.5561 40.5725C57.606 40.3091 57.7722 40.095 57.9551 39.8809C57.9551 39.9633 57.9052 40.0127 57.9551 40.095C57.9052 40.1444 57.7722 40.1773 57.7722 40.2761C57.9884 40.2761 57.9052 40.095 58.0715 40.0621C58.0216 40.0127 57.9884 39.8809 58.0715 39.848C58.2045 39.8315 58.1546 39.9633 58.2876 39.8809ZM54.3142 31.6479C54.3973 31.6479 54.4472 31.5162 54.3641 31.5162C54.3973 31.5985 54.2311 31.5656 54.3142 31.6479ZM54.3142 30.2647V30.1824H54.3641L54.414 30.2318C54.3641 30.2153 54.3641 30.2647 54.3142 30.2647ZM54.4472 30.133C54.4472 30.0836 54.4971 30.0836 54.4472 30.0013C54.5303 30.0013 54.5303 30.133 54.4472 30.133ZM54.7132 29.9189C54.6633 29.9189 54.5802 29.9683 54.5303 29.9683C54.5303 29.886 54.6135 29.8366 54.7132 29.7872C54.7465 29.8366 54.7132 29.8695 54.7132 29.9189ZM54.7465 29.7049C54.7465 29.4908 54.9626 29.4414 55.0457 29.3097C55.1787 29.4414 54.9293 29.6061 54.7465 29.7049ZM54.7465 31.088C54.7963 31.088 54.8296 31.0386 54.8296 31.0057C54.7963 31.0057 54.7465 31.0386 54.7465 31.088ZM55.1455 29.6555C55.0623 29.7378 55.0623 29.8695 54.9626 29.8695C54.9626 29.7872 55.0125 29.7049 55.1455 29.6555ZM55.6608 30.0507C55.6608 30.0013 55.7107 29.9683 55.7107 29.9189C55.6276 29.9189 55.5777 30.0507 55.6608 30.0507ZM55.8437 28.9145C55.8437 28.9639 55.8437 28.9968 55.8936 28.9968C55.8936 28.9474 55.8936 28.9474 55.9435 28.9474C55.8936 28.9145 55.8936 28.8816 55.8437 28.9145ZM56.01 33.0804C56.0598 33.1628 55.9268 33.1298 55.9601 33.2122C55.9268 33.2451 55.9268 33.0804 56.01 33.0804ZM56.0598 28.5687C56.0598 28.5193 56.1097 28.4864 56.1097 28.4864C56.1596 28.4864 56.1596 28.5358 56.1928 28.5358C56.143 28.4864 56.143 28.4535 56.143 28.4535C55.9767 28.4041 55.8936 28.5687 56.0598 28.5687ZM56.5918 41.1324C56.6417 41.05 56.6417 41.05 56.6417 40.9512C56.6916 40.9018 56.7249 40.9512 56.7249 41.0336C56.7082 41.083 56.6251 41.083 56.5918 41.1324ZM56.941 40.9183C56.8911 40.9183 56.8911 40.8689 56.8911 40.836H56.808C56.808 40.7372 57.0241 40.7866 56.941 40.9183ZM57.5062 40.4737C57.4231 40.3914 57.5561 40.3914 57.5561 40.342C57.6392 40.342 57.5894 40.5231 57.5062 40.4737ZM58.2876 40.7866C58.2876 40.7372 58.2377 40.7372 58.2377 40.7043C58.2377 40.7043 58.1879 40.7536 58.1546 40.7536V40.803H58.2876V40.7866ZM60.0332 39.3046C59.9834 39.3046 60.0332 39.1729 59.9501 39.2552C59.9501 39.387 59.867 39.387 59.734 39.387C59.6841 39.5187 59.6841 39.601 59.6509 39.6504C59.2186 39.6504 58.8695 40.342 58.3874 40.5231C58.3874 40.6549 58.3874 40.7372 58.3375 40.8195C58.9027 40.3091 59.601 39.9139 60.0332 39.3046ZM58.6367 39.5681C58.7199 39.5681 58.7199 39.387 58.6866 39.4364C58.6866 39.4858 58.6035 39.4858 58.6367 39.5681ZM59.468 38.3167C59.468 38.3167 59.468 38.2673 59.4181 38.2673C59.468 38.2673 59.468 38.2673 59.5012 38.2179V38.3002H59.468V38.3167ZM62.6101 30.7752C62.261 30.0836 62.793 28.7828 62.0449 28.2229C61.995 28.4041 62.128 28.5687 62.128 28.7005C61.995 28.6511 61.995 28.4041 61.862 28.3053C61.33 28.5193 61.1139 28.9145 60.7315 29.178C60.7814 29.3097 60.7315 29.3591 60.7814 29.4414C60.6484 29.4908 60.6484 29.6226 60.5154 29.6226L59.6342 32.2571C59.6342 32.3065 59.6841 32.3065 59.7174 32.3065C59.4181 32.4877 59.7672 32.9981 59.6342 33.1792C59.9002 33.7062 60.1662 34.4801 60.5154 34.9576C60.9476 35.0399 61.2136 35.0399 61.6459 34.9082C61.729 34.266 62.128 33.7885 62.128 33.0969C62.527 32.4712 62.527 31.5985 62.6101 30.7752ZM60.2992 37.1476C60.2494 37.0982 60.2494 37.0652 60.2494 37.0158C60.3491 36.9664 60.3824 37.1476 60.2992 37.1476ZM60.3824 38.1355C60.3325 38.1849 60.3325 38.1849 60.2992 38.1849L60.3491 38.2343H60.399V38.1355H60.3824ZM60.8645 38.0038C60.7814 37.8227 60.9144 37.9215 60.9144 37.7897C60.8312 37.8391 60.7814 37.7403 60.6484 37.7897C60.7315 37.9215 60.5985 37.9709 60.5154 38.0038C60.5154 38.0532 60.5154 38.0532 60.5652 38.0532C60.4821 38.1026 60.4821 38.1355 60.5154 38.2343C60.3824 38.2837 60.2494 38.3167 60.3325 38.4978C60.5154 38.4978 60.3824 38.3167 60.5486 38.3167C60.5154 38.1026 60.7814 38.0532 60.8645 38.0038ZM60.8312 38.3496C60.7481 38.399 60.6982 38.399 60.6982 38.4813L60.8312 38.3496ZM61.3466 36.6207C61.3466 36.9664 60.9144 37.2299 60.8645 37.4934C60.8146 37.444 60.7814 37.444 60.7315 37.444C60.7315 37.5757 60.8146 37.6251 60.7814 37.7403L61.1305 37.658C61.1305 37.5263 61.1305 37.3946 61.2136 37.3616C61.2635 37.4934 61.2635 37.1805 61.3965 37.2299C61.3965 37.0488 61.3965 37.1476 61.3134 37.0158C61.3965 37.0158 61.3965 36.9664 61.4963 36.9664C61.4131 36.8347 61.4464 36.6701 61.6293 36.6701C61.6293 36.6207 61.5794 36.5877 61.5794 36.5383C61.4796 36.5383 61.4298 36.5877 61.3466 36.6207ZM60.9144 38.2673L60.8312 38.3496C60.8811 38.3496 60.9144 38.3496 60.9144 38.3002V38.2673ZM61.8288 36.6701C61.6459 37.0652 60.9144 37.9215 60.9144 38.2673C61.1804 38.0038 61.4796 37.658 61.5628 37.2299C61.7456 37.2299 61.6459 37.0488 61.8288 37.0158C61.7789 36.8347 61.8786 36.8347 61.8288 36.6701ZM61.2136 37.3122C61.2136 37.2628 61.2968 37.2299 61.2635 37.1805C61.3466 37.197 61.3134 37.3122 61.2136 37.3122ZM61.3965 35.0728H61.4796C61.4796 35.0234 61.4298 35.0234 61.4298 34.9905C61.4298 35.0399 61.3799 35.0399 61.3799 35.0399V35.0728H61.3965ZM62.2278 30.2153C62.2278 30.2647 62.2776 30.2977 62.2776 30.3471C62.2278 30.2977 62.1945 30.3471 62.1945 30.2647C62.2278 30.2647 62.2278 30.2647 62.2278 30.2153ZM62.3109 30.9563C62.3109 30.874 62.2278 30.6599 62.2278 30.4788C62.3608 30.5611 62.3608 30.7752 62.3109 30.9563ZM62.3109 39.4364C62.3608 39.4858 62.261 39.4858 62.261 39.5187C62.2278 39.5681 62.261 39.4364 62.3109 39.4364ZM62.926 33.772C62.8429 34.2001 62.4938 34.4142 62.2776 34.8094C62.4605 34.76 62.4106 34.6777 62.4605 34.5953C62.5935 34.6777 62.7598 34.5459 62.8595 34.513C62.793 34.2495 63.059 34.0355 62.926 33.772ZM62.66 28.3217C62.66 28.3217 62.7099 28.3711 62.7099 28.4041C62.793 28.4041 62.7431 28.2229 62.66 28.3217ZM63.3583 30.5611C63.2253 29.7872 63.2751 28.9968 62.7431 28.4041C62.793 28.5852 62.8761 28.6181 62.8761 28.7499C62.6933 28.8322 62.926 29.0956 62.7431 29.145C63.0424 29.145 62.6933 29.4908 62.926 29.4908C62.793 29.5402 62.926 29.5732 62.926 29.6226C62.7431 29.6226 63.0091 29.7543 62.793 29.7543C62.8429 29.8366 62.8429 29.886 62.8429 29.9683C62.926 29.9683 62.926 29.9189 62.926 29.886C63.0091 30.0671 62.8429 30.1824 63.0091 30.3141C62.8761 30.7916 63.2751 31.5326 62.9593 31.829C62.9593 31.8784 63.0424 31.829 63.0923 31.8784C63.0424 31.9278 63.0424 31.9607 63.0424 32.0101C62.9925 32.0101 62.9593 31.9607 62.9094 32.0101C62.9925 32.0925 62.8595 32.1419 62.8263 32.1913C62.8263 32.2736 63.0091 32.2736 62.9094 32.323C62.8595 32.2407 62.6933 32.5865 62.8263 32.6194C62.6933 32.7511 62.6933 32.9158 62.6933 33.1463C62.8263 33.1463 62.6933 33.0146 62.8263 33.0146C62.7431 33.2286 62.8263 33.1957 62.6434 33.278C62.6434 33.4098 62.7265 33.4098 62.7265 33.5415C62.5935 33.5909 62.6434 33.8379 62.6766 33.8873C62.7265 33.6732 62.7265 33.4592 62.8928 33.3604C62.8928 33.278 62.8429 33.278 62.8429 33.1792C63.1089 32.8828 63.1089 32.3559 63.1089 31.9607C63.1588 31.9607 63.1588 32.0431 63.192 32.0101C63.2751 31.8784 63.325 31.7467 63.2419 31.582C63.6741 31.3844 63.0923 30.7752 63.3583 30.5611ZM62.8761 32.7676H62.793V32.7182H62.8761V32.7676ZM62.9593 32.5535C62.9593 32.6029 62.9094 32.6029 62.8761 32.6029C62.8761 32.5535 62.8761 32.5206 62.926 32.5206V32.4712C62.9759 32.4712 62.9759 32.4712 62.9759 32.4218C63.059 32.4218 62.926 32.5206 62.9593 32.5535ZM63.192 32.8664C63.2419 32.9981 63.192 33.0475 63.192 33.1298C63.2751 33.1134 63.2253 32.7676 63.192 32.8664ZM64.4888 34.0684C64.4056 34.1178 64.4056 34.019 64.3558 34.019C64.4389 34.1507 64.2228 34.0684 64.2228 34.1507C64.3225 34.2001 64.4888 34.1178 64.4888 34.0684ZM65.0707 33.3768C65.1205 33.5086 64.8878 33.4592 64.9377 33.5909C64.8047 33.5086 64.9709 33.4262 65.0707 33.3768ZM65.2037 33.3768H65.1205C65.0707 33.3274 65.1704 33.3274 65.1704 33.2945C65.2535 33.3439 65.2535 33.3768 65.2535 33.4756C65.2369 33.5909 65.1538 33.4262 65.2037 33.3768ZM65.2369 34.3813C65.2868 34.4636 65.1039 34.513 65.187 34.513C65.2369 34.513 65.32 34.3813 65.2369 34.3813ZM65.32 33.3439C65.2702 33.3439 65.2702 33.2945 65.2702 33.2945C65.32 33.2945 65.32 33.2451 65.3533 33.2451V33.3274H65.32V33.3439ZM65.5029 32.9816C65.586 33.064 65.3699 33.031 65.4198 33.1134C65.3699 33.1134 65.4198 32.9816 65.5029 32.9816ZM65.5029 34.3319C65.5029 34.2825 65.5029 34.2825 65.453 34.2495H65.4032V34.3319H65.5029ZM66.0183 33.9367C65.9684 33.9367 65.9352 33.9367 65.8853 33.9861C65.9019 33.9861 65.985 33.9861 66.0183 33.9367ZM66.3342 33.2122C66.251 33.0804 66.384 33.0804 66.384 32.9981C66.2012 33.0475 66.4339 32.9981 66.3342 32.8664C66.1513 32.9158 66.2843 33.2122 66.118 33.0804C66.1679 33.1298 66.1679 33.1628 66.1679 33.2122C66.2178 33.2122 66.3508 33.1298 66.3009 33.2122C66.2178 33.2616 66.0848 33.2945 66.0848 33.4262C66.251 33.3768 66.2012 33.2451 66.3342 33.2122ZM66.6334 32.8993C66.5503 32.9487 66.5503 32.9816 66.4173 32.9816C66.4173 33.064 66.4173 33.1628 66.3342 33.1957C66.384 33.3274 66.517 33.1134 66.6334 33.1463C66.5004 33.0804 66.6002 32.9816 66.6334 32.8993ZM66.8994 32.6359C66.7664 32.6359 66.8163 32.7676 66.7664 32.8499C66.8163 32.7676 66.9493 32.7676 66.8994 32.6359ZM67.5644 31.7302C67.5644 31.7302 67.5644 31.7796 67.6143 31.7796C67.6642 31.7796 67.6974 31.7302 67.6642 31.6973C67.6475 31.6973 67.5977 31.6973 67.5644 31.7302ZM68.0798 31.3021C68.1297 31.2527 68.1297 31.3844 68.0299 31.3844C67.9967 31.3515 68.0798 31.3515 68.0798 31.3021ZM69.0441 30.5611C69.0441 30.5611 68.8279 30.6105 68.7781 30.5117C68.8612 30.5117 68.9111 30.4623 68.9942 30.4623C68.9942 30.5282 68.9942 30.5611 69.0441 30.5611ZM69.0939 30.2647C69.0939 30.3141 69.0108 30.3471 69.0441 30.3965C68.9609 30.3965 68.9942 30.2647 69.0939 30.2647ZM69.1272 30.3471C69.1272 30.4788 69.2602 30.3471 69.2103 30.4788C69.1272 30.5282 69.0274 30.2977 69.1604 30.2647C69.2103 30.3471 69.1771 30.3471 69.1272 30.3471ZM69.1771 30.1824C69.1771 30.133 69.3101 30.133 69.3101 30.2318C69.2602 30.2647 69.2602 30.1824 69.1771 30.1824ZM70.0416 29.4414C70.0416 29.5238 69.9584 29.5732 69.8254 29.6226C69.8254 29.5732 69.9584 29.4908 69.8753 29.4908C69.8753 29.3591 69.9584 29.4908 70.0416 29.4414Z" fill="#B11B1B"/>
</svg>
